G04 #@! TF.GenerationSoftware,KiCad,Pcbnew,(5.0.0-rc3-dev)*
G04 #@! TF.CreationDate,2019-09-30T17:53:01-04:00*
G04 #@! TF.ProjectId,orbital shaker,6F72626974616C207368616B65722E6B,rev?*
G04 #@! TF.SameCoordinates,Original*
G04 #@! TF.FileFunction,Soldermask,Top*
G04 #@! TF.FilePolarity,Negative*
%FSLAX46Y46*%
G04 Gerber Fmt 4.6, Leading zero omitted, Abs format (unit mm)*
G04 Created by KiCad (PCBNEW (5.0.0-rc3-dev)) date 09/30/19 17:53:01*
%MOMM*%
%LPD*%
G01*
G04 APERTURE LIST*
%ADD10C,2.279600*%
%ADD11R,2.279600X2.279600*%
%ADD12C,2.082800*%
%ADD13C,2.600000*%
%ADD14O,2.100000X2.100000*%
%ADD15R,2.100000X2.100000*%
G04 APERTURE END LIST*
D10*
G04 #@! TO.C,A1*
X134366000Y-79756000D03*
X131826000Y-79756000D03*
X129286000Y-79756000D03*
X126746000Y-79756000D03*
X124206000Y-79756000D03*
X121666000Y-79756000D03*
X119126000Y-79756000D03*
X116586000Y-79756000D03*
X116586000Y-67056000D03*
X119126000Y-67056000D03*
X121666000Y-67056000D03*
X124206000Y-67056000D03*
X126746000Y-67056000D03*
X129286000Y-67056000D03*
X131826000Y-67056000D03*
D11*
X134366000Y-67056000D03*
G04 #@! TD*
D12*
G04 #@! TO.C,B1*
X141224000Y-100584000D03*
X138684000Y-100584000D03*
X136144000Y-100584000D03*
X133604000Y-100584000D03*
X131064000Y-100584000D03*
X128524000Y-100584000D03*
X125984000Y-100584000D03*
X123444000Y-100584000D03*
X120904000Y-100584000D03*
X118364000Y-100584000D03*
X115824000Y-100584000D03*
X113284000Y-100584000D03*
X113284000Y-85344000D03*
X115824000Y-85344000D03*
X118364000Y-85344000D03*
X120904000Y-85344000D03*
X123444000Y-85344000D03*
X125984000Y-85344000D03*
X128524000Y-85344000D03*
X131064000Y-85344000D03*
X133604000Y-85344000D03*
X136144000Y-85344000D03*
X138684000Y-85344000D03*
X141224000Y-85344000D03*
G04 #@! TD*
D13*
G04 #@! TO.C,REF\002A\002A*
X141000000Y-106000000D03*
G04 #@! TD*
G04 #@! TO.C,REF\002A\002A*
X109000000Y-106000000D03*
G04 #@! TD*
G04 #@! TO.C,REF\002A\002A*
X109000000Y-67000000D03*
G04 #@! TD*
D14*
G04 #@! TO.C,J1*
X135128000Y-105918000D03*
D15*
X132588000Y-105918000D03*
G04 #@! TD*
D14*
G04 #@! TO.C,J2*
X110998000Y-73660000D03*
X110998000Y-76200000D03*
X110998000Y-78740000D03*
D15*
X110998000Y-81280000D03*
G04 #@! TD*
D14*
G04 #@! TO.C,J3*
X118872000Y-105664000D03*
X121412000Y-105664000D03*
D15*
X123952000Y-105664000D03*
G04 #@! TD*
D13*
G04 #@! TO.C,REF\002A\002A*
X141000000Y-67000000D03*
G04 #@! TD*
M02*
