G04 #@! TF.GenerationSoftware,KiCad,Pcbnew,(5.0.0-rc3-dev)*
G04 #@! TF.CreationDate,2019-09-30T17:53:01-04:00*
G04 #@! TF.ProjectId,orbital shaker,6F72626974616C207368616B65722E6B,rev?*
G04 #@! TF.SameCoordinates,Original*
G04 #@! TF.FileFunction,Copper,L2,Bot,Signal*
G04 #@! TF.FilePolarity,Positive*
%FSLAX46Y46*%
G04 Gerber Fmt 4.6, Leading zero omitted, Abs format (unit mm)*
G04 Created by KiCad (PCBNEW (5.0.0-rc3-dev)) date 09/30/19 17:53:01*
%MOMM*%
%LPD*%
G01*
G04 APERTURE LIST*
G04 #@! TA.AperFunction,ComponentPad*
%ADD10C,1.879600*%
G04 #@! TD*
G04 #@! TA.AperFunction,ComponentPad*
%ADD11R,1.879600X1.879600*%
G04 #@! TD*
G04 #@! TA.AperFunction,ComponentPad*
%ADD12O,1.700000X1.700000*%
G04 #@! TD*
G04 #@! TA.AperFunction,ComponentPad*
%ADD13R,1.700000X1.700000*%
G04 #@! TD*
G04 #@! TA.AperFunction,Conductor*
%ADD14C,0.254000*%
G04 #@! TD*
G04 APERTURE END LIST*
D10*
G04 #@! TO.P,A1,16*
G04 #@! TO.N,Net-(A1-Pad16)*
X134366000Y-79756000D03*
G04 #@! TO.P,A1,15*
G04 #@! TO.N,Net-(A1-Pad15)*
X131826000Y-79756000D03*
G04 #@! TO.P,A1,14*
G04 #@! TO.N,Net-(A1-Pad13)*
X129286000Y-79756000D03*
G04 #@! TO.P,A1,13*
X126746000Y-79756000D03*
G04 #@! TO.P,A1,12*
G04 #@! TO.N,Net-(A1-Pad12)*
X124206000Y-79756000D03*
G04 #@! TO.P,A1,11*
G04 #@! TO.N,Net-(A1-Pad11)*
X121666000Y-79756000D03*
G04 #@! TO.P,A1,10*
G04 #@! TO.N,Net-(A1-Pad10)*
X119126000Y-79756000D03*
G04 #@! TO.P,A1,9*
G04 #@! TO.N,Net-(A1-Pad9)*
X116586000Y-79756000D03*
G04 #@! TO.P,A1,8*
G04 #@! TO.N,+12V*
X116586000Y-67056000D03*
G04 #@! TO.P,A1,7*
G04 #@! TO.N,GND*
X119126000Y-67056000D03*
G04 #@! TO.P,A1,6*
G04 #@! TO.N,Net-(A1-Pad6)*
X121666000Y-67056000D03*
G04 #@! TO.P,A1,5*
G04 #@! TO.N,Net-(A1-Pad5)*
X124206000Y-67056000D03*
G04 #@! TO.P,A1,4*
G04 #@! TO.N,Net-(A1-Pad4)*
X126746000Y-67056000D03*
G04 #@! TO.P,A1,3*
G04 #@! TO.N,Net-(A1-Pad3)*
X129286000Y-67056000D03*
G04 #@! TO.P,A1,2*
G04 #@! TO.N,Net-(A1-Pad2)*
X131826000Y-67056000D03*
D11*
G04 #@! TO.P,A1,1*
G04 #@! TO.N,GND*
X134366000Y-67056000D03*
G04 #@! TD*
D10*
G04 #@! TO.P,B1,24*
G04 #@! TO.N,+12V*
X141224000Y-100584000D03*
G04 #@! TO.P,B1,23*
G04 #@! TO.N,GND*
X138684000Y-100584000D03*
G04 #@! TO.P,B1,22*
G04 #@! TO.N,Net-(B1-Pad22)*
X136144000Y-100584000D03*
G04 #@! TO.P,B1,21*
G04 #@! TO.N,Net-(A1-Pad13)*
X133604000Y-100584000D03*
G04 #@! TO.P,B1,20*
G04 #@! TO.N,Net-(B1-Pad20)*
X131064000Y-100584000D03*
G04 #@! TO.P,B1,19*
G04 #@! TO.N,Net-(B1-Pad19)*
X128524000Y-100584000D03*
G04 #@! TO.P,B1,18*
G04 #@! TO.N,Net-(B1-Pad18)*
X125984000Y-100584000D03*
G04 #@! TO.P,B1,17*
G04 #@! TO.N,Net-(B1-Pad17)*
X123444000Y-100584000D03*
G04 #@! TO.P,B1,16*
G04 #@! TO.N,Net-(B1-Pad16)*
X120904000Y-100584000D03*
G04 #@! TO.P,B1,15*
G04 #@! TO.N,Net-(B1-Pad15)*
X118364000Y-100584000D03*
G04 #@! TO.P,B1,14*
G04 #@! TO.N,Net-(B1-Pad14)*
X115824000Y-100584000D03*
G04 #@! TO.P,B1,13*
G04 #@! TO.N,Net-(B1-Pad13)*
X113284000Y-100584000D03*
G04 #@! TO.P,B1,12*
G04 #@! TO.N,Net-(B1-Pad12)*
X113284000Y-85344000D03*
G04 #@! TO.P,B1,11*
G04 #@! TO.N,Net-(A1-Pad16)*
X115824000Y-85344000D03*
G04 #@! TO.P,B1,10*
G04 #@! TO.N,Net-(A1-Pad15)*
X118364000Y-85344000D03*
G04 #@! TO.P,B1,9*
G04 #@! TO.N,Net-(B1-Pad9)*
X120904000Y-85344000D03*
G04 #@! TO.P,B1,8*
G04 #@! TO.N,Net-(B1-Pad8)*
X123444000Y-85344000D03*
G04 #@! TO.P,B1,7*
G04 #@! TO.N,Net-(B1-Pad7)*
X125984000Y-85344000D03*
G04 #@! TO.P,B1,6*
G04 #@! TO.N,Net-(B1-Pad6)*
X128524000Y-85344000D03*
G04 #@! TO.P,B1,5*
G04 #@! TO.N,Net-(B1-Pad5)*
X131064000Y-85344000D03*
G04 #@! TO.P,B1,4*
G04 #@! TO.N,GND*
X133604000Y-85344000D03*
G04 #@! TO.P,B1,3*
X136144000Y-85344000D03*
G04 #@! TO.P,B1,2*
G04 #@! TO.N,Net-(B1-Pad2)*
X138684000Y-85344000D03*
G04 #@! TO.P,B1,1*
G04 #@! TO.N,Net-(B1-Pad1)*
X141224000Y-85344000D03*
G04 #@! TD*
D12*
G04 #@! TO.P,J1,2*
G04 #@! TO.N,GND*
X135128000Y-105918000D03*
D13*
G04 #@! TO.P,J1,1*
G04 #@! TO.N,+12V*
X132588000Y-105918000D03*
G04 #@! TD*
D12*
G04 #@! TO.P,J2,4*
G04 #@! TO.N,Net-(A1-Pad6)*
X110998000Y-73660000D03*
G04 #@! TO.P,J2,3*
G04 #@! TO.N,Net-(A1-Pad5)*
X110998000Y-76200000D03*
G04 #@! TO.P,J2,2*
G04 #@! TO.N,Net-(A1-Pad3)*
X110998000Y-78740000D03*
D13*
G04 #@! TO.P,J2,1*
G04 #@! TO.N,Net-(A1-Pad4)*
X110998000Y-81280000D03*
G04 #@! TD*
D12*
G04 #@! TO.P,J3,3*
G04 #@! TO.N,GND*
X118872000Y-105664000D03*
G04 #@! TO.P,J3,2*
G04 #@! TO.N,Net-(B1-Pad17)*
X121412000Y-105664000D03*
D13*
G04 #@! TO.P,J3,1*
G04 #@! TO.N,Net-(A1-Pad13)*
X123952000Y-105664000D03*
G04 #@! TD*
D14*
G04 #@! TO.N,GND*
G36*
X140788747Y-63797281D02*
X141519643Y-63997231D01*
X142203575Y-64323450D01*
X142818928Y-64765626D01*
X143346259Y-65309789D01*
X143768886Y-65938726D01*
X144073463Y-66632570D01*
X144251715Y-67375039D01*
X144299001Y-68018963D01*
X144299000Y-104949269D01*
X144228719Y-105736748D01*
X144028769Y-106467643D01*
X143702550Y-107151575D01*
X143260374Y-107766928D01*
X142716211Y-108294259D01*
X142087274Y-108716886D01*
X141393429Y-109021464D01*
X140650961Y-109199714D01*
X140007051Y-109247000D01*
X109680731Y-109247000D01*
X108893252Y-109176719D01*
X108162357Y-108976769D01*
X107478425Y-108650550D01*
X106863072Y-108208374D01*
X106335741Y-107664211D01*
X105913114Y-107035274D01*
X105608536Y-106341429D01*
X105443713Y-105654887D01*
X107265000Y-105654887D01*
X107265000Y-106345113D01*
X107529138Y-106982799D01*
X108017201Y-107470862D01*
X108654887Y-107735000D01*
X109345113Y-107735000D01*
X109982799Y-107470862D01*
X110470862Y-106982799D01*
X110735000Y-106345113D01*
X110735000Y-106020892D01*
X117430514Y-106020892D01*
X117676817Y-106545358D01*
X118105076Y-106935645D01*
X118515110Y-107105476D01*
X118745000Y-106984155D01*
X118745000Y-105791000D01*
X117551181Y-105791000D01*
X117430514Y-106020892D01*
X110735000Y-106020892D01*
X110735000Y-105654887D01*
X110590946Y-105307108D01*
X117430514Y-105307108D01*
X117551181Y-105537000D01*
X118745000Y-105537000D01*
X118745000Y-104343845D01*
X118999000Y-104343845D01*
X118999000Y-105537000D01*
X119019000Y-105537000D01*
X119019000Y-105791000D01*
X118999000Y-105791000D01*
X118999000Y-106984155D01*
X119228890Y-107105476D01*
X119638924Y-106935645D01*
X120067183Y-106545358D01*
X120128157Y-106415522D01*
X120341375Y-106734625D01*
X120832582Y-107062839D01*
X121265744Y-107149000D01*
X121558256Y-107149000D01*
X121991418Y-107062839D01*
X122482625Y-106734625D01*
X122494816Y-106716381D01*
X122503843Y-106761765D01*
X122644191Y-106971809D01*
X122854235Y-107112157D01*
X123102000Y-107161440D01*
X124802000Y-107161440D01*
X125049765Y-107112157D01*
X125259809Y-106971809D01*
X125400157Y-106761765D01*
X125449440Y-106514000D01*
X125449440Y-105068000D01*
X131090560Y-105068000D01*
X131090560Y-106768000D01*
X131139843Y-107015765D01*
X131280191Y-107225809D01*
X131490235Y-107366157D01*
X131738000Y-107415440D01*
X133438000Y-107415440D01*
X133685765Y-107366157D01*
X133895809Y-107225809D01*
X134036157Y-107015765D01*
X134085440Y-106768000D01*
X134085440Y-105654887D01*
X139265000Y-105654887D01*
X139265000Y-106345113D01*
X139529138Y-106982799D01*
X140017201Y-107470862D01*
X140654887Y-107735000D01*
X141345113Y-107735000D01*
X141982799Y-107470862D01*
X142470862Y-106982799D01*
X142735000Y-106345113D01*
X142735000Y-105654887D01*
X142470862Y-105017201D01*
X141982799Y-104529138D01*
X141345113Y-104265000D01*
X140654887Y-104265000D01*
X140017201Y-104529138D01*
X139529138Y-105017201D01*
X139265000Y-105654887D01*
X134085440Y-105654887D01*
X134085440Y-105068000D01*
X134036157Y-104820235D01*
X133895809Y-104610191D01*
X133685765Y-104469843D01*
X133438000Y-104420560D01*
X131738000Y-104420560D01*
X131490235Y-104469843D01*
X131280191Y-104610191D01*
X131139843Y-104820235D01*
X131090560Y-105068000D01*
X125449440Y-105068000D01*
X125449440Y-104814000D01*
X125400157Y-104566235D01*
X125259809Y-104356191D01*
X125049765Y-104215843D01*
X124802000Y-104166560D01*
X123102000Y-104166560D01*
X122854235Y-104215843D01*
X122644191Y-104356191D01*
X122503843Y-104566235D01*
X122494816Y-104611619D01*
X122482625Y-104593375D01*
X121991418Y-104265161D01*
X121558256Y-104179000D01*
X121265744Y-104179000D01*
X120832582Y-104265161D01*
X120341375Y-104593375D01*
X120128157Y-104912478D01*
X120067183Y-104782642D01*
X119638924Y-104392355D01*
X119228890Y-104222524D01*
X118999000Y-104343845D01*
X118745000Y-104343845D01*
X118515110Y-104222524D01*
X118105076Y-104392355D01*
X117676817Y-104782642D01*
X117430514Y-105307108D01*
X110590946Y-105307108D01*
X110470862Y-105017201D01*
X109982799Y-104529138D01*
X109345113Y-104265000D01*
X108654887Y-104265000D01*
X108017201Y-104529138D01*
X107529138Y-105017201D01*
X107265000Y-105654887D01*
X105443713Y-105654887D01*
X105430286Y-105598961D01*
X105383000Y-104955051D01*
X105383000Y-100270753D01*
X111709200Y-100270753D01*
X111709200Y-100897247D01*
X111948949Y-101476052D01*
X112391948Y-101919051D01*
X112970753Y-102158800D01*
X113597247Y-102158800D01*
X114176052Y-101919051D01*
X114554000Y-101541103D01*
X114931948Y-101919051D01*
X115510753Y-102158800D01*
X116137247Y-102158800D01*
X116716052Y-101919051D01*
X117094000Y-101541103D01*
X117471948Y-101919051D01*
X118050753Y-102158800D01*
X118677247Y-102158800D01*
X119256052Y-101919051D01*
X119634000Y-101541103D01*
X120011948Y-101919051D01*
X120590753Y-102158800D01*
X121217247Y-102158800D01*
X121796052Y-101919051D01*
X122174000Y-101541103D01*
X122551948Y-101919051D01*
X123130753Y-102158800D01*
X123757247Y-102158800D01*
X124336052Y-101919051D01*
X124714000Y-101541103D01*
X125091948Y-101919051D01*
X125670753Y-102158800D01*
X126297247Y-102158800D01*
X126876052Y-101919051D01*
X127254000Y-101541103D01*
X127631948Y-101919051D01*
X128210753Y-102158800D01*
X128837247Y-102158800D01*
X129416052Y-101919051D01*
X129794000Y-101541103D01*
X130171948Y-101919051D01*
X130750753Y-102158800D01*
X131377247Y-102158800D01*
X131956052Y-101919051D01*
X132334000Y-101541103D01*
X132711948Y-101919051D01*
X133290753Y-102158800D01*
X133917247Y-102158800D01*
X134496052Y-101919051D01*
X134874000Y-101541103D01*
X135251948Y-101919051D01*
X135830753Y-102158800D01*
X136457247Y-102158800D01*
X137036052Y-101919051D01*
X137262135Y-101692968D01*
X137754637Y-101692968D01*
X137845923Y-101953580D01*
X138433833Y-102170045D01*
X139059828Y-102145049D01*
X139522077Y-101953580D01*
X139613363Y-101692968D01*
X138684000Y-100763605D01*
X137754637Y-101692968D01*
X137262135Y-101692968D01*
X137476317Y-101478786D01*
X137575032Y-101513363D01*
X138504395Y-100584000D01*
X138863605Y-100584000D01*
X139792968Y-101513363D01*
X139891683Y-101478786D01*
X140331948Y-101919051D01*
X140910753Y-102158800D01*
X141537247Y-102158800D01*
X142116052Y-101919051D01*
X142559051Y-101476052D01*
X142798800Y-100897247D01*
X142798800Y-100270753D01*
X142559051Y-99691948D01*
X142116052Y-99248949D01*
X141537247Y-99009200D01*
X140910753Y-99009200D01*
X140331948Y-99248949D01*
X139891683Y-99689214D01*
X139792968Y-99654637D01*
X138863605Y-100584000D01*
X138504395Y-100584000D01*
X137575032Y-99654637D01*
X137476317Y-99689214D01*
X137262135Y-99475032D01*
X137754637Y-99475032D01*
X138684000Y-100404395D01*
X139613363Y-99475032D01*
X139522077Y-99214420D01*
X138934167Y-98997955D01*
X138308172Y-99022951D01*
X137845923Y-99214420D01*
X137754637Y-99475032D01*
X137262135Y-99475032D01*
X137036052Y-99248949D01*
X136457247Y-99009200D01*
X135830753Y-99009200D01*
X135251948Y-99248949D01*
X134874000Y-99626897D01*
X134496052Y-99248949D01*
X133917247Y-99009200D01*
X133290753Y-99009200D01*
X132711948Y-99248949D01*
X132334000Y-99626897D01*
X131956052Y-99248949D01*
X131377247Y-99009200D01*
X130750753Y-99009200D01*
X130171948Y-99248949D01*
X129794000Y-99626897D01*
X129416052Y-99248949D01*
X128837247Y-99009200D01*
X128210753Y-99009200D01*
X127631948Y-99248949D01*
X127254000Y-99626897D01*
X126876052Y-99248949D01*
X126297247Y-99009200D01*
X125670753Y-99009200D01*
X125091948Y-99248949D01*
X124714000Y-99626897D01*
X124336052Y-99248949D01*
X123757247Y-99009200D01*
X123130753Y-99009200D01*
X122551948Y-99248949D01*
X122174000Y-99626897D01*
X121796052Y-99248949D01*
X121217247Y-99009200D01*
X120590753Y-99009200D01*
X120011948Y-99248949D01*
X119634000Y-99626897D01*
X119256052Y-99248949D01*
X118677247Y-99009200D01*
X118050753Y-99009200D01*
X117471948Y-99248949D01*
X117094000Y-99626897D01*
X116716052Y-99248949D01*
X116137247Y-99009200D01*
X115510753Y-99009200D01*
X114931948Y-99248949D01*
X114554000Y-99626897D01*
X114176052Y-99248949D01*
X113597247Y-99009200D01*
X112970753Y-99009200D01*
X112391948Y-99248949D01*
X111948949Y-99691948D01*
X111709200Y-100270753D01*
X105383000Y-100270753D01*
X105383000Y-85030753D01*
X111709200Y-85030753D01*
X111709200Y-85657247D01*
X111948949Y-86236052D01*
X112391948Y-86679051D01*
X112970753Y-86918800D01*
X113597247Y-86918800D01*
X114176052Y-86679051D01*
X114554000Y-86301103D01*
X114931948Y-86679051D01*
X115510753Y-86918800D01*
X116137247Y-86918800D01*
X116716052Y-86679051D01*
X117094000Y-86301103D01*
X117471948Y-86679051D01*
X118050753Y-86918800D01*
X118677247Y-86918800D01*
X119256052Y-86679051D01*
X119634000Y-86301103D01*
X120011948Y-86679051D01*
X120590753Y-86918800D01*
X121217247Y-86918800D01*
X121796052Y-86679051D01*
X122174000Y-86301103D01*
X122551948Y-86679051D01*
X123130753Y-86918800D01*
X123757247Y-86918800D01*
X124336052Y-86679051D01*
X124714000Y-86301103D01*
X125091948Y-86679051D01*
X125670753Y-86918800D01*
X126297247Y-86918800D01*
X126876052Y-86679051D01*
X127254000Y-86301103D01*
X127631948Y-86679051D01*
X128210753Y-86918800D01*
X128837247Y-86918800D01*
X129416052Y-86679051D01*
X129794000Y-86301103D01*
X130171948Y-86679051D01*
X130750753Y-86918800D01*
X131377247Y-86918800D01*
X131956052Y-86679051D01*
X132182135Y-86452968D01*
X132674637Y-86452968D01*
X132765923Y-86713580D01*
X133353833Y-86930045D01*
X133979828Y-86905049D01*
X134442077Y-86713580D01*
X134533363Y-86452968D01*
X135214637Y-86452968D01*
X135305923Y-86713580D01*
X135893833Y-86930045D01*
X136519828Y-86905049D01*
X136982077Y-86713580D01*
X137073363Y-86452968D01*
X136144000Y-85523605D01*
X135214637Y-86452968D01*
X134533363Y-86452968D01*
X133604000Y-85523605D01*
X132674637Y-86452968D01*
X132182135Y-86452968D01*
X132396317Y-86238786D01*
X132495032Y-86273363D01*
X133424395Y-85344000D01*
X133783605Y-85344000D01*
X134712968Y-86273363D01*
X134874000Y-86216957D01*
X135035032Y-86273363D01*
X135964395Y-85344000D01*
X136323605Y-85344000D01*
X137252968Y-86273363D01*
X137351683Y-86238786D01*
X137791948Y-86679051D01*
X138370753Y-86918800D01*
X138997247Y-86918800D01*
X139576052Y-86679051D01*
X139954000Y-86301103D01*
X140331948Y-86679051D01*
X140910753Y-86918800D01*
X141537247Y-86918800D01*
X142116052Y-86679051D01*
X142559051Y-86236052D01*
X142798800Y-85657247D01*
X142798800Y-85030753D01*
X142559051Y-84451948D01*
X142116052Y-84008949D01*
X141537247Y-83769200D01*
X140910753Y-83769200D01*
X140331948Y-84008949D01*
X139954000Y-84386897D01*
X139576052Y-84008949D01*
X138997247Y-83769200D01*
X138370753Y-83769200D01*
X137791948Y-84008949D01*
X137351683Y-84449214D01*
X137252968Y-84414637D01*
X136323605Y-85344000D01*
X135964395Y-85344000D01*
X135035032Y-84414637D01*
X134874000Y-84471043D01*
X134712968Y-84414637D01*
X133783605Y-85344000D01*
X133424395Y-85344000D01*
X132495032Y-84414637D01*
X132396317Y-84449214D01*
X132182135Y-84235032D01*
X132674637Y-84235032D01*
X133604000Y-85164395D01*
X134533363Y-84235032D01*
X135214637Y-84235032D01*
X136144000Y-85164395D01*
X137073363Y-84235032D01*
X136982077Y-83974420D01*
X136394167Y-83757955D01*
X135768172Y-83782951D01*
X135305923Y-83974420D01*
X135214637Y-84235032D01*
X134533363Y-84235032D01*
X134442077Y-83974420D01*
X133854167Y-83757955D01*
X133228172Y-83782951D01*
X132765923Y-83974420D01*
X132674637Y-84235032D01*
X132182135Y-84235032D01*
X131956052Y-84008949D01*
X131377247Y-83769200D01*
X130750753Y-83769200D01*
X130171948Y-84008949D01*
X129794000Y-84386897D01*
X129416052Y-84008949D01*
X128837247Y-83769200D01*
X128210753Y-83769200D01*
X127631948Y-84008949D01*
X127254000Y-84386897D01*
X126876052Y-84008949D01*
X126297247Y-83769200D01*
X125670753Y-83769200D01*
X125091948Y-84008949D01*
X124714000Y-84386897D01*
X124336052Y-84008949D01*
X123757247Y-83769200D01*
X123130753Y-83769200D01*
X122551948Y-84008949D01*
X122174000Y-84386897D01*
X121796052Y-84008949D01*
X121217247Y-83769200D01*
X120590753Y-83769200D01*
X120011948Y-84008949D01*
X119634000Y-84386897D01*
X119256052Y-84008949D01*
X118677247Y-83769200D01*
X118050753Y-83769200D01*
X117471948Y-84008949D01*
X117094000Y-84386897D01*
X116716052Y-84008949D01*
X116137247Y-83769200D01*
X115510753Y-83769200D01*
X114931948Y-84008949D01*
X114554000Y-84386897D01*
X114176052Y-84008949D01*
X113597247Y-83769200D01*
X112970753Y-83769200D01*
X112391948Y-84008949D01*
X111948949Y-84451948D01*
X111709200Y-85030753D01*
X105383000Y-85030753D01*
X105383000Y-73660000D01*
X109483908Y-73660000D01*
X109599161Y-74239418D01*
X109927375Y-74730625D01*
X110225761Y-74930000D01*
X109927375Y-75129375D01*
X109599161Y-75620582D01*
X109483908Y-76200000D01*
X109599161Y-76779418D01*
X109927375Y-77270625D01*
X110225761Y-77470000D01*
X109927375Y-77669375D01*
X109599161Y-78160582D01*
X109483908Y-78740000D01*
X109599161Y-79319418D01*
X109927375Y-79810625D01*
X109945619Y-79822816D01*
X109900235Y-79831843D01*
X109690191Y-79972191D01*
X109549843Y-80182235D01*
X109500560Y-80430000D01*
X109500560Y-82130000D01*
X109549843Y-82377765D01*
X109690191Y-82587809D01*
X109900235Y-82728157D01*
X110148000Y-82777440D01*
X111848000Y-82777440D01*
X112095765Y-82728157D01*
X112305809Y-82587809D01*
X112446157Y-82377765D01*
X112495440Y-82130000D01*
X112495440Y-80430000D01*
X112446157Y-80182235D01*
X112305809Y-79972191D01*
X112095765Y-79831843D01*
X112050381Y-79822816D01*
X112068625Y-79810625D01*
X112314429Y-79442753D01*
X115011200Y-79442753D01*
X115011200Y-80069247D01*
X115250949Y-80648052D01*
X115693948Y-81091051D01*
X116272753Y-81330800D01*
X116899247Y-81330800D01*
X117478052Y-81091051D01*
X117856000Y-80713103D01*
X118233948Y-81091051D01*
X118812753Y-81330800D01*
X119439247Y-81330800D01*
X120018052Y-81091051D01*
X120396000Y-80713103D01*
X120773948Y-81091051D01*
X121352753Y-81330800D01*
X121979247Y-81330800D01*
X122558052Y-81091051D01*
X122936000Y-80713103D01*
X123313948Y-81091051D01*
X123892753Y-81330800D01*
X124519247Y-81330800D01*
X125098052Y-81091051D01*
X125476000Y-80713103D01*
X125853948Y-81091051D01*
X126432753Y-81330800D01*
X127059247Y-81330800D01*
X127638052Y-81091051D01*
X128016000Y-80713103D01*
X128393948Y-81091051D01*
X128972753Y-81330800D01*
X129599247Y-81330800D01*
X130178052Y-81091051D01*
X130556000Y-80713103D01*
X130933948Y-81091051D01*
X131512753Y-81330800D01*
X132139247Y-81330800D01*
X132718052Y-81091051D01*
X133096000Y-80713103D01*
X133473948Y-81091051D01*
X134052753Y-81330800D01*
X134679247Y-81330800D01*
X135258052Y-81091051D01*
X135701051Y-80648052D01*
X135940800Y-80069247D01*
X135940800Y-79442753D01*
X135701051Y-78863948D01*
X135258052Y-78420949D01*
X134679247Y-78181200D01*
X134052753Y-78181200D01*
X133473948Y-78420949D01*
X133096000Y-78798897D01*
X132718052Y-78420949D01*
X132139247Y-78181200D01*
X131512753Y-78181200D01*
X130933948Y-78420949D01*
X130556000Y-78798897D01*
X130178052Y-78420949D01*
X129599247Y-78181200D01*
X128972753Y-78181200D01*
X128393948Y-78420949D01*
X128016000Y-78798897D01*
X127638052Y-78420949D01*
X127059247Y-78181200D01*
X126432753Y-78181200D01*
X125853948Y-78420949D01*
X125476000Y-78798897D01*
X125098052Y-78420949D01*
X124519247Y-78181200D01*
X123892753Y-78181200D01*
X123313948Y-78420949D01*
X122936000Y-78798897D01*
X122558052Y-78420949D01*
X121979247Y-78181200D01*
X121352753Y-78181200D01*
X120773948Y-78420949D01*
X120396000Y-78798897D01*
X120018052Y-78420949D01*
X119439247Y-78181200D01*
X118812753Y-78181200D01*
X118233948Y-78420949D01*
X117856000Y-78798897D01*
X117478052Y-78420949D01*
X116899247Y-78181200D01*
X116272753Y-78181200D01*
X115693948Y-78420949D01*
X115250949Y-78863948D01*
X115011200Y-79442753D01*
X112314429Y-79442753D01*
X112396839Y-79319418D01*
X112512092Y-78740000D01*
X112396839Y-78160582D01*
X112068625Y-77669375D01*
X111770239Y-77470000D01*
X112068625Y-77270625D01*
X112396839Y-76779418D01*
X112512092Y-76200000D01*
X112396839Y-75620582D01*
X112068625Y-75129375D01*
X111770239Y-74930000D01*
X112068625Y-74730625D01*
X112396839Y-74239418D01*
X112512092Y-73660000D01*
X112396839Y-73080582D01*
X112068625Y-72589375D01*
X111577418Y-72261161D01*
X111144256Y-72175000D01*
X110851744Y-72175000D01*
X110418582Y-72261161D01*
X109927375Y-72589375D01*
X109599161Y-73080582D01*
X109483908Y-73660000D01*
X105383000Y-73660000D01*
X105383000Y-68024731D01*
X105453281Y-67237253D01*
X105612597Y-66654887D01*
X107265000Y-66654887D01*
X107265000Y-67345113D01*
X107529138Y-67982799D01*
X108017201Y-68470862D01*
X108654887Y-68735000D01*
X109345113Y-68735000D01*
X109982799Y-68470862D01*
X110470862Y-67982799D01*
X110735000Y-67345113D01*
X110735000Y-66742753D01*
X115011200Y-66742753D01*
X115011200Y-67369247D01*
X115250949Y-67948052D01*
X115693948Y-68391051D01*
X116272753Y-68630800D01*
X116899247Y-68630800D01*
X117478052Y-68391051D01*
X117704135Y-68164968D01*
X118196637Y-68164968D01*
X118287923Y-68425580D01*
X118875833Y-68642045D01*
X119501828Y-68617049D01*
X119964077Y-68425580D01*
X120055363Y-68164968D01*
X119126000Y-67235605D01*
X118196637Y-68164968D01*
X117704135Y-68164968D01*
X117918317Y-67950786D01*
X118017032Y-67985363D01*
X118946395Y-67056000D01*
X119305605Y-67056000D01*
X120234968Y-67985363D01*
X120333683Y-67950786D01*
X120773948Y-68391051D01*
X121352753Y-68630800D01*
X121979247Y-68630800D01*
X122558052Y-68391051D01*
X122936000Y-68013103D01*
X123313948Y-68391051D01*
X123892753Y-68630800D01*
X124519247Y-68630800D01*
X125098052Y-68391051D01*
X125476000Y-68013103D01*
X125853948Y-68391051D01*
X126432753Y-68630800D01*
X127059247Y-68630800D01*
X127638052Y-68391051D01*
X128016000Y-68013103D01*
X128393948Y-68391051D01*
X128972753Y-68630800D01*
X129599247Y-68630800D01*
X130178052Y-68391051D01*
X130556000Y-68013103D01*
X130933948Y-68391051D01*
X131512753Y-68630800D01*
X132139247Y-68630800D01*
X132718052Y-68391051D01*
X132848547Y-68260556D01*
X132887873Y-68355498D01*
X133066501Y-68534127D01*
X133299890Y-68630800D01*
X134080250Y-68630800D01*
X134239000Y-68472050D01*
X134239000Y-67183000D01*
X134493000Y-67183000D01*
X134493000Y-68472050D01*
X134651750Y-68630800D01*
X135432110Y-68630800D01*
X135665499Y-68534127D01*
X135844127Y-68355498D01*
X135940800Y-68122109D01*
X135940800Y-67341750D01*
X135782050Y-67183000D01*
X134493000Y-67183000D01*
X134239000Y-67183000D01*
X134219000Y-67183000D01*
X134219000Y-66929000D01*
X134239000Y-66929000D01*
X134239000Y-65639950D01*
X134493000Y-65639950D01*
X134493000Y-66929000D01*
X135782050Y-66929000D01*
X135940800Y-66770250D01*
X135940800Y-66654887D01*
X139265000Y-66654887D01*
X139265000Y-67345113D01*
X139529138Y-67982799D01*
X140017201Y-68470862D01*
X140654887Y-68735000D01*
X141345113Y-68735000D01*
X141982799Y-68470862D01*
X142470862Y-67982799D01*
X142735000Y-67345113D01*
X142735000Y-66654887D01*
X142470862Y-66017201D01*
X141982799Y-65529138D01*
X141345113Y-65265000D01*
X140654887Y-65265000D01*
X140017201Y-65529138D01*
X139529138Y-66017201D01*
X139265000Y-66654887D01*
X135940800Y-66654887D01*
X135940800Y-65989891D01*
X135844127Y-65756502D01*
X135665499Y-65577873D01*
X135432110Y-65481200D01*
X134651750Y-65481200D01*
X134493000Y-65639950D01*
X134239000Y-65639950D01*
X134080250Y-65481200D01*
X133299890Y-65481200D01*
X133066501Y-65577873D01*
X132887873Y-65756502D01*
X132848547Y-65851444D01*
X132718052Y-65720949D01*
X132139247Y-65481200D01*
X131512753Y-65481200D01*
X130933948Y-65720949D01*
X130556000Y-66098897D01*
X130178052Y-65720949D01*
X129599247Y-65481200D01*
X128972753Y-65481200D01*
X128393948Y-65720949D01*
X128016000Y-66098897D01*
X127638052Y-65720949D01*
X127059247Y-65481200D01*
X126432753Y-65481200D01*
X125853948Y-65720949D01*
X125476000Y-66098897D01*
X125098052Y-65720949D01*
X124519247Y-65481200D01*
X123892753Y-65481200D01*
X123313948Y-65720949D01*
X122936000Y-66098897D01*
X122558052Y-65720949D01*
X121979247Y-65481200D01*
X121352753Y-65481200D01*
X120773948Y-65720949D01*
X120333683Y-66161214D01*
X120234968Y-66126637D01*
X119305605Y-67056000D01*
X118946395Y-67056000D01*
X118017032Y-66126637D01*
X117918317Y-66161214D01*
X117704135Y-65947032D01*
X118196637Y-65947032D01*
X119126000Y-66876395D01*
X120055363Y-65947032D01*
X119964077Y-65686420D01*
X119376167Y-65469955D01*
X118750172Y-65494951D01*
X118287923Y-65686420D01*
X118196637Y-65947032D01*
X117704135Y-65947032D01*
X117478052Y-65720949D01*
X116899247Y-65481200D01*
X116272753Y-65481200D01*
X115693948Y-65720949D01*
X115250949Y-66163948D01*
X115011200Y-66742753D01*
X110735000Y-66742753D01*
X110735000Y-66654887D01*
X110470862Y-66017201D01*
X109982799Y-65529138D01*
X109345113Y-65265000D01*
X108654887Y-65265000D01*
X108017201Y-65529138D01*
X107529138Y-66017201D01*
X107265000Y-66654887D01*
X105612597Y-66654887D01*
X105653231Y-66506357D01*
X105979450Y-65822425D01*
X106421626Y-65207072D01*
X106965789Y-64679741D01*
X107594726Y-64257114D01*
X108288570Y-63952537D01*
X109031039Y-63774285D01*
X109674949Y-63727000D01*
X140001269Y-63727000D01*
X140788747Y-63797281D01*
X140788747Y-63797281D01*
G37*
X140788747Y-63797281D02*
X141519643Y-63997231D01*
X142203575Y-64323450D01*
X142818928Y-64765626D01*
X143346259Y-65309789D01*
X143768886Y-65938726D01*
X144073463Y-66632570D01*
X144251715Y-67375039D01*
X144299001Y-68018963D01*
X144299000Y-104949269D01*
X144228719Y-105736748D01*
X144028769Y-106467643D01*
X143702550Y-107151575D01*
X143260374Y-107766928D01*
X142716211Y-108294259D01*
X142087274Y-108716886D01*
X141393429Y-109021464D01*
X140650961Y-109199714D01*
X140007051Y-109247000D01*
X109680731Y-109247000D01*
X108893252Y-109176719D01*
X108162357Y-108976769D01*
X107478425Y-108650550D01*
X106863072Y-108208374D01*
X106335741Y-107664211D01*
X105913114Y-107035274D01*
X105608536Y-106341429D01*
X105443713Y-105654887D01*
X107265000Y-105654887D01*
X107265000Y-106345113D01*
X107529138Y-106982799D01*
X108017201Y-107470862D01*
X108654887Y-107735000D01*
X109345113Y-107735000D01*
X109982799Y-107470862D01*
X110470862Y-106982799D01*
X110735000Y-106345113D01*
X110735000Y-106020892D01*
X117430514Y-106020892D01*
X117676817Y-106545358D01*
X118105076Y-106935645D01*
X118515110Y-107105476D01*
X118745000Y-106984155D01*
X118745000Y-105791000D01*
X117551181Y-105791000D01*
X117430514Y-106020892D01*
X110735000Y-106020892D01*
X110735000Y-105654887D01*
X110590946Y-105307108D01*
X117430514Y-105307108D01*
X117551181Y-105537000D01*
X118745000Y-105537000D01*
X118745000Y-104343845D01*
X118999000Y-104343845D01*
X118999000Y-105537000D01*
X119019000Y-105537000D01*
X119019000Y-105791000D01*
X118999000Y-105791000D01*
X118999000Y-106984155D01*
X119228890Y-107105476D01*
X119638924Y-106935645D01*
X120067183Y-106545358D01*
X120128157Y-106415522D01*
X120341375Y-106734625D01*
X120832582Y-107062839D01*
X121265744Y-107149000D01*
X121558256Y-107149000D01*
X121991418Y-107062839D01*
X122482625Y-106734625D01*
X122494816Y-106716381D01*
X122503843Y-106761765D01*
X122644191Y-106971809D01*
X122854235Y-107112157D01*
X123102000Y-107161440D01*
X124802000Y-107161440D01*
X125049765Y-107112157D01*
X125259809Y-106971809D01*
X125400157Y-106761765D01*
X125449440Y-106514000D01*
X125449440Y-105068000D01*
X131090560Y-105068000D01*
X131090560Y-106768000D01*
X131139843Y-107015765D01*
X131280191Y-107225809D01*
X131490235Y-107366157D01*
X131738000Y-107415440D01*
X133438000Y-107415440D01*
X133685765Y-107366157D01*
X133895809Y-107225809D01*
X134036157Y-107015765D01*
X134085440Y-106768000D01*
X134085440Y-105654887D01*
X139265000Y-105654887D01*
X139265000Y-106345113D01*
X139529138Y-106982799D01*
X140017201Y-107470862D01*
X140654887Y-107735000D01*
X141345113Y-107735000D01*
X141982799Y-107470862D01*
X142470862Y-106982799D01*
X142735000Y-106345113D01*
X142735000Y-105654887D01*
X142470862Y-105017201D01*
X141982799Y-104529138D01*
X141345113Y-104265000D01*
X140654887Y-104265000D01*
X140017201Y-104529138D01*
X139529138Y-105017201D01*
X139265000Y-105654887D01*
X134085440Y-105654887D01*
X134085440Y-105068000D01*
X134036157Y-104820235D01*
X133895809Y-104610191D01*
X133685765Y-104469843D01*
X133438000Y-104420560D01*
X131738000Y-104420560D01*
X131490235Y-104469843D01*
X131280191Y-104610191D01*
X131139843Y-104820235D01*
X131090560Y-105068000D01*
X125449440Y-105068000D01*
X125449440Y-104814000D01*
X125400157Y-104566235D01*
X125259809Y-104356191D01*
X125049765Y-104215843D01*
X124802000Y-104166560D01*
X123102000Y-104166560D01*
X122854235Y-104215843D01*
X122644191Y-104356191D01*
X122503843Y-104566235D01*
X122494816Y-104611619D01*
X122482625Y-104593375D01*
X121991418Y-104265161D01*
X121558256Y-104179000D01*
X121265744Y-104179000D01*
X120832582Y-104265161D01*
X120341375Y-104593375D01*
X120128157Y-104912478D01*
X120067183Y-104782642D01*
X119638924Y-104392355D01*
X119228890Y-104222524D01*
X118999000Y-104343845D01*
X118745000Y-104343845D01*
X118515110Y-104222524D01*
X118105076Y-104392355D01*
X117676817Y-104782642D01*
X117430514Y-105307108D01*
X110590946Y-105307108D01*
X110470862Y-105017201D01*
X109982799Y-104529138D01*
X109345113Y-104265000D01*
X108654887Y-104265000D01*
X108017201Y-104529138D01*
X107529138Y-105017201D01*
X107265000Y-105654887D01*
X105443713Y-105654887D01*
X105430286Y-105598961D01*
X105383000Y-104955051D01*
X105383000Y-100270753D01*
X111709200Y-100270753D01*
X111709200Y-100897247D01*
X111948949Y-101476052D01*
X112391948Y-101919051D01*
X112970753Y-102158800D01*
X113597247Y-102158800D01*
X114176052Y-101919051D01*
X114554000Y-101541103D01*
X114931948Y-101919051D01*
X115510753Y-102158800D01*
X116137247Y-102158800D01*
X116716052Y-101919051D01*
X117094000Y-101541103D01*
X117471948Y-101919051D01*
X118050753Y-102158800D01*
X118677247Y-102158800D01*
X119256052Y-101919051D01*
X119634000Y-101541103D01*
X120011948Y-101919051D01*
X120590753Y-102158800D01*
X121217247Y-102158800D01*
X121796052Y-101919051D01*
X122174000Y-101541103D01*
X122551948Y-101919051D01*
X123130753Y-102158800D01*
X123757247Y-102158800D01*
X124336052Y-101919051D01*
X124714000Y-101541103D01*
X125091948Y-101919051D01*
X125670753Y-102158800D01*
X126297247Y-102158800D01*
X126876052Y-101919051D01*
X127254000Y-101541103D01*
X127631948Y-101919051D01*
X128210753Y-102158800D01*
X128837247Y-102158800D01*
X129416052Y-101919051D01*
X129794000Y-101541103D01*
X130171948Y-101919051D01*
X130750753Y-102158800D01*
X131377247Y-102158800D01*
X131956052Y-101919051D01*
X132334000Y-101541103D01*
X132711948Y-101919051D01*
X133290753Y-102158800D01*
X133917247Y-102158800D01*
X134496052Y-101919051D01*
X134874000Y-101541103D01*
X135251948Y-101919051D01*
X135830753Y-102158800D01*
X136457247Y-102158800D01*
X137036052Y-101919051D01*
X137262135Y-101692968D01*
X137754637Y-101692968D01*
X137845923Y-101953580D01*
X138433833Y-102170045D01*
X139059828Y-102145049D01*
X139522077Y-101953580D01*
X139613363Y-101692968D01*
X138684000Y-100763605D01*
X137754637Y-101692968D01*
X137262135Y-101692968D01*
X137476317Y-101478786D01*
X137575032Y-101513363D01*
X138504395Y-100584000D01*
X138863605Y-100584000D01*
X139792968Y-101513363D01*
X139891683Y-101478786D01*
X140331948Y-101919051D01*
X140910753Y-102158800D01*
X141537247Y-102158800D01*
X142116052Y-101919051D01*
X142559051Y-101476052D01*
X142798800Y-100897247D01*
X142798800Y-100270753D01*
X142559051Y-99691948D01*
X142116052Y-99248949D01*
X141537247Y-99009200D01*
X140910753Y-99009200D01*
X140331948Y-99248949D01*
X139891683Y-99689214D01*
X139792968Y-99654637D01*
X138863605Y-100584000D01*
X138504395Y-100584000D01*
X137575032Y-99654637D01*
X137476317Y-99689214D01*
X137262135Y-99475032D01*
X137754637Y-99475032D01*
X138684000Y-100404395D01*
X139613363Y-99475032D01*
X139522077Y-99214420D01*
X138934167Y-98997955D01*
X138308172Y-99022951D01*
X137845923Y-99214420D01*
X137754637Y-99475032D01*
X137262135Y-99475032D01*
X137036052Y-99248949D01*
X136457247Y-99009200D01*
X135830753Y-99009200D01*
X135251948Y-99248949D01*
X134874000Y-99626897D01*
X134496052Y-99248949D01*
X133917247Y-99009200D01*
X133290753Y-99009200D01*
X132711948Y-99248949D01*
X132334000Y-99626897D01*
X131956052Y-99248949D01*
X131377247Y-99009200D01*
X130750753Y-99009200D01*
X130171948Y-99248949D01*
X129794000Y-99626897D01*
X129416052Y-99248949D01*
X128837247Y-99009200D01*
X128210753Y-99009200D01*
X127631948Y-99248949D01*
X127254000Y-99626897D01*
X126876052Y-99248949D01*
X126297247Y-99009200D01*
X125670753Y-99009200D01*
X125091948Y-99248949D01*
X124714000Y-99626897D01*
X124336052Y-99248949D01*
X123757247Y-99009200D01*
X123130753Y-99009200D01*
X122551948Y-99248949D01*
X122174000Y-99626897D01*
X121796052Y-99248949D01*
X121217247Y-99009200D01*
X120590753Y-99009200D01*
X120011948Y-99248949D01*
X119634000Y-99626897D01*
X119256052Y-99248949D01*
X118677247Y-99009200D01*
X118050753Y-99009200D01*
X117471948Y-99248949D01*
X117094000Y-99626897D01*
X116716052Y-99248949D01*
X116137247Y-99009200D01*
X115510753Y-99009200D01*
X114931948Y-99248949D01*
X114554000Y-99626897D01*
X114176052Y-99248949D01*
X113597247Y-99009200D01*
X112970753Y-99009200D01*
X112391948Y-99248949D01*
X111948949Y-99691948D01*
X111709200Y-100270753D01*
X105383000Y-100270753D01*
X105383000Y-85030753D01*
X111709200Y-85030753D01*
X111709200Y-85657247D01*
X111948949Y-86236052D01*
X112391948Y-86679051D01*
X112970753Y-86918800D01*
X113597247Y-86918800D01*
X114176052Y-86679051D01*
X114554000Y-86301103D01*
X114931948Y-86679051D01*
X115510753Y-86918800D01*
X116137247Y-86918800D01*
X116716052Y-86679051D01*
X117094000Y-86301103D01*
X117471948Y-86679051D01*
X118050753Y-86918800D01*
X118677247Y-86918800D01*
X119256052Y-86679051D01*
X119634000Y-86301103D01*
X120011948Y-86679051D01*
X120590753Y-86918800D01*
X121217247Y-86918800D01*
X121796052Y-86679051D01*
X122174000Y-86301103D01*
X122551948Y-86679051D01*
X123130753Y-86918800D01*
X123757247Y-86918800D01*
X124336052Y-86679051D01*
X124714000Y-86301103D01*
X125091948Y-86679051D01*
X125670753Y-86918800D01*
X126297247Y-86918800D01*
X126876052Y-86679051D01*
X127254000Y-86301103D01*
X127631948Y-86679051D01*
X128210753Y-86918800D01*
X128837247Y-86918800D01*
X129416052Y-86679051D01*
X129794000Y-86301103D01*
X130171948Y-86679051D01*
X130750753Y-86918800D01*
X131377247Y-86918800D01*
X131956052Y-86679051D01*
X132182135Y-86452968D01*
X132674637Y-86452968D01*
X132765923Y-86713580D01*
X133353833Y-86930045D01*
X133979828Y-86905049D01*
X134442077Y-86713580D01*
X134533363Y-86452968D01*
X135214637Y-86452968D01*
X135305923Y-86713580D01*
X135893833Y-86930045D01*
X136519828Y-86905049D01*
X136982077Y-86713580D01*
X137073363Y-86452968D01*
X136144000Y-85523605D01*
X135214637Y-86452968D01*
X134533363Y-86452968D01*
X133604000Y-85523605D01*
X132674637Y-86452968D01*
X132182135Y-86452968D01*
X132396317Y-86238786D01*
X132495032Y-86273363D01*
X133424395Y-85344000D01*
X133783605Y-85344000D01*
X134712968Y-86273363D01*
X134874000Y-86216957D01*
X135035032Y-86273363D01*
X135964395Y-85344000D01*
X136323605Y-85344000D01*
X137252968Y-86273363D01*
X137351683Y-86238786D01*
X137791948Y-86679051D01*
X138370753Y-86918800D01*
X138997247Y-86918800D01*
X139576052Y-86679051D01*
X139954000Y-86301103D01*
X140331948Y-86679051D01*
X140910753Y-86918800D01*
X141537247Y-86918800D01*
X142116052Y-86679051D01*
X142559051Y-86236052D01*
X142798800Y-85657247D01*
X142798800Y-85030753D01*
X142559051Y-84451948D01*
X142116052Y-84008949D01*
X141537247Y-83769200D01*
X140910753Y-83769200D01*
X140331948Y-84008949D01*
X139954000Y-84386897D01*
X139576052Y-84008949D01*
X138997247Y-83769200D01*
X138370753Y-83769200D01*
X137791948Y-84008949D01*
X137351683Y-84449214D01*
X137252968Y-84414637D01*
X136323605Y-85344000D01*
X135964395Y-85344000D01*
X135035032Y-84414637D01*
X134874000Y-84471043D01*
X134712968Y-84414637D01*
X133783605Y-85344000D01*
X133424395Y-85344000D01*
X132495032Y-84414637D01*
X132396317Y-84449214D01*
X132182135Y-84235032D01*
X132674637Y-84235032D01*
X133604000Y-85164395D01*
X134533363Y-84235032D01*
X135214637Y-84235032D01*
X136144000Y-85164395D01*
X137073363Y-84235032D01*
X136982077Y-83974420D01*
X136394167Y-83757955D01*
X135768172Y-83782951D01*
X135305923Y-83974420D01*
X135214637Y-84235032D01*
X134533363Y-84235032D01*
X134442077Y-83974420D01*
X133854167Y-83757955D01*
X133228172Y-83782951D01*
X132765923Y-83974420D01*
X132674637Y-84235032D01*
X132182135Y-84235032D01*
X131956052Y-84008949D01*
X131377247Y-83769200D01*
X130750753Y-83769200D01*
X130171948Y-84008949D01*
X129794000Y-84386897D01*
X129416052Y-84008949D01*
X128837247Y-83769200D01*
X128210753Y-83769200D01*
X127631948Y-84008949D01*
X127254000Y-84386897D01*
X126876052Y-84008949D01*
X126297247Y-83769200D01*
X125670753Y-83769200D01*
X125091948Y-84008949D01*
X124714000Y-84386897D01*
X124336052Y-84008949D01*
X123757247Y-83769200D01*
X123130753Y-83769200D01*
X122551948Y-84008949D01*
X122174000Y-84386897D01*
X121796052Y-84008949D01*
X121217247Y-83769200D01*
X120590753Y-83769200D01*
X120011948Y-84008949D01*
X119634000Y-84386897D01*
X119256052Y-84008949D01*
X118677247Y-83769200D01*
X118050753Y-83769200D01*
X117471948Y-84008949D01*
X117094000Y-84386897D01*
X116716052Y-84008949D01*
X116137247Y-83769200D01*
X115510753Y-83769200D01*
X114931948Y-84008949D01*
X114554000Y-84386897D01*
X114176052Y-84008949D01*
X113597247Y-83769200D01*
X112970753Y-83769200D01*
X112391948Y-84008949D01*
X111948949Y-84451948D01*
X111709200Y-85030753D01*
X105383000Y-85030753D01*
X105383000Y-73660000D01*
X109483908Y-73660000D01*
X109599161Y-74239418D01*
X109927375Y-74730625D01*
X110225761Y-74930000D01*
X109927375Y-75129375D01*
X109599161Y-75620582D01*
X109483908Y-76200000D01*
X109599161Y-76779418D01*
X109927375Y-77270625D01*
X110225761Y-77470000D01*
X109927375Y-77669375D01*
X109599161Y-78160582D01*
X109483908Y-78740000D01*
X109599161Y-79319418D01*
X109927375Y-79810625D01*
X109945619Y-79822816D01*
X109900235Y-79831843D01*
X109690191Y-79972191D01*
X109549843Y-80182235D01*
X109500560Y-80430000D01*
X109500560Y-82130000D01*
X109549843Y-82377765D01*
X109690191Y-82587809D01*
X109900235Y-82728157D01*
X110148000Y-82777440D01*
X111848000Y-82777440D01*
X112095765Y-82728157D01*
X112305809Y-82587809D01*
X112446157Y-82377765D01*
X112495440Y-82130000D01*
X112495440Y-80430000D01*
X112446157Y-80182235D01*
X112305809Y-79972191D01*
X112095765Y-79831843D01*
X112050381Y-79822816D01*
X112068625Y-79810625D01*
X112314429Y-79442753D01*
X115011200Y-79442753D01*
X115011200Y-80069247D01*
X115250949Y-80648052D01*
X115693948Y-81091051D01*
X116272753Y-81330800D01*
X116899247Y-81330800D01*
X117478052Y-81091051D01*
X117856000Y-80713103D01*
X118233948Y-81091051D01*
X118812753Y-81330800D01*
X119439247Y-81330800D01*
X120018052Y-81091051D01*
X120396000Y-80713103D01*
X120773948Y-81091051D01*
X121352753Y-81330800D01*
X121979247Y-81330800D01*
X122558052Y-81091051D01*
X122936000Y-80713103D01*
X123313948Y-81091051D01*
X123892753Y-81330800D01*
X124519247Y-81330800D01*
X125098052Y-81091051D01*
X125476000Y-80713103D01*
X125853948Y-81091051D01*
X126432753Y-81330800D01*
X127059247Y-81330800D01*
X127638052Y-81091051D01*
X128016000Y-80713103D01*
X128393948Y-81091051D01*
X128972753Y-81330800D01*
X129599247Y-81330800D01*
X130178052Y-81091051D01*
X130556000Y-80713103D01*
X130933948Y-81091051D01*
X131512753Y-81330800D01*
X132139247Y-81330800D01*
X132718052Y-81091051D01*
X133096000Y-80713103D01*
X133473948Y-81091051D01*
X134052753Y-81330800D01*
X134679247Y-81330800D01*
X135258052Y-81091051D01*
X135701051Y-80648052D01*
X135940800Y-80069247D01*
X135940800Y-79442753D01*
X135701051Y-78863948D01*
X135258052Y-78420949D01*
X134679247Y-78181200D01*
X134052753Y-78181200D01*
X133473948Y-78420949D01*
X133096000Y-78798897D01*
X132718052Y-78420949D01*
X132139247Y-78181200D01*
X131512753Y-78181200D01*
X130933948Y-78420949D01*
X130556000Y-78798897D01*
X130178052Y-78420949D01*
X129599247Y-78181200D01*
X128972753Y-78181200D01*
X128393948Y-78420949D01*
X128016000Y-78798897D01*
X127638052Y-78420949D01*
X127059247Y-78181200D01*
X126432753Y-78181200D01*
X125853948Y-78420949D01*
X125476000Y-78798897D01*
X125098052Y-78420949D01*
X124519247Y-78181200D01*
X123892753Y-78181200D01*
X123313948Y-78420949D01*
X122936000Y-78798897D01*
X122558052Y-78420949D01*
X121979247Y-78181200D01*
X121352753Y-78181200D01*
X120773948Y-78420949D01*
X120396000Y-78798897D01*
X120018052Y-78420949D01*
X119439247Y-78181200D01*
X118812753Y-78181200D01*
X118233948Y-78420949D01*
X117856000Y-78798897D01*
X117478052Y-78420949D01*
X116899247Y-78181200D01*
X116272753Y-78181200D01*
X115693948Y-78420949D01*
X115250949Y-78863948D01*
X115011200Y-79442753D01*
X112314429Y-79442753D01*
X112396839Y-79319418D01*
X112512092Y-78740000D01*
X112396839Y-78160582D01*
X112068625Y-77669375D01*
X111770239Y-77470000D01*
X112068625Y-77270625D01*
X112396839Y-76779418D01*
X112512092Y-76200000D01*
X112396839Y-75620582D01*
X112068625Y-75129375D01*
X111770239Y-74930000D01*
X112068625Y-74730625D01*
X112396839Y-74239418D01*
X112512092Y-73660000D01*
X112396839Y-73080582D01*
X112068625Y-72589375D01*
X111577418Y-72261161D01*
X111144256Y-72175000D01*
X110851744Y-72175000D01*
X110418582Y-72261161D01*
X109927375Y-72589375D01*
X109599161Y-73080582D01*
X109483908Y-73660000D01*
X105383000Y-73660000D01*
X105383000Y-68024731D01*
X105453281Y-67237253D01*
X105612597Y-66654887D01*
X107265000Y-66654887D01*
X107265000Y-67345113D01*
X107529138Y-67982799D01*
X108017201Y-68470862D01*
X108654887Y-68735000D01*
X109345113Y-68735000D01*
X109982799Y-68470862D01*
X110470862Y-67982799D01*
X110735000Y-67345113D01*
X110735000Y-66742753D01*
X115011200Y-66742753D01*
X115011200Y-67369247D01*
X115250949Y-67948052D01*
X115693948Y-68391051D01*
X116272753Y-68630800D01*
X116899247Y-68630800D01*
X117478052Y-68391051D01*
X117704135Y-68164968D01*
X118196637Y-68164968D01*
X118287923Y-68425580D01*
X118875833Y-68642045D01*
X119501828Y-68617049D01*
X119964077Y-68425580D01*
X120055363Y-68164968D01*
X119126000Y-67235605D01*
X118196637Y-68164968D01*
X117704135Y-68164968D01*
X117918317Y-67950786D01*
X118017032Y-67985363D01*
X118946395Y-67056000D01*
X119305605Y-67056000D01*
X120234968Y-67985363D01*
X120333683Y-67950786D01*
X120773948Y-68391051D01*
X121352753Y-68630800D01*
X121979247Y-68630800D01*
X122558052Y-68391051D01*
X122936000Y-68013103D01*
X123313948Y-68391051D01*
X123892753Y-68630800D01*
X124519247Y-68630800D01*
X125098052Y-68391051D01*
X125476000Y-68013103D01*
X125853948Y-68391051D01*
X126432753Y-68630800D01*
X127059247Y-68630800D01*
X127638052Y-68391051D01*
X128016000Y-68013103D01*
X128393948Y-68391051D01*
X128972753Y-68630800D01*
X129599247Y-68630800D01*
X130178052Y-68391051D01*
X130556000Y-68013103D01*
X130933948Y-68391051D01*
X131512753Y-68630800D01*
X132139247Y-68630800D01*
X132718052Y-68391051D01*
X132848547Y-68260556D01*
X132887873Y-68355498D01*
X133066501Y-68534127D01*
X133299890Y-68630800D01*
X134080250Y-68630800D01*
X134239000Y-68472050D01*
X134239000Y-67183000D01*
X134493000Y-67183000D01*
X134493000Y-68472050D01*
X134651750Y-68630800D01*
X135432110Y-68630800D01*
X135665499Y-68534127D01*
X135844127Y-68355498D01*
X135940800Y-68122109D01*
X135940800Y-67341750D01*
X135782050Y-67183000D01*
X134493000Y-67183000D01*
X134239000Y-67183000D01*
X134219000Y-67183000D01*
X134219000Y-66929000D01*
X134239000Y-66929000D01*
X134239000Y-65639950D01*
X134493000Y-65639950D01*
X134493000Y-66929000D01*
X135782050Y-66929000D01*
X135940800Y-66770250D01*
X135940800Y-66654887D01*
X139265000Y-66654887D01*
X139265000Y-67345113D01*
X139529138Y-67982799D01*
X140017201Y-68470862D01*
X140654887Y-68735000D01*
X141345113Y-68735000D01*
X141982799Y-68470862D01*
X142470862Y-67982799D01*
X142735000Y-67345113D01*
X142735000Y-66654887D01*
X142470862Y-66017201D01*
X141982799Y-65529138D01*
X141345113Y-65265000D01*
X140654887Y-65265000D01*
X140017201Y-65529138D01*
X139529138Y-66017201D01*
X139265000Y-66654887D01*
X135940800Y-66654887D01*
X135940800Y-65989891D01*
X135844127Y-65756502D01*
X135665499Y-65577873D01*
X135432110Y-65481200D01*
X134651750Y-65481200D01*
X134493000Y-65639950D01*
X134239000Y-65639950D01*
X134080250Y-65481200D01*
X133299890Y-65481200D01*
X133066501Y-65577873D01*
X132887873Y-65756502D01*
X132848547Y-65851444D01*
X132718052Y-65720949D01*
X132139247Y-65481200D01*
X131512753Y-65481200D01*
X130933948Y-65720949D01*
X130556000Y-66098897D01*
X130178052Y-65720949D01*
X129599247Y-65481200D01*
X128972753Y-65481200D01*
X128393948Y-65720949D01*
X128016000Y-66098897D01*
X127638052Y-65720949D01*
X127059247Y-65481200D01*
X126432753Y-65481200D01*
X125853948Y-65720949D01*
X125476000Y-66098897D01*
X125098052Y-65720949D01*
X124519247Y-65481200D01*
X123892753Y-65481200D01*
X123313948Y-65720949D01*
X122936000Y-66098897D01*
X122558052Y-65720949D01*
X121979247Y-65481200D01*
X121352753Y-65481200D01*
X120773948Y-65720949D01*
X120333683Y-66161214D01*
X120234968Y-66126637D01*
X119305605Y-67056000D01*
X118946395Y-67056000D01*
X118017032Y-66126637D01*
X117918317Y-66161214D01*
X117704135Y-65947032D01*
X118196637Y-65947032D01*
X119126000Y-66876395D01*
X120055363Y-65947032D01*
X119964077Y-65686420D01*
X119376167Y-65469955D01*
X118750172Y-65494951D01*
X118287923Y-65686420D01*
X118196637Y-65947032D01*
X117704135Y-65947032D01*
X117478052Y-65720949D01*
X116899247Y-65481200D01*
X116272753Y-65481200D01*
X115693948Y-65720949D01*
X115250949Y-66163948D01*
X115011200Y-66742753D01*
X110735000Y-66742753D01*
X110735000Y-66654887D01*
X110470862Y-66017201D01*
X109982799Y-65529138D01*
X109345113Y-65265000D01*
X108654887Y-65265000D01*
X108017201Y-65529138D01*
X107529138Y-66017201D01*
X107265000Y-66654887D01*
X105612597Y-66654887D01*
X105653231Y-66506357D01*
X105979450Y-65822425D01*
X106421626Y-65207072D01*
X106965789Y-64679741D01*
X107594726Y-64257114D01*
X108288570Y-63952537D01*
X109031039Y-63774285D01*
X109674949Y-63727000D01*
X140001269Y-63727000D01*
X140788747Y-63797281D01*
G04 #@! TD*
M02*
