G04 #@! TF.GenerationSoftware,KiCad,Pcbnew,(5.0.0-rc3-dev)*
G04 #@! TF.CreationDate,2019-09-30T17:53:01-04:00*
G04 #@! TF.ProjectId,orbital shaker,6F72626974616C207368616B65722E6B,rev?*
G04 #@! TF.SameCoordinates,Original*
G04 #@! TF.FileFunction,Legend,Bot*
G04 #@! TF.FilePolarity,Positive*
%FSLAX46Y46*%
G04 Gerber Fmt 4.6, Leading zero omitted, Abs format (unit mm)*
G04 Created by KiCad (PCBNEW (5.0.0-rc3-dev)) date 09/30/19 17:53:01*
%MOMM*%
%LPD*%
G01*
G04 APERTURE LIST*
%ADD10C,0.010000*%
G04 APERTURE END LIST*
D10*
G04 #@! TO.C,REF\002A\002A\002A*
G36*
X132609754Y-76934945D02*
X132557189Y-76935480D01*
X132403165Y-76939196D01*
X132274171Y-76950235D01*
X132165809Y-76969782D01*
X132073684Y-76999019D01*
X131993399Y-77039133D01*
X131920558Y-77091305D01*
X131894541Y-77113969D01*
X131851383Y-77166998D01*
X131812467Y-77238957D01*
X131782473Y-77318720D01*
X131766081Y-77395161D01*
X131764378Y-77423408D01*
X131775051Y-77501710D01*
X131803653Y-77587241D01*
X131845057Y-77668199D01*
X131894141Y-77732782D01*
X131902113Y-77740574D01*
X131969646Y-77795344D01*
X132043598Y-77838099D01*
X132128234Y-77869959D01*
X132227817Y-77892044D01*
X132346612Y-77905474D01*
X132488880Y-77911370D01*
X132554046Y-77911870D01*
X132636901Y-77911471D01*
X132695169Y-77909802D01*
X132734316Y-77906158D01*
X132759809Y-77899829D01*
X132777114Y-77890110D01*
X132786390Y-77881810D01*
X132795152Y-77871728D01*
X132802025Y-77858721D01*
X132807238Y-77839305D01*
X132811019Y-77809996D01*
X132813597Y-77767309D01*
X132815200Y-77707761D01*
X132816057Y-77627866D01*
X132816397Y-77524141D01*
X132816449Y-77423408D01*
X132816780Y-77289055D01*
X132816708Y-77181728D01*
X132815430Y-77130331D01*
X132621065Y-77130331D01*
X132621065Y-77716485D01*
X132497071Y-77716371D01*
X132422461Y-77714232D01*
X132344318Y-77708719D01*
X132279120Y-77701008D01*
X132277136Y-77700691D01*
X132171763Y-77675214D01*
X132090032Y-77635536D01*
X132027862Y-77579074D01*
X131988360Y-77517942D01*
X131964020Y-77450129D01*
X131965907Y-77386455D01*
X131994155Y-77318201D01*
X132049408Y-77247592D01*
X132125973Y-77195271D01*
X132225495Y-77160299D01*
X132292007Y-77147922D01*
X132367507Y-77139230D01*
X132447525Y-77132940D01*
X132515584Y-77130324D01*
X132519615Y-77130312D01*
X132621065Y-77130331D01*
X132815430Y-77130331D01*
X132814636Y-77098417D01*
X132808961Y-77036115D01*
X132798087Y-76991811D01*
X132780414Y-76962496D01*
X132754343Y-76945161D01*
X132718275Y-76936797D01*
X132670612Y-76934395D01*
X132609754Y-76934945D01*
X132609754Y-76934945D01*
G37*
X132609754Y-76934945D02*
X132557189Y-76935480D01*
X132403165Y-76939196D01*
X132274171Y-76950235D01*
X132165809Y-76969782D01*
X132073684Y-76999019D01*
X131993399Y-77039133D01*
X131920558Y-77091305D01*
X131894541Y-77113969D01*
X131851383Y-77166998D01*
X131812467Y-77238957D01*
X131782473Y-77318720D01*
X131766081Y-77395161D01*
X131764378Y-77423408D01*
X131775051Y-77501710D01*
X131803653Y-77587241D01*
X131845057Y-77668199D01*
X131894141Y-77732782D01*
X131902113Y-77740574D01*
X131969646Y-77795344D01*
X132043598Y-77838099D01*
X132128234Y-77869959D01*
X132227817Y-77892044D01*
X132346612Y-77905474D01*
X132488880Y-77911370D01*
X132554046Y-77911870D01*
X132636901Y-77911471D01*
X132695169Y-77909802D01*
X132734316Y-77906158D01*
X132759809Y-77899829D01*
X132777114Y-77890110D01*
X132786390Y-77881810D01*
X132795152Y-77871728D01*
X132802025Y-77858721D01*
X132807238Y-77839305D01*
X132811019Y-77809996D01*
X132813597Y-77767309D01*
X132815200Y-77707761D01*
X132816057Y-77627866D01*
X132816397Y-77524141D01*
X132816449Y-77423408D01*
X132816780Y-77289055D01*
X132816708Y-77181728D01*
X132815430Y-77130331D01*
X132621065Y-77130331D01*
X132621065Y-77716485D01*
X132497071Y-77716371D01*
X132422461Y-77714232D01*
X132344318Y-77708719D01*
X132279120Y-77701008D01*
X132277136Y-77700691D01*
X132171763Y-77675214D01*
X132090032Y-77635536D01*
X132027862Y-77579074D01*
X131988360Y-77517942D01*
X131964020Y-77450129D01*
X131965907Y-77386455D01*
X131994155Y-77318201D01*
X132049408Y-77247592D01*
X132125973Y-77195271D01*
X132225495Y-77160299D01*
X132292007Y-77147922D01*
X132367507Y-77139230D01*
X132447525Y-77132940D01*
X132515584Y-77130324D01*
X132519615Y-77130312D01*
X132621065Y-77130331D01*
X132815430Y-77130331D01*
X132814636Y-77098417D01*
X132808961Y-77036115D01*
X132798087Y-76991811D01*
X132780414Y-76962496D01*
X132754343Y-76945161D01*
X132718275Y-76936797D01*
X132670612Y-76934395D01*
X132609754Y-76934945D01*
G36*
X130734430Y-76935052D02*
X130642022Y-76935548D01*
X130572273Y-76936701D01*
X130521483Y-76938780D01*
X130485951Y-76942051D01*
X130461978Y-76946783D01*
X130445864Y-76953243D01*
X130433909Y-76961699D01*
X130429579Y-76965591D01*
X130403251Y-77006940D01*
X130398511Y-77054452D01*
X130415830Y-77096631D01*
X130423839Y-77105156D01*
X130436792Y-77113421D01*
X130457648Y-77119797D01*
X130490276Y-77124595D01*
X130538542Y-77128124D01*
X130606314Y-77130694D01*
X130697460Y-77132617D01*
X130780791Y-77133787D01*
X131110592Y-77137846D01*
X131119606Y-77310686D01*
X130895742Y-77310686D01*
X130798554Y-77311525D01*
X130727403Y-77315032D01*
X130678291Y-77322695D01*
X130647217Y-77336003D01*
X130630184Y-77356441D01*
X130623192Y-77385499D01*
X130622130Y-77412467D01*
X130625430Y-77445557D01*
X130637883Y-77469940D01*
X130663320Y-77486889D01*
X130705571Y-77497679D01*
X130768466Y-77503584D01*
X130855835Y-77505877D01*
X130903521Y-77506071D01*
X131118106Y-77506071D01*
X131118106Y-77716485D01*
X130787455Y-77716485D01*
X130679070Y-77716636D01*
X130596697Y-77717314D01*
X130536289Y-77718856D01*
X130493799Y-77721599D01*
X130465181Y-77725881D01*
X130446388Y-77732039D01*
X130433374Y-77740409D01*
X130426745Y-77746544D01*
X130404007Y-77782349D01*
X130396686Y-77814177D01*
X130407139Y-77853054D01*
X130426745Y-77881810D01*
X130437205Y-77890863D01*
X130450708Y-77897893D01*
X130470886Y-77903154D01*
X130501371Y-77906901D01*
X130545795Y-77909390D01*
X130607791Y-77910875D01*
X130690991Y-77911611D01*
X130799027Y-77911854D01*
X130855089Y-77911870D01*
X130975144Y-77911763D01*
X131068774Y-77911275D01*
X131139609Y-77910149D01*
X131191281Y-77908131D01*
X131227423Y-77904966D01*
X131251668Y-77900399D01*
X131267647Y-77894176D01*
X131278993Y-77886040D01*
X131283432Y-77881810D01*
X131292217Y-77871696D01*
X131299104Y-77858648D01*
X131304321Y-77839170D01*
X131308099Y-77809764D01*
X131310670Y-77766934D01*
X131312264Y-77707184D01*
X131313111Y-77627017D01*
X131313442Y-77522937D01*
X131313491Y-77426028D01*
X131313446Y-77301923D01*
X131313134Y-77204366D01*
X131312288Y-77129846D01*
X131310642Y-77074851D01*
X131307929Y-77035870D01*
X131303883Y-77009393D01*
X131298237Y-76991906D01*
X131290726Y-76979900D01*
X131281082Y-76969863D01*
X131278706Y-76967626D01*
X131267175Y-76957719D01*
X131253778Y-76950048D01*
X131234796Y-76944326D01*
X131206515Y-76940268D01*
X131165218Y-76937588D01*
X131107188Y-76936002D01*
X131028709Y-76935224D01*
X130926066Y-76934968D01*
X130853196Y-76934946D01*
X130734430Y-76935052D01*
X130734430Y-76935052D01*
G37*
X130734430Y-76935052D02*
X130642022Y-76935548D01*
X130572273Y-76936701D01*
X130521483Y-76938780D01*
X130485951Y-76942051D01*
X130461978Y-76946783D01*
X130445864Y-76953243D01*
X130433909Y-76961699D01*
X130429579Y-76965591D01*
X130403251Y-77006940D01*
X130398511Y-77054452D01*
X130415830Y-77096631D01*
X130423839Y-77105156D01*
X130436792Y-77113421D01*
X130457648Y-77119797D01*
X130490276Y-77124595D01*
X130538542Y-77128124D01*
X130606314Y-77130694D01*
X130697460Y-77132617D01*
X130780791Y-77133787D01*
X131110592Y-77137846D01*
X131119606Y-77310686D01*
X130895742Y-77310686D01*
X130798554Y-77311525D01*
X130727403Y-77315032D01*
X130678291Y-77322695D01*
X130647217Y-77336003D01*
X130630184Y-77356441D01*
X130623192Y-77385499D01*
X130622130Y-77412467D01*
X130625430Y-77445557D01*
X130637883Y-77469940D01*
X130663320Y-77486889D01*
X130705571Y-77497679D01*
X130768466Y-77503584D01*
X130855835Y-77505877D01*
X130903521Y-77506071D01*
X131118106Y-77506071D01*
X131118106Y-77716485D01*
X130787455Y-77716485D01*
X130679070Y-77716636D01*
X130596697Y-77717314D01*
X130536289Y-77718856D01*
X130493799Y-77721599D01*
X130465181Y-77725881D01*
X130446388Y-77732039D01*
X130433374Y-77740409D01*
X130426745Y-77746544D01*
X130404007Y-77782349D01*
X130396686Y-77814177D01*
X130407139Y-77853054D01*
X130426745Y-77881810D01*
X130437205Y-77890863D01*
X130450708Y-77897893D01*
X130470886Y-77903154D01*
X130501371Y-77906901D01*
X130545795Y-77909390D01*
X130607791Y-77910875D01*
X130690991Y-77911611D01*
X130799027Y-77911854D01*
X130855089Y-77911870D01*
X130975144Y-77911763D01*
X131068774Y-77911275D01*
X131139609Y-77910149D01*
X131191281Y-77908131D01*
X131227423Y-77904966D01*
X131251668Y-77900399D01*
X131267647Y-77894176D01*
X131278993Y-77886040D01*
X131283432Y-77881810D01*
X131292217Y-77871696D01*
X131299104Y-77858648D01*
X131304321Y-77839170D01*
X131308099Y-77809764D01*
X131310670Y-77766934D01*
X131312264Y-77707184D01*
X131313111Y-77627017D01*
X131313442Y-77522937D01*
X131313491Y-77426028D01*
X131313446Y-77301923D01*
X131313134Y-77204366D01*
X131312288Y-77129846D01*
X131310642Y-77074851D01*
X131307929Y-77035870D01*
X131303883Y-77009393D01*
X131298237Y-76991906D01*
X131290726Y-76979900D01*
X131281082Y-76969863D01*
X131278706Y-76967626D01*
X131267175Y-76957719D01*
X131253778Y-76950048D01*
X131234796Y-76944326D01*
X131206515Y-76940268D01*
X131165218Y-76937588D01*
X131107188Y-76936002D01*
X131028709Y-76935224D01*
X130926066Y-76934968D01*
X130853196Y-76934946D01*
X130734430Y-76935052D01*
G36*
X129374988Y-76936657D02*
X129275383Y-76943620D01*
X129182744Y-76954495D01*
X129102458Y-76968874D01*
X129039908Y-76986346D01*
X129000481Y-77006502D01*
X128994429Y-77012435D01*
X128973384Y-77058475D01*
X128979766Y-77105740D01*
X129012407Y-77146178D01*
X129013964Y-77147337D01*
X129033163Y-77159797D01*
X129053205Y-77166349D01*
X129081160Y-77167144D01*
X129124099Y-77162336D01*
X129189091Y-77152075D01*
X129194319Y-77151211D01*
X129291161Y-77139314D01*
X129395644Y-77133445D01*
X129500435Y-77133388D01*
X129598202Y-77138927D01*
X129681612Y-77149845D01*
X129743333Y-77165925D01*
X129747388Y-77167541D01*
X129792164Y-77192629D01*
X129807896Y-77218018D01*
X129795580Y-77242987D01*
X129756215Y-77266816D01*
X129690798Y-77288782D01*
X129600326Y-77308166D01*
X129540000Y-77317498D01*
X129414600Y-77335449D01*
X129314865Y-77351859D01*
X129236546Y-77368148D01*
X129175393Y-77385738D01*
X129127159Y-77406049D01*
X129087595Y-77430503D01*
X129052452Y-77460520D01*
X129024211Y-77489996D01*
X128990708Y-77531067D01*
X128974219Y-77566382D01*
X128969063Y-77609893D01*
X128968876Y-77625828D01*
X128972748Y-77678705D01*
X128988227Y-77718043D01*
X129015015Y-77752960D01*
X129069459Y-77806334D01*
X129130170Y-77847038D01*
X129201658Y-77876400D01*
X129288436Y-77895747D01*
X129395014Y-77906406D01*
X129525903Y-77909705D01*
X129547515Y-77909649D01*
X129634798Y-77907840D01*
X129721359Y-77903729D01*
X129797762Y-77897906D01*
X129854570Y-77890961D01*
X129859164Y-77890164D01*
X129915645Y-77876784D01*
X129963552Y-77859882D01*
X129990673Y-77844431D01*
X130015911Y-77803666D01*
X130017669Y-77756198D01*
X129995912Y-77713895D01*
X129991044Y-77709112D01*
X129970922Y-77694899D01*
X129945758Y-77688776D01*
X129906813Y-77689818D01*
X129859535Y-77695234D01*
X129806705Y-77700073D01*
X129732648Y-77704155D01*
X129646191Y-77707118D01*
X129556163Y-77708597D01*
X129532485Y-77708694D01*
X129442122Y-77708330D01*
X129375989Y-77706576D01*
X129328267Y-77702823D01*
X129293138Y-77696463D01*
X129264782Y-77686887D01*
X129247741Y-77678911D01*
X129210296Y-77656765D01*
X129186421Y-77636708D01*
X129182932Y-77631023D01*
X129190293Y-77607545D01*
X129225287Y-77584817D01*
X129285488Y-77563870D01*
X129368471Y-77545736D01*
X129392920Y-77541697D01*
X129520622Y-77521639D01*
X129622540Y-77504874D01*
X129702606Y-77490183D01*
X129764754Y-77476348D01*
X129812918Y-77462151D01*
X129851032Y-77446373D01*
X129883030Y-77427796D01*
X129912844Y-77405202D01*
X129944410Y-77377373D01*
X129955032Y-77367616D01*
X129992273Y-77331202D01*
X130011987Y-77302352D01*
X130019699Y-77269338D01*
X130020947Y-77227735D01*
X130007215Y-77146151D01*
X129966178Y-77076834D01*
X129898070Y-77020008D01*
X129803127Y-76975897D01*
X129735384Y-76956112D01*
X129661759Y-76943333D01*
X129573561Y-76936104D01*
X129476176Y-76934015D01*
X129374988Y-76936657D01*
X129374988Y-76936657D01*
G37*
X129374988Y-76936657D02*
X129275383Y-76943620D01*
X129182744Y-76954495D01*
X129102458Y-76968874D01*
X129039908Y-76986346D01*
X129000481Y-77006502D01*
X128994429Y-77012435D01*
X128973384Y-77058475D01*
X128979766Y-77105740D01*
X129012407Y-77146178D01*
X129013964Y-77147337D01*
X129033163Y-77159797D01*
X129053205Y-77166349D01*
X129081160Y-77167144D01*
X129124099Y-77162336D01*
X129189091Y-77152075D01*
X129194319Y-77151211D01*
X129291161Y-77139314D01*
X129395644Y-77133445D01*
X129500435Y-77133388D01*
X129598202Y-77138927D01*
X129681612Y-77149845D01*
X129743333Y-77165925D01*
X129747388Y-77167541D01*
X129792164Y-77192629D01*
X129807896Y-77218018D01*
X129795580Y-77242987D01*
X129756215Y-77266816D01*
X129690798Y-77288782D01*
X129600326Y-77308166D01*
X129540000Y-77317498D01*
X129414600Y-77335449D01*
X129314865Y-77351859D01*
X129236546Y-77368148D01*
X129175393Y-77385738D01*
X129127159Y-77406049D01*
X129087595Y-77430503D01*
X129052452Y-77460520D01*
X129024211Y-77489996D01*
X128990708Y-77531067D01*
X128974219Y-77566382D01*
X128969063Y-77609893D01*
X128968876Y-77625828D01*
X128972748Y-77678705D01*
X128988227Y-77718043D01*
X129015015Y-77752960D01*
X129069459Y-77806334D01*
X129130170Y-77847038D01*
X129201658Y-77876400D01*
X129288436Y-77895747D01*
X129395014Y-77906406D01*
X129525903Y-77909705D01*
X129547515Y-77909649D01*
X129634798Y-77907840D01*
X129721359Y-77903729D01*
X129797762Y-77897906D01*
X129854570Y-77890961D01*
X129859164Y-77890164D01*
X129915645Y-77876784D01*
X129963552Y-77859882D01*
X129990673Y-77844431D01*
X130015911Y-77803666D01*
X130017669Y-77756198D01*
X129995912Y-77713895D01*
X129991044Y-77709112D01*
X129970922Y-77694899D01*
X129945758Y-77688776D01*
X129906813Y-77689818D01*
X129859535Y-77695234D01*
X129806705Y-77700073D01*
X129732648Y-77704155D01*
X129646191Y-77707118D01*
X129556163Y-77708597D01*
X129532485Y-77708694D01*
X129442122Y-77708330D01*
X129375989Y-77706576D01*
X129328267Y-77702823D01*
X129293138Y-77696463D01*
X129264782Y-77686887D01*
X129247741Y-77678911D01*
X129210296Y-77656765D01*
X129186421Y-77636708D01*
X129182932Y-77631023D01*
X129190293Y-77607545D01*
X129225287Y-77584817D01*
X129285488Y-77563870D01*
X129368471Y-77545736D01*
X129392920Y-77541697D01*
X129520622Y-77521639D01*
X129622540Y-77504874D01*
X129702606Y-77490183D01*
X129764754Y-77476348D01*
X129812918Y-77462151D01*
X129851032Y-77446373D01*
X129883030Y-77427796D01*
X129912844Y-77405202D01*
X129944410Y-77377373D01*
X129955032Y-77367616D01*
X129992273Y-77331202D01*
X130011987Y-77302352D01*
X130019699Y-77269338D01*
X130020947Y-77227735D01*
X130007215Y-77146151D01*
X129966178Y-77076834D01*
X129898070Y-77020008D01*
X129803127Y-76975897D01*
X129735384Y-76956112D01*
X129661759Y-76943333D01*
X129573561Y-76936104D01*
X129476176Y-76934015D01*
X129374988Y-76936657D01*
G36*
X128352663Y-76965006D02*
X128343901Y-76975088D01*
X128337028Y-76988095D01*
X128331815Y-77007511D01*
X128328034Y-77036820D01*
X128325456Y-77079507D01*
X128323853Y-77139055D01*
X128322995Y-77218950D01*
X128322656Y-77322676D01*
X128322603Y-77423408D01*
X128322696Y-77548352D01*
X128323127Y-77646721D01*
X128324123Y-77722001D01*
X128325915Y-77777674D01*
X128328729Y-77817226D01*
X128332796Y-77844141D01*
X128338342Y-77861903D01*
X128345597Y-77873997D01*
X128352663Y-77881810D01*
X128396602Y-77908012D01*
X128443420Y-77905661D01*
X128485309Y-77877084D01*
X128494934Y-77865927D01*
X128502455Y-77852983D01*
X128508134Y-77834672D01*
X128512227Y-77807418D01*
X128514995Y-77767640D01*
X128516696Y-77711762D01*
X128517589Y-77636204D01*
X128517933Y-77537388D01*
X128517988Y-77425514D01*
X128517988Y-77008728D01*
X128481097Y-76971837D01*
X128435625Y-76940800D01*
X128391516Y-76939681D01*
X128352663Y-76965006D01*
X128352663Y-76965006D01*
G37*
X128352663Y-76965006D02*
X128343901Y-76975088D01*
X128337028Y-76988095D01*
X128331815Y-77007511D01*
X128328034Y-77036820D01*
X128325456Y-77079507D01*
X128323853Y-77139055D01*
X128322995Y-77218950D01*
X128322656Y-77322676D01*
X128322603Y-77423408D01*
X128322696Y-77548352D01*
X128323127Y-77646721D01*
X128324123Y-77722001D01*
X128325915Y-77777674D01*
X128328729Y-77817226D01*
X128332796Y-77844141D01*
X128338342Y-77861903D01*
X128345597Y-77873997D01*
X128352663Y-77881810D01*
X128396602Y-77908012D01*
X128443420Y-77905661D01*
X128485309Y-77877084D01*
X128494934Y-77865927D01*
X128502455Y-77852983D01*
X128508134Y-77834672D01*
X128512227Y-77807418D01*
X128514995Y-77767640D01*
X128516696Y-77711762D01*
X128517589Y-77636204D01*
X128517933Y-77537388D01*
X128517988Y-77425514D01*
X128517988Y-77008728D01*
X128481097Y-76971837D01*
X128435625Y-76940800D01*
X128391516Y-76939681D01*
X128352663Y-76965006D01*
G36*
X127056262Y-76942312D02*
X126965041Y-76957618D01*
X126894982Y-76981411D01*
X126849404Y-77012740D01*
X126836984Y-77030614D01*
X126824354Y-77072185D01*
X126832853Y-77109792D01*
X126859685Y-77145455D01*
X126901376Y-77162139D01*
X126961870Y-77160784D01*
X127008659Y-77151745D01*
X127112628Y-77134523D01*
X127218880Y-77132887D01*
X127337809Y-77146865D01*
X127370660Y-77152788D01*
X127481245Y-77183967D01*
X127567759Y-77230346D01*
X127629253Y-77291135D01*
X127664778Y-77365544D01*
X127672125Y-77404014D01*
X127667316Y-77482063D01*
X127636266Y-77551117D01*
X127581806Y-77609829D01*
X127506764Y-77656853D01*
X127413970Y-77690843D01*
X127306252Y-77710454D01*
X127186441Y-77714341D01*
X127057365Y-77701156D01*
X127050077Y-77699912D01*
X126998738Y-77690350D01*
X126970272Y-77681114D01*
X126957934Y-77667409D01*
X126954978Y-77644442D01*
X126954911Y-77632279D01*
X126954911Y-77581219D01*
X127046077Y-77581219D01*
X127126582Y-77575704D01*
X127181521Y-77558130D01*
X127213486Y-77526953D01*
X127225072Y-77480630D01*
X127225213Y-77474584D01*
X127218435Y-77434989D01*
X127195191Y-77406717D01*
X127151930Y-77388007D01*
X127085101Y-77377100D01*
X127020370Y-77373090D01*
X126926287Y-77370789D01*
X126858044Y-77374300D01*
X126811501Y-77387255D01*
X126782518Y-77413286D01*
X126766955Y-77456027D01*
X126760671Y-77519110D01*
X126759526Y-77601964D01*
X126761402Y-77694446D01*
X126767046Y-77757354D01*
X126776482Y-77790939D01*
X126778313Y-77793569D01*
X126830125Y-77835534D01*
X126906090Y-77868768D01*
X127001392Y-77892559D01*
X127111216Y-77906199D01*
X127230746Y-77908978D01*
X127355166Y-77900185D01*
X127428343Y-77889385D01*
X127543120Y-77856898D01*
X127649796Y-77803786D01*
X127739111Y-77734855D01*
X127752686Y-77721078D01*
X127796792Y-77663158D01*
X127836589Y-77591376D01*
X127867427Y-77516119D01*
X127884657Y-77447777D01*
X127886734Y-77421529D01*
X127877893Y-77366777D01*
X127854395Y-77298655D01*
X127820749Y-77226950D01*
X127781464Y-77161449D01*
X127746755Y-77117698D01*
X127665603Y-77052619D01*
X127560698Y-77000821D01*
X127435800Y-76963474D01*
X127294667Y-76941753D01*
X127165325Y-76936445D01*
X127056262Y-76942312D01*
X127056262Y-76942312D01*
G37*
X127056262Y-76942312D02*
X126965041Y-76957618D01*
X126894982Y-76981411D01*
X126849404Y-77012740D01*
X126836984Y-77030614D01*
X126824354Y-77072185D01*
X126832853Y-77109792D01*
X126859685Y-77145455D01*
X126901376Y-77162139D01*
X126961870Y-77160784D01*
X127008659Y-77151745D01*
X127112628Y-77134523D01*
X127218880Y-77132887D01*
X127337809Y-77146865D01*
X127370660Y-77152788D01*
X127481245Y-77183967D01*
X127567759Y-77230346D01*
X127629253Y-77291135D01*
X127664778Y-77365544D01*
X127672125Y-77404014D01*
X127667316Y-77482063D01*
X127636266Y-77551117D01*
X127581806Y-77609829D01*
X127506764Y-77656853D01*
X127413970Y-77690843D01*
X127306252Y-77710454D01*
X127186441Y-77714341D01*
X127057365Y-77701156D01*
X127050077Y-77699912D01*
X126998738Y-77690350D01*
X126970272Y-77681114D01*
X126957934Y-77667409D01*
X126954978Y-77644442D01*
X126954911Y-77632279D01*
X126954911Y-77581219D01*
X127046077Y-77581219D01*
X127126582Y-77575704D01*
X127181521Y-77558130D01*
X127213486Y-77526953D01*
X127225072Y-77480630D01*
X127225213Y-77474584D01*
X127218435Y-77434989D01*
X127195191Y-77406717D01*
X127151930Y-77388007D01*
X127085101Y-77377100D01*
X127020370Y-77373090D01*
X126926287Y-77370789D01*
X126858044Y-77374300D01*
X126811501Y-77387255D01*
X126782518Y-77413286D01*
X126766955Y-77456027D01*
X126760671Y-77519110D01*
X126759526Y-77601964D01*
X126761402Y-77694446D01*
X126767046Y-77757354D01*
X126776482Y-77790939D01*
X126778313Y-77793569D01*
X126830125Y-77835534D01*
X126906090Y-77868768D01*
X127001392Y-77892559D01*
X127111216Y-77906199D01*
X127230746Y-77908978D01*
X127355166Y-77900185D01*
X127428343Y-77889385D01*
X127543120Y-77856898D01*
X127649796Y-77803786D01*
X127739111Y-77734855D01*
X127752686Y-77721078D01*
X127796792Y-77663158D01*
X127836589Y-77591376D01*
X127867427Y-77516119D01*
X127884657Y-77447777D01*
X127886734Y-77421529D01*
X127877893Y-77366777D01*
X127854395Y-77298655D01*
X127820749Y-77226950D01*
X127781464Y-77161449D01*
X127746755Y-77117698D01*
X127665603Y-77052619D01*
X127560698Y-77000821D01*
X127435800Y-76963474D01*
X127294667Y-76941753D01*
X127165325Y-76936445D01*
X127056262Y-76942312D01*
G36*
X126190920Y-76940780D02*
X126159545Y-76959185D01*
X126118522Y-76989285D01*
X126065724Y-77032496D01*
X125999025Y-77090238D01*
X125916299Y-77163928D01*
X125815420Y-77254984D01*
X125699941Y-77359674D01*
X125459467Y-77577743D01*
X125451952Y-77285044D01*
X125449239Y-77184290D01*
X125446622Y-77109258D01*
X125443520Y-77055620D01*
X125439356Y-77019046D01*
X125433551Y-76995207D01*
X125425524Y-76979774D01*
X125414697Y-76968418D01*
X125408956Y-76963646D01*
X125362983Y-76938413D01*
X125319237Y-76942102D01*
X125284535Y-76963659D01*
X125249053Y-76992371D01*
X125244640Y-77411686D01*
X125243419Y-77535007D01*
X125242797Y-77631884D01*
X125242990Y-77705930D01*
X125244214Y-77760757D01*
X125246684Y-77799979D01*
X125250614Y-77827209D01*
X125256220Y-77846059D01*
X125263718Y-77860141D01*
X125272033Y-77871435D01*
X125290022Y-77892382D01*
X125307921Y-77906267D01*
X125328212Y-77911596D01*
X125353378Y-77906876D01*
X125385900Y-77890613D01*
X125428263Y-77861313D01*
X125482948Y-77817482D01*
X125552437Y-77757627D01*
X125639215Y-77680254D01*
X125737515Y-77591350D01*
X126090710Y-77270971D01*
X126098225Y-77562713D01*
X126100943Y-77663283D01*
X126103567Y-77738140D01*
X126106679Y-77791620D01*
X126110862Y-77828062D01*
X126116697Y-77851804D01*
X126124766Y-77867182D01*
X126135651Y-77878536D01*
X126141221Y-77883162D01*
X126190456Y-77908578D01*
X126236977Y-77904745D01*
X126277489Y-77872269D01*
X126286756Y-77859203D01*
X126293979Y-77843945D01*
X126299412Y-77822832D01*
X126303308Y-77792205D01*
X126305921Y-77748402D01*
X126307507Y-77687763D01*
X126308318Y-77606627D01*
X126308608Y-77501333D01*
X126308639Y-77423408D01*
X126308541Y-77301524D01*
X126308079Y-77206039D01*
X126306997Y-77133291D01*
X126305043Y-77079619D01*
X126301962Y-77041363D01*
X126297500Y-77014863D01*
X126291403Y-76996456D01*
X126283417Y-76982484D01*
X126277489Y-76974547D01*
X126262462Y-76955748D01*
X126248418Y-76941553D01*
X126233230Y-76933382D01*
X126214773Y-76932652D01*
X126190920Y-76940780D01*
X126190920Y-76940780D01*
G37*
X126190920Y-76940780D02*
X126159545Y-76959185D01*
X126118522Y-76989285D01*
X126065724Y-77032496D01*
X125999025Y-77090238D01*
X125916299Y-77163928D01*
X125815420Y-77254984D01*
X125699941Y-77359674D01*
X125459467Y-77577743D01*
X125451952Y-77285044D01*
X125449239Y-77184290D01*
X125446622Y-77109258D01*
X125443520Y-77055620D01*
X125439356Y-77019046D01*
X125433551Y-76995207D01*
X125425524Y-76979774D01*
X125414697Y-76968418D01*
X125408956Y-76963646D01*
X125362983Y-76938413D01*
X125319237Y-76942102D01*
X125284535Y-76963659D01*
X125249053Y-76992371D01*
X125244640Y-77411686D01*
X125243419Y-77535007D01*
X125242797Y-77631884D01*
X125242990Y-77705930D01*
X125244214Y-77760757D01*
X125246684Y-77799979D01*
X125250614Y-77827209D01*
X125256220Y-77846059D01*
X125263718Y-77860141D01*
X125272033Y-77871435D01*
X125290022Y-77892382D01*
X125307921Y-77906267D01*
X125328212Y-77911596D01*
X125353378Y-77906876D01*
X125385900Y-77890613D01*
X125428263Y-77861313D01*
X125482948Y-77817482D01*
X125552437Y-77757627D01*
X125639215Y-77680254D01*
X125737515Y-77591350D01*
X126090710Y-77270971D01*
X126098225Y-77562713D01*
X126100943Y-77663283D01*
X126103567Y-77738140D01*
X126106679Y-77791620D01*
X126110862Y-77828062D01*
X126116697Y-77851804D01*
X126124766Y-77867182D01*
X126135651Y-77878536D01*
X126141221Y-77883162D01*
X126190456Y-77908578D01*
X126236977Y-77904745D01*
X126277489Y-77872269D01*
X126286756Y-77859203D01*
X126293979Y-77843945D01*
X126299412Y-77822832D01*
X126303308Y-77792205D01*
X126305921Y-77748402D01*
X126307507Y-77687763D01*
X126308318Y-77606627D01*
X126308608Y-77501333D01*
X126308639Y-77423408D01*
X126308541Y-77301524D01*
X126308079Y-77206039D01*
X126306997Y-77133291D01*
X126305043Y-77079619D01*
X126301962Y-77041363D01*
X126297500Y-77014863D01*
X126291403Y-76996456D01*
X126283417Y-76982484D01*
X126277489Y-76974547D01*
X126262462Y-76955748D01*
X126248418Y-76941553D01*
X126233230Y-76933382D01*
X126214773Y-76932652D01*
X126190920Y-76940780D01*
G36*
X124153330Y-76935203D02*
X124051669Y-76936420D01*
X123973764Y-76939266D01*
X123916465Y-76944410D01*
X123876619Y-76952520D01*
X123851078Y-76964267D01*
X123836689Y-76980318D01*
X123830301Y-77001344D01*
X123828765Y-77028012D01*
X123828757Y-77031162D01*
X123830091Y-77061326D01*
X123836395Y-77084639D01*
X123851124Y-77102042D01*
X123877731Y-77114476D01*
X123919672Y-77122881D01*
X123980400Y-77128201D01*
X124063370Y-77131375D01*
X124172035Y-77133345D01*
X124205341Y-77133781D01*
X124527633Y-77137846D01*
X124532140Y-77224266D01*
X124536648Y-77310686D01*
X124312783Y-77310686D01*
X124225325Y-77311009D01*
X124162877Y-77312373D01*
X124120392Y-77315375D01*
X124092823Y-77320609D01*
X124075124Y-77328671D01*
X124062249Y-77340156D01*
X124062166Y-77340247D01*
X124038816Y-77385007D01*
X124039660Y-77433383D01*
X124064167Y-77474622D01*
X124069017Y-77478861D01*
X124086231Y-77489785D01*
X124109820Y-77497385D01*
X124145039Y-77502233D01*
X124197146Y-77504902D01*
X124271396Y-77505964D01*
X124318884Y-77506071D01*
X124535148Y-77506071D01*
X124535148Y-77716485D01*
X124206826Y-77716485D01*
X124098428Y-77716675D01*
X124016111Y-77717450D01*
X123955897Y-77719120D01*
X123913811Y-77721994D01*
X123885875Y-77726383D01*
X123868112Y-77732595D01*
X123856546Y-77740940D01*
X123853631Y-77743970D01*
X123832110Y-77785970D01*
X123830536Y-77833750D01*
X123848191Y-77875178D01*
X123862161Y-77888473D01*
X123876692Y-77895792D01*
X123899208Y-77901455D01*
X123933270Y-77905659D01*
X123982439Y-77908604D01*
X124050278Y-77910487D01*
X124140348Y-77911506D01*
X124256209Y-77911861D01*
X124282403Y-77911870D01*
X124400207Y-77911792D01*
X124491650Y-77911367D01*
X124560432Y-77910302D01*
X124610250Y-77908305D01*
X124644806Y-77905086D01*
X124667796Y-77900352D01*
X124682920Y-77893813D01*
X124693877Y-77885177D01*
X124699888Y-77878976D01*
X124708936Y-77867993D01*
X124716004Y-77854388D01*
X124721337Y-77834592D01*
X124725178Y-77805038D01*
X124727771Y-77762157D01*
X124729359Y-77702381D01*
X124730185Y-77622143D01*
X124730494Y-77517875D01*
X124730532Y-77430116D01*
X124730438Y-77307144D01*
X124729989Y-77210605D01*
X124728938Y-77136875D01*
X124727036Y-77082326D01*
X124724037Y-77043335D01*
X124719691Y-77016275D01*
X124713752Y-76997520D01*
X124705971Y-76983446D01*
X124699382Y-76974547D01*
X124668232Y-76934946D01*
X124281898Y-76934946D01*
X124153330Y-76935203D01*
X124153330Y-76935203D01*
G37*
X124153330Y-76935203D02*
X124051669Y-76936420D01*
X123973764Y-76939266D01*
X123916465Y-76944410D01*
X123876619Y-76952520D01*
X123851078Y-76964267D01*
X123836689Y-76980318D01*
X123830301Y-77001344D01*
X123828765Y-77028012D01*
X123828757Y-77031162D01*
X123830091Y-77061326D01*
X123836395Y-77084639D01*
X123851124Y-77102042D01*
X123877731Y-77114476D01*
X123919672Y-77122881D01*
X123980400Y-77128201D01*
X124063370Y-77131375D01*
X124172035Y-77133345D01*
X124205341Y-77133781D01*
X124527633Y-77137846D01*
X124532140Y-77224266D01*
X124536648Y-77310686D01*
X124312783Y-77310686D01*
X124225325Y-77311009D01*
X124162877Y-77312373D01*
X124120392Y-77315375D01*
X124092823Y-77320609D01*
X124075124Y-77328671D01*
X124062249Y-77340156D01*
X124062166Y-77340247D01*
X124038816Y-77385007D01*
X124039660Y-77433383D01*
X124064167Y-77474622D01*
X124069017Y-77478861D01*
X124086231Y-77489785D01*
X124109820Y-77497385D01*
X124145039Y-77502233D01*
X124197146Y-77504902D01*
X124271396Y-77505964D01*
X124318884Y-77506071D01*
X124535148Y-77506071D01*
X124535148Y-77716485D01*
X124206826Y-77716485D01*
X124098428Y-77716675D01*
X124016111Y-77717450D01*
X123955897Y-77719120D01*
X123913811Y-77721994D01*
X123885875Y-77726383D01*
X123868112Y-77732595D01*
X123856546Y-77740940D01*
X123853631Y-77743970D01*
X123832110Y-77785970D01*
X123830536Y-77833750D01*
X123848191Y-77875178D01*
X123862161Y-77888473D01*
X123876692Y-77895792D01*
X123899208Y-77901455D01*
X123933270Y-77905659D01*
X123982439Y-77908604D01*
X124050278Y-77910487D01*
X124140348Y-77911506D01*
X124256209Y-77911861D01*
X124282403Y-77911870D01*
X124400207Y-77911792D01*
X124491650Y-77911367D01*
X124560432Y-77910302D01*
X124610250Y-77908305D01*
X124644806Y-77905086D01*
X124667796Y-77900352D01*
X124682920Y-77893813D01*
X124693877Y-77885177D01*
X124699888Y-77878976D01*
X124708936Y-77867993D01*
X124716004Y-77854388D01*
X124721337Y-77834592D01*
X124725178Y-77805038D01*
X124727771Y-77762157D01*
X124729359Y-77702381D01*
X124730185Y-77622143D01*
X124730494Y-77517875D01*
X124730532Y-77430116D01*
X124730438Y-77307144D01*
X124729989Y-77210605D01*
X124728938Y-77136875D01*
X124727036Y-77082326D01*
X124724037Y-77043335D01*
X124719691Y-77016275D01*
X124713752Y-76997520D01*
X124705971Y-76983446D01*
X124699382Y-76974547D01*
X124668232Y-76934946D01*
X124281898Y-76934946D01*
X124153330Y-76935203D01*
G36*
X123104263Y-76935223D02*
X122932545Y-76941029D01*
X122786491Y-76958637D01*
X122663693Y-76989099D01*
X122561743Y-77033471D01*
X122478232Y-77092807D01*
X122410753Y-77168160D01*
X122356897Y-77260586D01*
X122355838Y-77262840D01*
X122323697Y-77345560D01*
X122312245Y-77418820D01*
X122321526Y-77492548D01*
X122351585Y-77576671D01*
X122357285Y-77589473D01*
X122396161Y-77664398D01*
X122439851Y-77722293D01*
X122496240Y-77771508D01*
X122573208Y-77820393D01*
X122577680Y-77822945D01*
X122644683Y-77855131D01*
X122720415Y-77879168D01*
X122809742Y-77895887D01*
X122917531Y-77906115D01*
X123048648Y-77910682D01*
X123094974Y-77911079D01*
X123315570Y-77911870D01*
X123346720Y-77872269D01*
X123355960Y-77859247D01*
X123363168Y-77844040D01*
X123368596Y-77823002D01*
X123372495Y-77792486D01*
X123375117Y-77748847D01*
X123375972Y-77716485D01*
X123167455Y-77716485D01*
X123042464Y-77716485D01*
X122969323Y-77714346D01*
X122894239Y-77708717D01*
X122832616Y-77700779D01*
X122828897Y-77700111D01*
X122719447Y-77670748D01*
X122634552Y-77626633D01*
X122571528Y-77565719D01*
X122527686Y-77485960D01*
X122520063Y-77464820D01*
X122512590Y-77431898D01*
X122515825Y-77399372D01*
X122531567Y-77356100D01*
X122541056Y-77334843D01*
X122572129Y-77278356D01*
X122609567Y-77238727D01*
X122650759Y-77211130D01*
X122733270Y-77175218D01*
X122838867Y-77149204D01*
X122961882Y-77134224D01*
X123050976Y-77130928D01*
X123167455Y-77130331D01*
X123167455Y-77716485D01*
X123375972Y-77716485D01*
X123376714Y-77688436D01*
X123377536Y-77607608D01*
X123377836Y-77502717D01*
X123377870Y-77420698D01*
X123377870Y-77008728D01*
X123340979Y-76971837D01*
X123324606Y-76956884D01*
X123306903Y-76946644D01*
X123282181Y-76940237D01*
X123244752Y-76936783D01*
X123188927Y-76935403D01*
X123109018Y-76935217D01*
X123104263Y-76935223D01*
X123104263Y-76935223D01*
G37*
X123104263Y-76935223D02*
X122932545Y-76941029D01*
X122786491Y-76958637D01*
X122663693Y-76989099D01*
X122561743Y-77033471D01*
X122478232Y-77092807D01*
X122410753Y-77168160D01*
X122356897Y-77260586D01*
X122355838Y-77262840D01*
X122323697Y-77345560D01*
X122312245Y-77418820D01*
X122321526Y-77492548D01*
X122351585Y-77576671D01*
X122357285Y-77589473D01*
X122396161Y-77664398D01*
X122439851Y-77722293D01*
X122496240Y-77771508D01*
X122573208Y-77820393D01*
X122577680Y-77822945D01*
X122644683Y-77855131D01*
X122720415Y-77879168D01*
X122809742Y-77895887D01*
X122917531Y-77906115D01*
X123048648Y-77910682D01*
X123094974Y-77911079D01*
X123315570Y-77911870D01*
X123346720Y-77872269D01*
X123355960Y-77859247D01*
X123363168Y-77844040D01*
X123368596Y-77823002D01*
X123372495Y-77792486D01*
X123375117Y-77748847D01*
X123375972Y-77716485D01*
X123167455Y-77716485D01*
X123042464Y-77716485D01*
X122969323Y-77714346D01*
X122894239Y-77708717D01*
X122832616Y-77700779D01*
X122828897Y-77700111D01*
X122719447Y-77670748D01*
X122634552Y-77626633D01*
X122571528Y-77565719D01*
X122527686Y-77485960D01*
X122520063Y-77464820D01*
X122512590Y-77431898D01*
X122515825Y-77399372D01*
X122531567Y-77356100D01*
X122541056Y-77334843D01*
X122572129Y-77278356D01*
X122609567Y-77238727D01*
X122650759Y-77211130D01*
X122733270Y-77175218D01*
X122838867Y-77149204D01*
X122961882Y-77134224D01*
X123050976Y-77130928D01*
X123167455Y-77130331D01*
X123167455Y-77716485D01*
X123375972Y-77716485D01*
X123376714Y-77688436D01*
X123377536Y-77607608D01*
X123377836Y-77502717D01*
X123377870Y-77420698D01*
X123377870Y-77008728D01*
X123340979Y-76971837D01*
X123324606Y-76956884D01*
X123306903Y-76946644D01*
X123282181Y-76940237D01*
X123244752Y-76936783D01*
X123188927Y-76935403D01*
X123109018Y-76935217D01*
X123104263Y-76935223D01*
G36*
X119474499Y-76937566D02*
X119448418Y-76946886D01*
X119447412Y-76947342D01*
X119411994Y-76974370D01*
X119392480Y-77002172D01*
X119388662Y-77015208D01*
X119388851Y-77032528D01*
X119394224Y-77057203D01*
X119405958Y-77092300D01*
X119425233Y-77140889D01*
X119453224Y-77206038D01*
X119491110Y-77290817D01*
X119540068Y-77398295D01*
X119567015Y-77457039D01*
X119615676Y-77561909D01*
X119661356Y-77658350D01*
X119702312Y-77742834D01*
X119736800Y-77811836D01*
X119763077Y-77861830D01*
X119779400Y-77889290D01*
X119782630Y-77893083D01*
X119823957Y-77909816D01*
X119870637Y-77907575D01*
X119908076Y-77887223D01*
X119909602Y-77885568D01*
X119924495Y-77863022D01*
X119949477Y-77819107D01*
X119981467Y-77759476D01*
X120017386Y-77689782D01*
X120030294Y-77664099D01*
X120127732Y-77468933D01*
X120233940Y-77680943D01*
X120271849Y-77754197D01*
X120307019Y-77817726D01*
X120336578Y-77866667D01*
X120357652Y-77896158D01*
X120364794Y-77902412D01*
X120420308Y-77910881D01*
X120466117Y-77893083D01*
X120479592Y-77874061D01*
X120502910Y-77831785D01*
X120534169Y-77770416D01*
X120571466Y-77694112D01*
X120612900Y-77607035D01*
X120656568Y-77513343D01*
X120700568Y-77417197D01*
X120742998Y-77322757D01*
X120781956Y-77234181D01*
X120815539Y-77155632D01*
X120841845Y-77091267D01*
X120858972Y-77045247D01*
X120865017Y-77021733D01*
X120864955Y-77020881D01*
X120850246Y-76991292D01*
X120820844Y-76961156D01*
X120819113Y-76959844D01*
X120782976Y-76939418D01*
X120749552Y-76939616D01*
X120737024Y-76943467D01*
X120721759Y-76951789D01*
X120705548Y-76968161D01*
X120686447Y-76995978D01*
X120662511Y-77038636D01*
X120631795Y-77099531D01*
X120592355Y-77182061D01*
X120556788Y-77258243D01*
X120515869Y-77346550D01*
X120479202Y-77425962D01*
X120448692Y-77492332D01*
X120426244Y-77541511D01*
X120413763Y-77569349D01*
X120411943Y-77573704D01*
X120403756Y-77566585D01*
X120384941Y-77536777D01*
X120358000Y-77488632D01*
X120325438Y-77426499D01*
X120312480Y-77400864D01*
X120268586Y-77314301D01*
X120234735Y-77251261D01*
X120208149Y-77208078D01*
X120186051Y-77181088D01*
X120165662Y-77166624D01*
X120144206Y-77161023D01*
X120130223Y-77160390D01*
X120105558Y-77162576D01*
X120083944Y-77171615D01*
X120062468Y-77191233D01*
X120038216Y-77225153D01*
X120008276Y-77277098D01*
X119969733Y-77350794D01*
X119948468Y-77392716D01*
X119913974Y-77459530D01*
X119883890Y-77514937D01*
X119860869Y-77554263D01*
X119847566Y-77572832D01*
X119845757Y-77573605D01*
X119837166Y-77558991D01*
X119817932Y-77521043D01*
X119789981Y-77463732D01*
X119755239Y-77391032D01*
X119715633Y-77306912D01*
X119696150Y-77265130D01*
X119645466Y-77157299D01*
X119604653Y-77074326D01*
X119571592Y-77013502D01*
X119544165Y-76972121D01*
X119520254Y-76947476D01*
X119497738Y-76936860D01*
X119474499Y-76937566D01*
X119474499Y-76937566D01*
G37*
X119474499Y-76937566D02*
X119448418Y-76946886D01*
X119447412Y-76947342D01*
X119411994Y-76974370D01*
X119392480Y-77002172D01*
X119388662Y-77015208D01*
X119388851Y-77032528D01*
X119394224Y-77057203D01*
X119405958Y-77092300D01*
X119425233Y-77140889D01*
X119453224Y-77206038D01*
X119491110Y-77290817D01*
X119540068Y-77398295D01*
X119567015Y-77457039D01*
X119615676Y-77561909D01*
X119661356Y-77658350D01*
X119702312Y-77742834D01*
X119736800Y-77811836D01*
X119763077Y-77861830D01*
X119779400Y-77889290D01*
X119782630Y-77893083D01*
X119823957Y-77909816D01*
X119870637Y-77907575D01*
X119908076Y-77887223D01*
X119909602Y-77885568D01*
X119924495Y-77863022D01*
X119949477Y-77819107D01*
X119981467Y-77759476D01*
X120017386Y-77689782D01*
X120030294Y-77664099D01*
X120127732Y-77468933D01*
X120233940Y-77680943D01*
X120271849Y-77754197D01*
X120307019Y-77817726D01*
X120336578Y-77866667D01*
X120357652Y-77896158D01*
X120364794Y-77902412D01*
X120420308Y-77910881D01*
X120466117Y-77893083D01*
X120479592Y-77874061D01*
X120502910Y-77831785D01*
X120534169Y-77770416D01*
X120571466Y-77694112D01*
X120612900Y-77607035D01*
X120656568Y-77513343D01*
X120700568Y-77417197D01*
X120742998Y-77322757D01*
X120781956Y-77234181D01*
X120815539Y-77155632D01*
X120841845Y-77091267D01*
X120858972Y-77045247D01*
X120865017Y-77021733D01*
X120864955Y-77020881D01*
X120850246Y-76991292D01*
X120820844Y-76961156D01*
X120819113Y-76959844D01*
X120782976Y-76939418D01*
X120749552Y-76939616D01*
X120737024Y-76943467D01*
X120721759Y-76951789D01*
X120705548Y-76968161D01*
X120686447Y-76995978D01*
X120662511Y-77038636D01*
X120631795Y-77099531D01*
X120592355Y-77182061D01*
X120556788Y-77258243D01*
X120515869Y-77346550D01*
X120479202Y-77425962D01*
X120448692Y-77492332D01*
X120426244Y-77541511D01*
X120413763Y-77569349D01*
X120411943Y-77573704D01*
X120403756Y-77566585D01*
X120384941Y-77536777D01*
X120358000Y-77488632D01*
X120325438Y-77426499D01*
X120312480Y-77400864D01*
X120268586Y-77314301D01*
X120234735Y-77251261D01*
X120208149Y-77208078D01*
X120186051Y-77181088D01*
X120165662Y-77166624D01*
X120144206Y-77161023D01*
X120130223Y-77160390D01*
X120105558Y-77162576D01*
X120083944Y-77171615D01*
X120062468Y-77191233D01*
X120038216Y-77225153D01*
X120008276Y-77277098D01*
X119969733Y-77350794D01*
X119948468Y-77392716D01*
X119913974Y-77459530D01*
X119883890Y-77514937D01*
X119860869Y-77554263D01*
X119847566Y-77572832D01*
X119845757Y-77573605D01*
X119837166Y-77558991D01*
X119817932Y-77521043D01*
X119789981Y-77463732D01*
X119755239Y-77391032D01*
X119715633Y-77306912D01*
X119696150Y-77265130D01*
X119645466Y-77157299D01*
X119604653Y-77074326D01*
X119571592Y-77013502D01*
X119544165Y-76972121D01*
X119520254Y-76947476D01*
X119497738Y-76936860D01*
X119474499Y-76937566D01*
G36*
X118883442Y-76944013D02*
X118851872Y-76963678D01*
X118816390Y-76992409D01*
X118816390Y-77420502D01*
X118816503Y-77545726D01*
X118816987Y-77644383D01*
X118818060Y-77719966D01*
X118819938Y-77775969D01*
X118822840Y-77815883D01*
X118826983Y-77843202D01*
X118832584Y-77861417D01*
X118839861Y-77874022D01*
X118845022Y-77880232D01*
X118886878Y-77907516D01*
X118934541Y-77906403D01*
X118976293Y-77883138D01*
X119011775Y-77854407D01*
X119011775Y-76992409D01*
X118976293Y-76963678D01*
X118942048Y-76942778D01*
X118914083Y-76934946D01*
X118883442Y-76944013D01*
X118883442Y-76944013D01*
G37*
X118883442Y-76944013D02*
X118851872Y-76963678D01*
X118816390Y-76992409D01*
X118816390Y-77420502D01*
X118816503Y-77545726D01*
X118816987Y-77644383D01*
X118818060Y-77719966D01*
X118819938Y-77775969D01*
X118822840Y-77815883D01*
X118826983Y-77843202D01*
X118832584Y-77861417D01*
X118839861Y-77874022D01*
X118845022Y-77880232D01*
X118886878Y-77907516D01*
X118934541Y-77906403D01*
X118976293Y-77883138D01*
X119011775Y-77854407D01*
X119011775Y-76992409D01*
X118976293Y-76963678D01*
X118942048Y-76942778D01*
X118914083Y-76934946D01*
X118883442Y-76944013D01*
G36*
X117852369Y-76935075D02*
X117747581Y-76935579D01*
X117666247Y-76936632D01*
X117605066Y-76938412D01*
X117560735Y-76941093D01*
X117529952Y-76944850D01*
X117509415Y-76949861D01*
X117495821Y-76956299D01*
X117489243Y-76961248D01*
X117455102Y-77004565D01*
X117450972Y-77049539D01*
X117472070Y-77090396D01*
X117485867Y-77106722D01*
X117500714Y-77117854D01*
X117522231Y-77124786D01*
X117556038Y-77128513D01*
X117607754Y-77130030D01*
X117682999Y-77130330D01*
X117697777Y-77130331D01*
X117892071Y-77130331D01*
X117892071Y-77491041D01*
X117892199Y-77604737D01*
X117892780Y-77692221D01*
X117894110Y-77757338D01*
X117896486Y-77803934D01*
X117900202Y-77835855D01*
X117905554Y-77856948D01*
X117912839Y-77871059D01*
X117922130Y-77881810D01*
X117965975Y-77908232D01*
X118011746Y-77906150D01*
X118053256Y-77876005D01*
X118056305Y-77872269D01*
X118066234Y-77858146D01*
X118073798Y-77841622D01*
X118079317Y-77818682D01*
X118083113Y-77785309D01*
X118085504Y-77737491D01*
X118086812Y-77671210D01*
X118087355Y-77582454D01*
X118087455Y-77481499D01*
X118087455Y-77130331D01*
X118272996Y-77130331D01*
X118352619Y-77129792D01*
X118407742Y-77127693D01*
X118443914Y-77123307D01*
X118466684Y-77115912D01*
X118481599Y-77104781D01*
X118483410Y-77102846D01*
X118505188Y-77058593D01*
X118503262Y-77008565D01*
X118478225Y-76965006D01*
X118468542Y-76956556D01*
X118456058Y-76949857D01*
X118437443Y-76944705D01*
X118409369Y-76940897D01*
X118368505Y-76938233D01*
X118311524Y-76936508D01*
X118235094Y-76935520D01*
X118135889Y-76935068D01*
X118010577Y-76934948D01*
X117983913Y-76934946D01*
X117852369Y-76935075D01*
X117852369Y-76935075D01*
G37*
X117852369Y-76935075D02*
X117747581Y-76935579D01*
X117666247Y-76936632D01*
X117605066Y-76938412D01*
X117560735Y-76941093D01*
X117529952Y-76944850D01*
X117509415Y-76949861D01*
X117495821Y-76956299D01*
X117489243Y-76961248D01*
X117455102Y-77004565D01*
X117450972Y-77049539D01*
X117472070Y-77090396D01*
X117485867Y-77106722D01*
X117500714Y-77117854D01*
X117522231Y-77124786D01*
X117556038Y-77128513D01*
X117607754Y-77130030D01*
X117682999Y-77130330D01*
X117697777Y-77130331D01*
X117892071Y-77130331D01*
X117892071Y-77491041D01*
X117892199Y-77604737D01*
X117892780Y-77692221D01*
X117894110Y-77757338D01*
X117896486Y-77803934D01*
X117900202Y-77835855D01*
X117905554Y-77856948D01*
X117912839Y-77871059D01*
X117922130Y-77881810D01*
X117965975Y-77908232D01*
X118011746Y-77906150D01*
X118053256Y-77876005D01*
X118056305Y-77872269D01*
X118066234Y-77858146D01*
X118073798Y-77841622D01*
X118079317Y-77818682D01*
X118083113Y-77785309D01*
X118085504Y-77737491D01*
X118086812Y-77671210D01*
X118087355Y-77582454D01*
X118087455Y-77481499D01*
X118087455Y-77130331D01*
X118272996Y-77130331D01*
X118352619Y-77129792D01*
X118407742Y-77127693D01*
X118443914Y-77123307D01*
X118466684Y-77115912D01*
X118481599Y-77104781D01*
X118483410Y-77102846D01*
X118505188Y-77058593D01*
X118503262Y-77008565D01*
X118478225Y-76965006D01*
X118468542Y-76956556D01*
X118456058Y-76949857D01*
X118437443Y-76944705D01*
X118409369Y-76940897D01*
X118368505Y-76938233D01*
X118311524Y-76936508D01*
X118235094Y-76935520D01*
X118135889Y-76935068D01*
X118010577Y-76934948D01*
X117983913Y-76934946D01*
X117852369Y-76935075D01*
G36*
X116167187Y-76942224D02*
X116125411Y-76971837D01*
X116088521Y-77008728D01*
X116088521Y-77420698D01*
X116088617Y-77543022D01*
X116089074Y-77638934D01*
X116090143Y-77712080D01*
X116092075Y-77766106D01*
X116095123Y-77804659D01*
X116099537Y-77831384D01*
X116105570Y-77849930D01*
X116113472Y-77863941D01*
X116119671Y-77872269D01*
X116160585Y-77904985D01*
X116207564Y-77908536D01*
X116250502Y-77888473D01*
X116264690Y-77876628D01*
X116274174Y-77860894D01*
X116279895Y-77835558D01*
X116282793Y-77794906D01*
X116283808Y-77733224D01*
X116283905Y-77685574D01*
X116283905Y-77506071D01*
X116945207Y-77506071D01*
X116945207Y-77669369D01*
X116945891Y-77744041D01*
X116948627Y-77795360D01*
X116954442Y-77830013D01*
X116964362Y-77854691D01*
X116976357Y-77872269D01*
X117017500Y-77904893D01*
X117064029Y-77908756D01*
X117108573Y-77885568D01*
X117120734Y-77873412D01*
X117129323Y-77857297D01*
X117134988Y-77832196D01*
X117138377Y-77793080D01*
X117140138Y-77734922D01*
X117140918Y-77652694D01*
X117141010Y-77633822D01*
X117141654Y-77478893D01*
X117141986Y-77351210D01*
X117141878Y-77247963D01*
X117141201Y-77166339D01*
X117139828Y-77103528D01*
X117137630Y-77056717D01*
X117134480Y-77023095D01*
X117130248Y-76999851D01*
X117124808Y-76984172D01*
X117118031Y-76973247D01*
X117110532Y-76965006D01*
X117068113Y-76938643D01*
X117023874Y-76942224D01*
X116982098Y-76971837D01*
X116965193Y-76990943D01*
X116954417Y-77012047D01*
X116948405Y-77042104D01*
X116945790Y-77088069D01*
X116945207Y-77156896D01*
X116945207Y-77310686D01*
X116283905Y-77310686D01*
X116283905Y-77152875D01*
X116283230Y-77080172D01*
X116280520Y-77031081D01*
X116274745Y-76999172D01*
X116264877Y-76978014D01*
X116253846Y-76965006D01*
X116211427Y-76938643D01*
X116167187Y-76942224D01*
X116167187Y-76942224D01*
G37*
X116167187Y-76942224D02*
X116125411Y-76971837D01*
X116088521Y-77008728D01*
X116088521Y-77420698D01*
X116088617Y-77543022D01*
X116089074Y-77638934D01*
X116090143Y-77712080D01*
X116092075Y-77766106D01*
X116095123Y-77804659D01*
X116099537Y-77831384D01*
X116105570Y-77849930D01*
X116113472Y-77863941D01*
X116119671Y-77872269D01*
X116160585Y-77904985D01*
X116207564Y-77908536D01*
X116250502Y-77888473D01*
X116264690Y-77876628D01*
X116274174Y-77860894D01*
X116279895Y-77835558D01*
X116282793Y-77794906D01*
X116283808Y-77733224D01*
X116283905Y-77685574D01*
X116283905Y-77506071D01*
X116945207Y-77506071D01*
X116945207Y-77669369D01*
X116945891Y-77744041D01*
X116948627Y-77795360D01*
X116954442Y-77830013D01*
X116964362Y-77854691D01*
X116976357Y-77872269D01*
X117017500Y-77904893D01*
X117064029Y-77908756D01*
X117108573Y-77885568D01*
X117120734Y-77873412D01*
X117129323Y-77857297D01*
X117134988Y-77832196D01*
X117138377Y-77793080D01*
X117140138Y-77734922D01*
X117140918Y-77652694D01*
X117141010Y-77633822D01*
X117141654Y-77478893D01*
X117141986Y-77351210D01*
X117141878Y-77247963D01*
X117141201Y-77166339D01*
X117139828Y-77103528D01*
X117137630Y-77056717D01*
X117134480Y-77023095D01*
X117130248Y-76999851D01*
X117124808Y-76984172D01*
X117118031Y-76973247D01*
X117110532Y-76965006D01*
X117068113Y-76938643D01*
X117023874Y-76942224D01*
X116982098Y-76971837D01*
X116965193Y-76990943D01*
X116954417Y-77012047D01*
X116948405Y-77042104D01*
X116945790Y-77088069D01*
X116945207Y-77156896D01*
X116945207Y-77310686D01*
X116283905Y-77310686D01*
X116283905Y-77152875D01*
X116283230Y-77080172D01*
X116280520Y-77031081D01*
X116274745Y-76999172D01*
X116264877Y-76978014D01*
X116253846Y-76965006D01*
X116211427Y-76938643D01*
X116167187Y-76942224D01*
G36*
X128382722Y-70571024D02*
X128368256Y-70722719D01*
X128326163Y-70866003D01*
X128258393Y-70997807D01*
X128166899Y-71115058D01*
X128053635Y-71214687D01*
X127924510Y-71291729D01*
X127783028Y-71344479D01*
X127640554Y-71369201D01*
X127499896Y-71367684D01*
X127363864Y-71341717D01*
X127235267Y-71293090D01*
X127116914Y-71223593D01*
X127011614Y-71135014D01*
X126922177Y-71029143D01*
X126851412Y-70907770D01*
X126802129Y-70772683D01*
X126777135Y-70625674D01*
X126774556Y-70559244D01*
X126774556Y-70442165D01*
X126705420Y-70442165D01*
X126657081Y-70445953D01*
X126621271Y-70461662D01*
X126585183Y-70493266D01*
X126534083Y-70544367D01*
X126534083Y-73462138D01*
X126534095Y-73811138D01*
X126534138Y-74131332D01*
X126534223Y-74423974D01*
X126534361Y-74690318D01*
X126534562Y-74931617D01*
X126534838Y-75149125D01*
X126535200Y-75344095D01*
X126535658Y-75517780D01*
X126536223Y-75671435D01*
X126536906Y-75806313D01*
X126537717Y-75923668D01*
X126538669Y-76024753D01*
X126539771Y-76110821D01*
X126541035Y-76183127D01*
X126542470Y-76242923D01*
X126544089Y-76291464D01*
X126545902Y-76330003D01*
X126547920Y-76359793D01*
X126550154Y-76382089D01*
X126552614Y-76398143D01*
X126555312Y-76409210D01*
X126558258Y-76416542D01*
X126559699Y-76419005D01*
X126565241Y-76428340D01*
X126569947Y-76436923D01*
X126575045Y-76444784D01*
X126581765Y-76451955D01*
X126591336Y-76458467D01*
X126604986Y-76464353D01*
X126623945Y-76469642D01*
X126649442Y-76474368D01*
X126682705Y-76478560D01*
X126724964Y-76482251D01*
X126777448Y-76485472D01*
X126841386Y-76488254D01*
X126918007Y-76490630D01*
X127008540Y-76492629D01*
X127114214Y-76494284D01*
X127236258Y-76495627D01*
X127375901Y-76496687D01*
X127534372Y-76497498D01*
X127712900Y-76498090D01*
X127912715Y-76498495D01*
X128135045Y-76498744D01*
X128381119Y-76498869D01*
X128652166Y-76498901D01*
X128949416Y-76498871D01*
X129274097Y-76498811D01*
X129627438Y-76498752D01*
X129678541Y-76498746D01*
X130033985Y-76498689D01*
X130360594Y-76498595D01*
X130659592Y-76498455D01*
X130932204Y-76498259D01*
X131179653Y-76497997D01*
X131403164Y-76497660D01*
X131603960Y-76497239D01*
X131783266Y-76496723D01*
X131942307Y-76496104D01*
X132082306Y-76495371D01*
X132204487Y-76494515D01*
X132310075Y-76493526D01*
X132400293Y-76492394D01*
X132476366Y-76491111D01*
X132539519Y-76489666D01*
X132590975Y-76488049D01*
X132631958Y-76486252D01*
X132663692Y-76484265D01*
X132687402Y-76482077D01*
X132704312Y-76479679D01*
X132715646Y-76477063D01*
X132721448Y-76474841D01*
X132732714Y-76470088D01*
X132743058Y-76466578D01*
X132752517Y-76463068D01*
X132761132Y-76458313D01*
X132768942Y-76451069D01*
X132775985Y-76440091D01*
X132782302Y-76424135D01*
X132787931Y-76401955D01*
X132792912Y-76372309D01*
X132797284Y-76333951D01*
X132801086Y-76285637D01*
X132804358Y-76226122D01*
X132807139Y-76154163D01*
X132809467Y-76068513D01*
X132811383Y-75967931D01*
X132812925Y-75851169D01*
X132814134Y-75716985D01*
X132815047Y-75564134D01*
X132815705Y-75391371D01*
X132816146Y-75197452D01*
X132816411Y-74981133D01*
X132816536Y-74741168D01*
X132816564Y-74476314D01*
X132816533Y-74185326D01*
X132816481Y-73866960D01*
X132816449Y-73519970D01*
X132816449Y-73463852D01*
X132816467Y-73113841D01*
X132816501Y-72792636D01*
X132816515Y-72498983D01*
X132816476Y-72231628D01*
X132816351Y-71989317D01*
X132816103Y-71770797D01*
X132815700Y-71574813D01*
X132815107Y-71400113D01*
X132814335Y-71253763D01*
X132411149Y-71253763D01*
X132358174Y-71330775D01*
X132343302Y-71351768D01*
X132329895Y-71370356D01*
X132317876Y-71388120D01*
X132307170Y-71406638D01*
X132297703Y-71427491D01*
X132289397Y-71452257D01*
X132282178Y-71482517D01*
X132275969Y-71519850D01*
X132270696Y-71565835D01*
X132266282Y-71622052D01*
X132262652Y-71690080D01*
X132259730Y-71771500D01*
X132257441Y-71867890D01*
X132255709Y-71980830D01*
X132254458Y-72111899D01*
X132253614Y-72262678D01*
X132253099Y-72434746D01*
X132252839Y-72629681D01*
X132252757Y-72849065D01*
X132252779Y-73094476D01*
X132252828Y-73367494D01*
X132252840Y-73530745D01*
X132252808Y-73819583D01*
X132252763Y-74079943D01*
X132252779Y-74313406D01*
X132252931Y-74521554D01*
X132253294Y-74705969D01*
X132253943Y-74868231D01*
X132254953Y-75009922D01*
X132256399Y-75132624D01*
X132258355Y-75237917D01*
X132260896Y-75327383D01*
X132264097Y-75402603D01*
X132268033Y-75465159D01*
X132272780Y-75516632D01*
X132278410Y-75558603D01*
X132285001Y-75592653D01*
X132292626Y-75620365D01*
X132301360Y-75643318D01*
X132311279Y-75663096D01*
X132322456Y-75681278D01*
X132334967Y-75699446D01*
X132348888Y-75719182D01*
X132356997Y-75731019D01*
X132408618Y-75807728D01*
X131700914Y-75807728D01*
X131536826Y-75807681D01*
X131400367Y-75807481D01*
X131289109Y-75807033D01*
X131200621Y-75806244D01*
X131132476Y-75805020D01*
X131082243Y-75803269D01*
X131047493Y-75800897D01*
X131025798Y-75797810D01*
X131014727Y-75793916D01*
X131011851Y-75789120D01*
X131014741Y-75783330D01*
X131016333Y-75781426D01*
X131049817Y-75732070D01*
X131084296Y-75661773D01*
X131115729Y-75579227D01*
X131126738Y-75544061D01*
X131132884Y-75520175D01*
X131138078Y-75492135D01*
X131142430Y-75457165D01*
X131146048Y-75412489D01*
X131149043Y-75355329D01*
X131151523Y-75282910D01*
X131153598Y-75192455D01*
X131155377Y-75081188D01*
X131156970Y-74946331D01*
X131158486Y-74785109D01*
X131158988Y-74725597D01*
X131160342Y-74558976D01*
X131161352Y-74420026D01*
X131161941Y-74306361D01*
X131162031Y-74215596D01*
X131161544Y-74145344D01*
X131160403Y-74093219D01*
X131158530Y-74056834D01*
X131155847Y-74033804D01*
X131152276Y-74021742D01*
X131147739Y-74018261D01*
X131142159Y-74020976D01*
X131136203Y-74026722D01*
X131122417Y-74043943D01*
X131093050Y-74082651D01*
X131050179Y-74140010D01*
X130995882Y-74213181D01*
X130932237Y-74299326D01*
X130861323Y-74395609D01*
X130785216Y-74499192D01*
X130705995Y-74607237D01*
X130625738Y-74716907D01*
X130546522Y-74825364D01*
X130470426Y-74929770D01*
X130399527Y-75027289D01*
X130335903Y-75115083D01*
X130281633Y-75190314D01*
X130238793Y-75250144D01*
X130209462Y-75291737D01*
X130203380Y-75300567D01*
X130172864Y-75349698D01*
X130137172Y-75413590D01*
X130103357Y-75479542D01*
X130099069Y-75488437D01*
X130070208Y-75552602D01*
X130053452Y-75602610D01*
X130045823Y-75650307D01*
X130044334Y-75706278D01*
X130045178Y-75807728D01*
X128508204Y-75807728D01*
X128629575Y-75682938D01*
X128691879Y-75616510D01*
X128758830Y-75541316D01*
X128820132Y-75469063D01*
X128847325Y-75435310D01*
X128887849Y-75382661D01*
X128941176Y-75311817D01*
X129005747Y-75224947D01*
X129080001Y-75124222D01*
X129162381Y-75011809D01*
X129251326Y-74889879D01*
X129345278Y-74760602D01*
X129442678Y-74626146D01*
X129541965Y-74488681D01*
X129641581Y-74350377D01*
X129739967Y-74213403D01*
X129835564Y-74079929D01*
X129926812Y-73952124D01*
X130012152Y-73832157D01*
X130090025Y-73722199D01*
X130158871Y-73624418D01*
X130217132Y-73540984D01*
X130263249Y-73474066D01*
X130295661Y-73425834D01*
X130312810Y-73398458D01*
X130315150Y-73392996D01*
X130304554Y-73377917D01*
X130276868Y-73341730D01*
X130233909Y-73286701D01*
X130177490Y-73215093D01*
X130109426Y-73129171D01*
X130031533Y-73031198D01*
X129945625Y-72923438D01*
X129853517Y-72808155D01*
X129757023Y-72687614D01*
X129657959Y-72564079D01*
X129578438Y-72465082D01*
X128232426Y-72465082D01*
X128224558Y-72482333D01*
X128205480Y-72511955D01*
X128204086Y-72513928D01*
X128179073Y-72554073D01*
X128152916Y-72603109D01*
X128147725Y-72613941D01*
X128143017Y-72625163D01*
X128138857Y-72638634D01*
X128135203Y-72656210D01*
X128132015Y-72679745D01*
X128129255Y-72711094D01*
X128126881Y-72752112D01*
X128124853Y-72804652D01*
X128123132Y-72870571D01*
X128121676Y-72951723D01*
X128120447Y-73049962D01*
X128119404Y-73167143D01*
X128118506Y-73305121D01*
X128117714Y-73465751D01*
X128116988Y-73650888D01*
X128116287Y-73862386D01*
X128115577Y-74100509D01*
X128114860Y-74346967D01*
X128114282Y-74565229D01*
X128113931Y-74757155D01*
X128113898Y-74924607D01*
X128114272Y-75069449D01*
X128115143Y-75193540D01*
X128116601Y-75298744D01*
X128118736Y-75386922D01*
X128121637Y-75459936D01*
X128125394Y-75519648D01*
X128130097Y-75567920D01*
X128135835Y-75606614D01*
X128142699Y-75637591D01*
X128150778Y-75662714D01*
X128160162Y-75683845D01*
X128170940Y-75702845D01*
X128183203Y-75721576D01*
X128194520Y-75738175D01*
X128217334Y-75773182D01*
X128230843Y-75796593D01*
X128232426Y-75800880D01*
X128217905Y-75802314D01*
X128176375Y-75803646D01*
X128110889Y-75804845D01*
X128024495Y-75805877D01*
X127920246Y-75806712D01*
X127801192Y-75807317D01*
X127670384Y-75807660D01*
X127578639Y-75807728D01*
X127438855Y-75807434D01*
X127309924Y-75806593D01*
X127194758Y-75805263D01*
X127096270Y-75803503D01*
X127017376Y-75801372D01*
X126960988Y-75798928D01*
X126930020Y-75796231D01*
X126924852Y-75794538D01*
X126935100Y-75774697D01*
X126945749Y-75764006D01*
X126963286Y-75741204D01*
X126986237Y-75700929D01*
X127002110Y-75668231D01*
X127037574Y-75589799D01*
X127041668Y-74022964D01*
X127045762Y-72456130D01*
X127639094Y-72456130D01*
X127769323Y-72456349D01*
X127889670Y-72456973D01*
X127996932Y-72457953D01*
X128087907Y-72459243D01*
X128159393Y-72460792D01*
X128208186Y-72462554D01*
X128231085Y-72464479D01*
X128232426Y-72465082D01*
X129578438Y-72465082D01*
X129558140Y-72439813D01*
X129459380Y-72317081D01*
X129363493Y-72198147D01*
X129272296Y-72085274D01*
X129187602Y-71980728D01*
X129111227Y-71886771D01*
X129044984Y-71805668D01*
X128990690Y-71739684D01*
X128967838Y-71712165D01*
X128852952Y-71578149D01*
X128750971Y-71467303D01*
X128659355Y-71377009D01*
X128575566Y-71304651D01*
X128563077Y-71294842D01*
X128510473Y-71254096D01*
X129263864Y-71253930D01*
X130017254Y-71253763D01*
X130010213Y-71317639D01*
X130014610Y-71393984D01*
X130043276Y-71484882D01*
X130096496Y-71591057D01*
X130156817Y-71687292D01*
X130178409Y-71717441D01*
X130215758Y-71767441D01*
X130266637Y-71834442D01*
X130328820Y-71915591D01*
X130400081Y-72008038D01*
X130478192Y-72108933D01*
X130560928Y-72215423D01*
X130646063Y-72324658D01*
X130731369Y-72433787D01*
X130814621Y-72539959D01*
X130893592Y-72640323D01*
X130966055Y-72732027D01*
X131029785Y-72812221D01*
X131082555Y-72878054D01*
X131122138Y-72926674D01*
X131146309Y-72955230D01*
X131150381Y-72959621D01*
X131154188Y-72948962D01*
X131157135Y-72908630D01*
X131159217Y-72839000D01*
X131160429Y-72740447D01*
X131160766Y-72613344D01*
X131160223Y-72458068D01*
X131159013Y-72298319D01*
X131157253Y-72122431D01*
X131155223Y-71973667D01*
X131152593Y-71849092D01*
X131149031Y-71745771D01*
X131144206Y-71660769D01*
X131137787Y-71591152D01*
X131129444Y-71533984D01*
X131118844Y-71486331D01*
X131105657Y-71445257D01*
X131089552Y-71407827D01*
X131070197Y-71371107D01*
X131050650Y-71337771D01*
X131000063Y-71253763D01*
X132411149Y-71253763D01*
X132814335Y-71253763D01*
X132814291Y-71245442D01*
X132813218Y-71109547D01*
X132811853Y-70991174D01*
X132810162Y-70889069D01*
X132808112Y-70801979D01*
X132805668Y-70728650D01*
X132802796Y-70667829D01*
X132799462Y-70618260D01*
X132795633Y-70578692D01*
X132791274Y-70547870D01*
X132786351Y-70524540D01*
X132780830Y-70507448D01*
X132774678Y-70495342D01*
X132767859Y-70486967D01*
X132760340Y-70481070D01*
X132752087Y-70476396D01*
X132743067Y-70471693D01*
X132735084Y-70466942D01*
X132728117Y-70463512D01*
X132717232Y-70460412D01*
X132700972Y-70457625D01*
X132677879Y-70455134D01*
X132646497Y-70452923D01*
X132605368Y-70450976D01*
X132553034Y-70449276D01*
X132488039Y-70447807D01*
X132408925Y-70446552D01*
X132314236Y-70445494D01*
X132202512Y-70444618D01*
X132072299Y-70443907D01*
X131922137Y-70443345D01*
X131750570Y-70442914D01*
X131556141Y-70442599D01*
X131337392Y-70442383D01*
X131092866Y-70442250D01*
X130821105Y-70442183D01*
X130539996Y-70442165D01*
X128382722Y-70442165D01*
X128382722Y-70571024D01*
X128382722Y-70571024D01*
G37*
X128382722Y-70571024D02*
X128368256Y-70722719D01*
X128326163Y-70866003D01*
X128258393Y-70997807D01*
X128166899Y-71115058D01*
X128053635Y-71214687D01*
X127924510Y-71291729D01*
X127783028Y-71344479D01*
X127640554Y-71369201D01*
X127499896Y-71367684D01*
X127363864Y-71341717D01*
X127235267Y-71293090D01*
X127116914Y-71223593D01*
X127011614Y-71135014D01*
X126922177Y-71029143D01*
X126851412Y-70907770D01*
X126802129Y-70772683D01*
X126777135Y-70625674D01*
X126774556Y-70559244D01*
X126774556Y-70442165D01*
X126705420Y-70442165D01*
X126657081Y-70445953D01*
X126621271Y-70461662D01*
X126585183Y-70493266D01*
X126534083Y-70544367D01*
X126534083Y-73462138D01*
X126534095Y-73811138D01*
X126534138Y-74131332D01*
X126534223Y-74423974D01*
X126534361Y-74690318D01*
X126534562Y-74931617D01*
X126534838Y-75149125D01*
X126535200Y-75344095D01*
X126535658Y-75517780D01*
X126536223Y-75671435D01*
X126536906Y-75806313D01*
X126537717Y-75923668D01*
X126538669Y-76024753D01*
X126539771Y-76110821D01*
X126541035Y-76183127D01*
X126542470Y-76242923D01*
X126544089Y-76291464D01*
X126545902Y-76330003D01*
X126547920Y-76359793D01*
X126550154Y-76382089D01*
X126552614Y-76398143D01*
X126555312Y-76409210D01*
X126558258Y-76416542D01*
X126559699Y-76419005D01*
X126565241Y-76428340D01*
X126569947Y-76436923D01*
X126575045Y-76444784D01*
X126581765Y-76451955D01*
X126591336Y-76458467D01*
X126604986Y-76464353D01*
X126623945Y-76469642D01*
X126649442Y-76474368D01*
X126682705Y-76478560D01*
X126724964Y-76482251D01*
X126777448Y-76485472D01*
X126841386Y-76488254D01*
X126918007Y-76490630D01*
X127008540Y-76492629D01*
X127114214Y-76494284D01*
X127236258Y-76495627D01*
X127375901Y-76496687D01*
X127534372Y-76497498D01*
X127712900Y-76498090D01*
X127912715Y-76498495D01*
X128135045Y-76498744D01*
X128381119Y-76498869D01*
X128652166Y-76498901D01*
X128949416Y-76498871D01*
X129274097Y-76498811D01*
X129627438Y-76498752D01*
X129678541Y-76498746D01*
X130033985Y-76498689D01*
X130360594Y-76498595D01*
X130659592Y-76498455D01*
X130932204Y-76498259D01*
X131179653Y-76497997D01*
X131403164Y-76497660D01*
X131603960Y-76497239D01*
X131783266Y-76496723D01*
X131942307Y-76496104D01*
X132082306Y-76495371D01*
X132204487Y-76494515D01*
X132310075Y-76493526D01*
X132400293Y-76492394D01*
X132476366Y-76491111D01*
X132539519Y-76489666D01*
X132590975Y-76488049D01*
X132631958Y-76486252D01*
X132663692Y-76484265D01*
X132687402Y-76482077D01*
X132704312Y-76479679D01*
X132715646Y-76477063D01*
X132721448Y-76474841D01*
X132732714Y-76470088D01*
X132743058Y-76466578D01*
X132752517Y-76463068D01*
X132761132Y-76458313D01*
X132768942Y-76451069D01*
X132775985Y-76440091D01*
X132782302Y-76424135D01*
X132787931Y-76401955D01*
X132792912Y-76372309D01*
X132797284Y-76333951D01*
X132801086Y-76285637D01*
X132804358Y-76226122D01*
X132807139Y-76154163D01*
X132809467Y-76068513D01*
X132811383Y-75967931D01*
X132812925Y-75851169D01*
X132814134Y-75716985D01*
X132815047Y-75564134D01*
X132815705Y-75391371D01*
X132816146Y-75197452D01*
X132816411Y-74981133D01*
X132816536Y-74741168D01*
X132816564Y-74476314D01*
X132816533Y-74185326D01*
X132816481Y-73866960D01*
X132816449Y-73519970D01*
X132816449Y-73463852D01*
X132816467Y-73113841D01*
X132816501Y-72792636D01*
X132816515Y-72498983D01*
X132816476Y-72231628D01*
X132816351Y-71989317D01*
X132816103Y-71770797D01*
X132815700Y-71574813D01*
X132815107Y-71400113D01*
X132814335Y-71253763D01*
X132411149Y-71253763D01*
X132358174Y-71330775D01*
X132343302Y-71351768D01*
X132329895Y-71370356D01*
X132317876Y-71388120D01*
X132307170Y-71406638D01*
X132297703Y-71427491D01*
X132289397Y-71452257D01*
X132282178Y-71482517D01*
X132275969Y-71519850D01*
X132270696Y-71565835D01*
X132266282Y-71622052D01*
X132262652Y-71690080D01*
X132259730Y-71771500D01*
X132257441Y-71867890D01*
X132255709Y-71980830D01*
X132254458Y-72111899D01*
X132253614Y-72262678D01*
X132253099Y-72434746D01*
X132252839Y-72629681D01*
X132252757Y-72849065D01*
X132252779Y-73094476D01*
X132252828Y-73367494D01*
X132252840Y-73530745D01*
X132252808Y-73819583D01*
X132252763Y-74079943D01*
X132252779Y-74313406D01*
X132252931Y-74521554D01*
X132253294Y-74705969D01*
X132253943Y-74868231D01*
X132254953Y-75009922D01*
X132256399Y-75132624D01*
X132258355Y-75237917D01*
X132260896Y-75327383D01*
X132264097Y-75402603D01*
X132268033Y-75465159D01*
X132272780Y-75516632D01*
X132278410Y-75558603D01*
X132285001Y-75592653D01*
X132292626Y-75620365D01*
X132301360Y-75643318D01*
X132311279Y-75663096D01*
X132322456Y-75681278D01*
X132334967Y-75699446D01*
X132348888Y-75719182D01*
X132356997Y-75731019D01*
X132408618Y-75807728D01*
X131700914Y-75807728D01*
X131536826Y-75807681D01*
X131400367Y-75807481D01*
X131289109Y-75807033D01*
X131200621Y-75806244D01*
X131132476Y-75805020D01*
X131082243Y-75803269D01*
X131047493Y-75800897D01*
X131025798Y-75797810D01*
X131014727Y-75793916D01*
X131011851Y-75789120D01*
X131014741Y-75783330D01*
X131016333Y-75781426D01*
X131049817Y-75732070D01*
X131084296Y-75661773D01*
X131115729Y-75579227D01*
X131126738Y-75544061D01*
X131132884Y-75520175D01*
X131138078Y-75492135D01*
X131142430Y-75457165D01*
X131146048Y-75412489D01*
X131149043Y-75355329D01*
X131151523Y-75282910D01*
X131153598Y-75192455D01*
X131155377Y-75081188D01*
X131156970Y-74946331D01*
X131158486Y-74785109D01*
X131158988Y-74725597D01*
X131160342Y-74558976D01*
X131161352Y-74420026D01*
X131161941Y-74306361D01*
X131162031Y-74215596D01*
X131161544Y-74145344D01*
X131160403Y-74093219D01*
X131158530Y-74056834D01*
X131155847Y-74033804D01*
X131152276Y-74021742D01*
X131147739Y-74018261D01*
X131142159Y-74020976D01*
X131136203Y-74026722D01*
X131122417Y-74043943D01*
X131093050Y-74082651D01*
X131050179Y-74140010D01*
X130995882Y-74213181D01*
X130932237Y-74299326D01*
X130861323Y-74395609D01*
X130785216Y-74499192D01*
X130705995Y-74607237D01*
X130625738Y-74716907D01*
X130546522Y-74825364D01*
X130470426Y-74929770D01*
X130399527Y-75027289D01*
X130335903Y-75115083D01*
X130281633Y-75190314D01*
X130238793Y-75250144D01*
X130209462Y-75291737D01*
X130203380Y-75300567D01*
X130172864Y-75349698D01*
X130137172Y-75413590D01*
X130103357Y-75479542D01*
X130099069Y-75488437D01*
X130070208Y-75552602D01*
X130053452Y-75602610D01*
X130045823Y-75650307D01*
X130044334Y-75706278D01*
X130045178Y-75807728D01*
X128508204Y-75807728D01*
X128629575Y-75682938D01*
X128691879Y-75616510D01*
X128758830Y-75541316D01*
X128820132Y-75469063D01*
X128847325Y-75435310D01*
X128887849Y-75382661D01*
X128941176Y-75311817D01*
X129005747Y-75224947D01*
X129080001Y-75124222D01*
X129162381Y-75011809D01*
X129251326Y-74889879D01*
X129345278Y-74760602D01*
X129442678Y-74626146D01*
X129541965Y-74488681D01*
X129641581Y-74350377D01*
X129739967Y-74213403D01*
X129835564Y-74079929D01*
X129926812Y-73952124D01*
X130012152Y-73832157D01*
X130090025Y-73722199D01*
X130158871Y-73624418D01*
X130217132Y-73540984D01*
X130263249Y-73474066D01*
X130295661Y-73425834D01*
X130312810Y-73398458D01*
X130315150Y-73392996D01*
X130304554Y-73377917D01*
X130276868Y-73341730D01*
X130233909Y-73286701D01*
X130177490Y-73215093D01*
X130109426Y-73129171D01*
X130031533Y-73031198D01*
X129945625Y-72923438D01*
X129853517Y-72808155D01*
X129757023Y-72687614D01*
X129657959Y-72564079D01*
X129578438Y-72465082D01*
X128232426Y-72465082D01*
X128224558Y-72482333D01*
X128205480Y-72511955D01*
X128204086Y-72513928D01*
X128179073Y-72554073D01*
X128152916Y-72603109D01*
X128147725Y-72613941D01*
X128143017Y-72625163D01*
X128138857Y-72638634D01*
X128135203Y-72656210D01*
X128132015Y-72679745D01*
X128129255Y-72711094D01*
X128126881Y-72752112D01*
X128124853Y-72804652D01*
X128123132Y-72870571D01*
X128121676Y-72951723D01*
X128120447Y-73049962D01*
X128119404Y-73167143D01*
X128118506Y-73305121D01*
X128117714Y-73465751D01*
X128116988Y-73650888D01*
X128116287Y-73862386D01*
X128115577Y-74100509D01*
X128114860Y-74346967D01*
X128114282Y-74565229D01*
X128113931Y-74757155D01*
X128113898Y-74924607D01*
X128114272Y-75069449D01*
X128115143Y-75193540D01*
X128116601Y-75298744D01*
X128118736Y-75386922D01*
X128121637Y-75459936D01*
X128125394Y-75519648D01*
X128130097Y-75567920D01*
X128135835Y-75606614D01*
X128142699Y-75637591D01*
X128150778Y-75662714D01*
X128160162Y-75683845D01*
X128170940Y-75702845D01*
X128183203Y-75721576D01*
X128194520Y-75738175D01*
X128217334Y-75773182D01*
X128230843Y-75796593D01*
X128232426Y-75800880D01*
X128217905Y-75802314D01*
X128176375Y-75803646D01*
X128110889Y-75804845D01*
X128024495Y-75805877D01*
X127920246Y-75806712D01*
X127801192Y-75807317D01*
X127670384Y-75807660D01*
X127578639Y-75807728D01*
X127438855Y-75807434D01*
X127309924Y-75806593D01*
X127194758Y-75805263D01*
X127096270Y-75803503D01*
X127017376Y-75801372D01*
X126960988Y-75798928D01*
X126930020Y-75796231D01*
X126924852Y-75794538D01*
X126935100Y-75774697D01*
X126945749Y-75764006D01*
X126963286Y-75741204D01*
X126986237Y-75700929D01*
X127002110Y-75668231D01*
X127037574Y-75589799D01*
X127041668Y-74022964D01*
X127045762Y-72456130D01*
X127639094Y-72456130D01*
X127769323Y-72456349D01*
X127889670Y-72456973D01*
X127996932Y-72457953D01*
X128087907Y-72459243D01*
X128159393Y-72460792D01*
X128208186Y-72462554D01*
X128231085Y-72464479D01*
X128232426Y-72465082D01*
X129578438Y-72465082D01*
X129558140Y-72439813D01*
X129459380Y-72317081D01*
X129363493Y-72198147D01*
X129272296Y-72085274D01*
X129187602Y-71980728D01*
X129111227Y-71886771D01*
X129044984Y-71805668D01*
X128990690Y-71739684D01*
X128967838Y-71712165D01*
X128852952Y-71578149D01*
X128750971Y-71467303D01*
X128659355Y-71377009D01*
X128575566Y-71304651D01*
X128563077Y-71294842D01*
X128510473Y-71254096D01*
X129263864Y-71253930D01*
X130017254Y-71253763D01*
X130010213Y-71317639D01*
X130014610Y-71393984D01*
X130043276Y-71484882D01*
X130096496Y-71591057D01*
X130156817Y-71687292D01*
X130178409Y-71717441D01*
X130215758Y-71767441D01*
X130266637Y-71834442D01*
X130328820Y-71915591D01*
X130400081Y-72008038D01*
X130478192Y-72108933D01*
X130560928Y-72215423D01*
X130646063Y-72324658D01*
X130731369Y-72433787D01*
X130814621Y-72539959D01*
X130893592Y-72640323D01*
X130966055Y-72732027D01*
X131029785Y-72812221D01*
X131082555Y-72878054D01*
X131122138Y-72926674D01*
X131146309Y-72955230D01*
X131150381Y-72959621D01*
X131154188Y-72948962D01*
X131157135Y-72908630D01*
X131159217Y-72839000D01*
X131160429Y-72740447D01*
X131160766Y-72613344D01*
X131160223Y-72458068D01*
X131159013Y-72298319D01*
X131157253Y-72122431D01*
X131155223Y-71973667D01*
X131152593Y-71849092D01*
X131149031Y-71745771D01*
X131144206Y-71660769D01*
X131137787Y-71591152D01*
X131129444Y-71533984D01*
X131118844Y-71486331D01*
X131105657Y-71445257D01*
X131089552Y-71407827D01*
X131070197Y-71371107D01*
X131050650Y-71337771D01*
X131000063Y-71253763D01*
X132411149Y-71253763D01*
X132814335Y-71253763D01*
X132814291Y-71245442D01*
X132813218Y-71109547D01*
X132811853Y-70991174D01*
X132810162Y-70889069D01*
X132808112Y-70801979D01*
X132805668Y-70728650D01*
X132802796Y-70667829D01*
X132799462Y-70618260D01*
X132795633Y-70578692D01*
X132791274Y-70547870D01*
X132786351Y-70524540D01*
X132780830Y-70507448D01*
X132774678Y-70495342D01*
X132767859Y-70486967D01*
X132760340Y-70481070D01*
X132752087Y-70476396D01*
X132743067Y-70471693D01*
X132735084Y-70466942D01*
X132728117Y-70463512D01*
X132717232Y-70460412D01*
X132700972Y-70457625D01*
X132677879Y-70455134D01*
X132646497Y-70452923D01*
X132605368Y-70450976D01*
X132553034Y-70449276D01*
X132488039Y-70447807D01*
X132408925Y-70446552D01*
X132314236Y-70445494D01*
X132202512Y-70444618D01*
X132072299Y-70443907D01*
X131922137Y-70443345D01*
X131750570Y-70442914D01*
X131556141Y-70442599D01*
X131337392Y-70442383D01*
X131092866Y-70442250D01*
X130821105Y-70442183D01*
X130539996Y-70442165D01*
X128382722Y-70442165D01*
X128382722Y-70571024D01*
G36*
X124022742Y-71183473D02*
X123809536Y-71211663D01*
X123591273Y-71265103D01*
X123365204Y-71344325D01*
X123128582Y-71449856D01*
X123113580Y-71457238D01*
X123036768Y-71494550D01*
X122968140Y-71526605D01*
X122912703Y-71551166D01*
X122875464Y-71565992D01*
X122862722Y-71569384D01*
X122837137Y-71576051D01*
X122830997Y-71581651D01*
X122837792Y-71595541D01*
X122859147Y-71630540D01*
X122892604Y-71682980D01*
X122935706Y-71749194D01*
X122985992Y-71825514D01*
X123041005Y-71908273D01*
X123098286Y-71993801D01*
X123155377Y-72078433D01*
X123209817Y-72158500D01*
X123259150Y-72230334D01*
X123300917Y-72290268D01*
X123332658Y-72334635D01*
X123351915Y-72359765D01*
X123354558Y-72362680D01*
X123368029Y-72356491D01*
X123397773Y-72333623D01*
X123438473Y-72298314D01*
X123459434Y-72279040D01*
X123587896Y-72178814D01*
X123729966Y-72105002D01*
X123883744Y-72058270D01*
X124047328Y-72039284D01*
X124139725Y-72040843D01*
X124301005Y-72063690D01*
X124446413Y-72111462D01*
X124576384Y-72184508D01*
X124691353Y-72283176D01*
X124791754Y-72407815D01*
X124878022Y-72558776D01*
X124927839Y-72674059D01*
X124986222Y-72854724D01*
X125029252Y-73051078D01*
X125057040Y-73258057D01*
X125069695Y-73470598D01*
X125067330Y-73683638D01*
X125050055Y-73892113D01*
X125017981Y-74090961D01*
X124971218Y-74275118D01*
X124909877Y-74439520D01*
X124888200Y-74485124D01*
X124797340Y-74637014D01*
X124690219Y-74765481D01*
X124568412Y-74869478D01*
X124433490Y-74947958D01*
X124287029Y-74999874D01*
X124130600Y-75024179D01*
X124075392Y-75025967D01*
X123913554Y-75011428D01*
X123753209Y-74967737D01*
X123596390Y-74895798D01*
X123445133Y-74796512D01*
X123323436Y-74692232D01*
X123261488Y-74632945D01*
X123020155Y-75028709D01*
X122960114Y-75127446D01*
X122905211Y-75218262D01*
X122857394Y-75297895D01*
X122818609Y-75363080D01*
X122790806Y-75410554D01*
X122775930Y-75437055D01*
X122773997Y-75441175D01*
X122784953Y-75454009D01*
X122819007Y-75477016D01*
X122871855Y-75508015D01*
X122939189Y-75544829D01*
X123016706Y-75585278D01*
X123100098Y-75627182D01*
X123185060Y-75668363D01*
X123267286Y-75706642D01*
X123342471Y-75739838D01*
X123406309Y-75765775D01*
X123437533Y-75776997D01*
X123615623Y-75827342D01*
X123799209Y-75860630D01*
X123995858Y-75877943D01*
X124164659Y-75881043D01*
X124255133Y-75879585D01*
X124342471Y-75876792D01*
X124418932Y-75873009D01*
X124476770Y-75868578D01*
X124495549Y-75866337D01*
X124680628Y-75827947D01*
X124869051Y-75767877D01*
X125052090Y-75689702D01*
X125221013Y-75597000D01*
X125324201Y-75526864D01*
X125493826Y-75382809D01*
X125651330Y-75214302D01*
X125793795Y-75025508D01*
X125918303Y-74820591D01*
X126021938Y-74603715D01*
X126080324Y-74447550D01*
X126147222Y-74203076D01*
X126191821Y-73944064D01*
X126214135Y-73676119D01*
X126214179Y-73404845D01*
X126191966Y-73135847D01*
X126147509Y-72874729D01*
X126080824Y-72627095D01*
X126075743Y-72611666D01*
X125992022Y-72395915D01*
X125889844Y-72198983D01*
X125765742Y-72015299D01*
X125616250Y-71839288D01*
X125557850Y-71779027D01*
X125376596Y-71614016D01*
X125190263Y-71477495D01*
X124995991Y-71367979D01*
X124790921Y-71283981D01*
X124572190Y-71224015D01*
X124444970Y-71200730D01*
X124233637Y-71180005D01*
X124022742Y-71183473D01*
X124022742Y-71183473D01*
G37*
X124022742Y-71183473D02*
X123809536Y-71211663D01*
X123591273Y-71265103D01*
X123365204Y-71344325D01*
X123128582Y-71449856D01*
X123113580Y-71457238D01*
X123036768Y-71494550D01*
X122968140Y-71526605D01*
X122912703Y-71551166D01*
X122875464Y-71565992D01*
X122862722Y-71569384D01*
X122837137Y-71576051D01*
X122830997Y-71581651D01*
X122837792Y-71595541D01*
X122859147Y-71630540D01*
X122892604Y-71682980D01*
X122935706Y-71749194D01*
X122985992Y-71825514D01*
X123041005Y-71908273D01*
X123098286Y-71993801D01*
X123155377Y-72078433D01*
X123209817Y-72158500D01*
X123259150Y-72230334D01*
X123300917Y-72290268D01*
X123332658Y-72334635D01*
X123351915Y-72359765D01*
X123354558Y-72362680D01*
X123368029Y-72356491D01*
X123397773Y-72333623D01*
X123438473Y-72298314D01*
X123459434Y-72279040D01*
X123587896Y-72178814D01*
X123729966Y-72105002D01*
X123883744Y-72058270D01*
X124047328Y-72039284D01*
X124139725Y-72040843D01*
X124301005Y-72063690D01*
X124446413Y-72111462D01*
X124576384Y-72184508D01*
X124691353Y-72283176D01*
X124791754Y-72407815D01*
X124878022Y-72558776D01*
X124927839Y-72674059D01*
X124986222Y-72854724D01*
X125029252Y-73051078D01*
X125057040Y-73258057D01*
X125069695Y-73470598D01*
X125067330Y-73683638D01*
X125050055Y-73892113D01*
X125017981Y-74090961D01*
X124971218Y-74275118D01*
X124909877Y-74439520D01*
X124888200Y-74485124D01*
X124797340Y-74637014D01*
X124690219Y-74765481D01*
X124568412Y-74869478D01*
X124433490Y-74947958D01*
X124287029Y-74999874D01*
X124130600Y-75024179D01*
X124075392Y-75025967D01*
X123913554Y-75011428D01*
X123753209Y-74967737D01*
X123596390Y-74895798D01*
X123445133Y-74796512D01*
X123323436Y-74692232D01*
X123261488Y-74632945D01*
X123020155Y-75028709D01*
X122960114Y-75127446D01*
X122905211Y-75218262D01*
X122857394Y-75297895D01*
X122818609Y-75363080D01*
X122790806Y-75410554D01*
X122775930Y-75437055D01*
X122773997Y-75441175D01*
X122784953Y-75454009D01*
X122819007Y-75477016D01*
X122871855Y-75508015D01*
X122939189Y-75544829D01*
X123016706Y-75585278D01*
X123100098Y-75627182D01*
X123185060Y-75668363D01*
X123267286Y-75706642D01*
X123342471Y-75739838D01*
X123406309Y-75765775D01*
X123437533Y-75776997D01*
X123615623Y-75827342D01*
X123799209Y-75860630D01*
X123995858Y-75877943D01*
X124164659Y-75881043D01*
X124255133Y-75879585D01*
X124342471Y-75876792D01*
X124418932Y-75873009D01*
X124476770Y-75868578D01*
X124495549Y-75866337D01*
X124680628Y-75827947D01*
X124869051Y-75767877D01*
X125052090Y-75689702D01*
X125221013Y-75597000D01*
X125324201Y-75526864D01*
X125493826Y-75382809D01*
X125651330Y-75214302D01*
X125793795Y-75025508D01*
X125918303Y-74820591D01*
X126021938Y-74603715D01*
X126080324Y-74447550D01*
X126147222Y-74203076D01*
X126191821Y-73944064D01*
X126214135Y-73676119D01*
X126214179Y-73404845D01*
X126191966Y-73135847D01*
X126147509Y-72874729D01*
X126080824Y-72627095D01*
X126075743Y-72611666D01*
X125992022Y-72395915D01*
X125889844Y-72198983D01*
X125765742Y-72015299D01*
X125616250Y-71839288D01*
X125557850Y-71779027D01*
X125376596Y-71614016D01*
X125190263Y-71477495D01*
X124995991Y-71367979D01*
X124790921Y-71283981D01*
X124572190Y-71224015D01*
X124444970Y-71200730D01*
X124233637Y-71180005D01*
X124022742Y-71183473D01*
G36*
X120900508Y-72404971D02*
X120698250Y-72431618D01*
X120518164Y-72476398D01*
X120359089Y-72539669D01*
X120219862Y-72621787D01*
X120116535Y-72706409D01*
X120024884Y-72805108D01*
X119953334Y-72911313D01*
X119896214Y-73034092D01*
X119875612Y-73091433D01*
X119858492Y-73143331D01*
X119843578Y-73191455D01*
X119830698Y-73238246D01*
X119819680Y-73286144D01*
X119810350Y-73337587D01*
X119802537Y-73395016D01*
X119796068Y-73460870D01*
X119790770Y-73537589D01*
X119786470Y-73627612D01*
X119782997Y-73733380D01*
X119780177Y-73857331D01*
X119777838Y-74001906D01*
X119775807Y-74169544D01*
X119773912Y-74362685D01*
X119772245Y-74552757D01*
X119770479Y-74760703D01*
X119768874Y-74940797D01*
X119767263Y-75095244D01*
X119765480Y-75226249D01*
X119763357Y-75336017D01*
X119760728Y-75426753D01*
X119757424Y-75500662D01*
X119753281Y-75559950D01*
X119748130Y-75606822D01*
X119741804Y-75643483D01*
X119734137Y-75672137D01*
X119724962Y-75694990D01*
X119714112Y-75714248D01*
X119701419Y-75732115D01*
X119686717Y-75750796D01*
X119680991Y-75758029D01*
X119659930Y-75788436D01*
X119650562Y-75809142D01*
X119650532Y-75809754D01*
X119665014Y-75812682D01*
X119706267Y-75815378D01*
X119771003Y-75817769D01*
X119855936Y-75819778D01*
X119957777Y-75821329D01*
X120073240Y-75822346D01*
X120199036Y-75822753D01*
X120213557Y-75822757D01*
X120776581Y-75822757D01*
X120780924Y-75694858D01*
X120785266Y-75566958D01*
X120867929Y-75634841D01*
X120997510Y-75724726D01*
X121143828Y-75797541D01*
X121258944Y-75837787D01*
X121350902Y-75857342D01*
X121461874Y-75870647D01*
X121581385Y-75877285D01*
X121698963Y-75876843D01*
X121804133Y-75868905D01*
X121852367Y-75861298D01*
X122038782Y-75810890D01*
X122207100Y-75737874D01*
X122356104Y-75643337D01*
X122484576Y-75528365D01*
X122591301Y-75394046D01*
X122675060Y-75241467D01*
X122734140Y-75073594D01*
X122750562Y-74998261D01*
X122760693Y-74915451D01*
X122765524Y-74815815D01*
X122766183Y-74770686D01*
X122766096Y-74766446D01*
X121754344Y-74766446D01*
X121741971Y-74866367D01*
X121704444Y-74951343D01*
X121639915Y-75025417D01*
X121633182Y-75031292D01*
X121568885Y-75077659D01*
X121500042Y-75107724D01*
X121419186Y-75123595D01*
X121318851Y-75127380D01*
X121294743Y-75126840D01*
X121223091Y-75123309D01*
X121169797Y-75116098D01*
X121123177Y-75102566D01*
X121071548Y-75080072D01*
X121057380Y-75073178D01*
X120976632Y-75025478D01*
X120914299Y-74968719D01*
X120897341Y-74948431D01*
X120837870Y-74873194D01*
X120837870Y-74612413D01*
X120838583Y-74507706D01*
X120840833Y-74430552D01*
X120844785Y-74378478D01*
X120850604Y-74349009D01*
X120856042Y-74340400D01*
X120877245Y-74336188D01*
X120922222Y-74332697D01*
X120984695Y-74330256D01*
X121058381Y-74329194D01*
X121070214Y-74329174D01*
X121231010Y-74336169D01*
X121367701Y-74357693D01*
X121482935Y-74394569D01*
X121579359Y-74447620D01*
X121652491Y-74510127D01*
X121711799Y-74587195D01*
X121744715Y-74671135D01*
X121754344Y-74766446D01*
X122766096Y-74766446D01*
X122763609Y-74645864D01*
X122752499Y-74540821D01*
X122730871Y-74445998D01*
X122696739Y-74351837D01*
X122664791Y-74282111D01*
X122586748Y-74155236D01*
X122482773Y-74038042D01*
X122356030Y-73932662D01*
X122209682Y-73841228D01*
X122046894Y-73765874D01*
X121870829Y-73708732D01*
X121784734Y-73688842D01*
X121603426Y-73659413D01*
X121405792Y-73639997D01*
X121204150Y-73631502D01*
X121035654Y-73633675D01*
X120820125Y-73642700D01*
X120830003Y-73564178D01*
X120855689Y-73432170D01*
X120897139Y-73324702D01*
X120955499Y-73240952D01*
X121031917Y-73180095D01*
X121127539Y-73141308D01*
X121243510Y-73123766D01*
X121380979Y-73126647D01*
X121431538Y-73131974D01*
X121619514Y-73165482D01*
X121801662Y-73220113D01*
X121927515Y-73270706D01*
X121987639Y-73296501D01*
X122038806Y-73317231D01*
X122073889Y-73330071D01*
X122084125Y-73332797D01*
X122097098Y-73320710D01*
X122119357Y-73282142D01*
X122151110Y-73216655D01*
X122192568Y-73123816D01*
X122243939Y-73003187D01*
X122252723Y-72982165D01*
X122292739Y-72885885D01*
X122328659Y-72798885D01*
X122358931Y-72724969D01*
X122382004Y-72667941D01*
X122396326Y-72631607D01*
X122400462Y-72619839D01*
X122387150Y-72613509D01*
X122352167Y-72606483D01*
X122314526Y-72601585D01*
X122274377Y-72595252D01*
X122210754Y-72582677D01*
X122129303Y-72565092D01*
X122035664Y-72543730D01*
X121935480Y-72519825D01*
X121897455Y-72510475D01*
X121757581Y-72476408D01*
X121640869Y-72449698D01*
X121541565Y-72429491D01*
X121453915Y-72414934D01*
X121372164Y-72405173D01*
X121290559Y-72399356D01*
X121203344Y-72396630D01*
X121126102Y-72396100D01*
X120900508Y-72404971D01*
X120900508Y-72404971D01*
G37*
X120900508Y-72404971D02*
X120698250Y-72431618D01*
X120518164Y-72476398D01*
X120359089Y-72539669D01*
X120219862Y-72621787D01*
X120116535Y-72706409D01*
X120024884Y-72805108D01*
X119953334Y-72911313D01*
X119896214Y-73034092D01*
X119875612Y-73091433D01*
X119858492Y-73143331D01*
X119843578Y-73191455D01*
X119830698Y-73238246D01*
X119819680Y-73286144D01*
X119810350Y-73337587D01*
X119802537Y-73395016D01*
X119796068Y-73460870D01*
X119790770Y-73537589D01*
X119786470Y-73627612D01*
X119782997Y-73733380D01*
X119780177Y-73857331D01*
X119777838Y-74001906D01*
X119775807Y-74169544D01*
X119773912Y-74362685D01*
X119772245Y-74552757D01*
X119770479Y-74760703D01*
X119768874Y-74940797D01*
X119767263Y-75095244D01*
X119765480Y-75226249D01*
X119763357Y-75336017D01*
X119760728Y-75426753D01*
X119757424Y-75500662D01*
X119753281Y-75559950D01*
X119748130Y-75606822D01*
X119741804Y-75643483D01*
X119734137Y-75672137D01*
X119724962Y-75694990D01*
X119714112Y-75714248D01*
X119701419Y-75732115D01*
X119686717Y-75750796D01*
X119680991Y-75758029D01*
X119659930Y-75788436D01*
X119650562Y-75809142D01*
X119650532Y-75809754D01*
X119665014Y-75812682D01*
X119706267Y-75815378D01*
X119771003Y-75817769D01*
X119855936Y-75819778D01*
X119957777Y-75821329D01*
X120073240Y-75822346D01*
X120199036Y-75822753D01*
X120213557Y-75822757D01*
X120776581Y-75822757D01*
X120780924Y-75694858D01*
X120785266Y-75566958D01*
X120867929Y-75634841D01*
X120997510Y-75724726D01*
X121143828Y-75797541D01*
X121258944Y-75837787D01*
X121350902Y-75857342D01*
X121461874Y-75870647D01*
X121581385Y-75877285D01*
X121698963Y-75876843D01*
X121804133Y-75868905D01*
X121852367Y-75861298D01*
X122038782Y-75810890D01*
X122207100Y-75737874D01*
X122356104Y-75643337D01*
X122484576Y-75528365D01*
X122591301Y-75394046D01*
X122675060Y-75241467D01*
X122734140Y-75073594D01*
X122750562Y-74998261D01*
X122760693Y-74915451D01*
X122765524Y-74815815D01*
X122766183Y-74770686D01*
X122766096Y-74766446D01*
X121754344Y-74766446D01*
X121741971Y-74866367D01*
X121704444Y-74951343D01*
X121639915Y-75025417D01*
X121633182Y-75031292D01*
X121568885Y-75077659D01*
X121500042Y-75107724D01*
X121419186Y-75123595D01*
X121318851Y-75127380D01*
X121294743Y-75126840D01*
X121223091Y-75123309D01*
X121169797Y-75116098D01*
X121123177Y-75102566D01*
X121071548Y-75080072D01*
X121057380Y-75073178D01*
X120976632Y-75025478D01*
X120914299Y-74968719D01*
X120897341Y-74948431D01*
X120837870Y-74873194D01*
X120837870Y-74612413D01*
X120838583Y-74507706D01*
X120840833Y-74430552D01*
X120844785Y-74378478D01*
X120850604Y-74349009D01*
X120856042Y-74340400D01*
X120877245Y-74336188D01*
X120922222Y-74332697D01*
X120984695Y-74330256D01*
X121058381Y-74329194D01*
X121070214Y-74329174D01*
X121231010Y-74336169D01*
X121367701Y-74357693D01*
X121482935Y-74394569D01*
X121579359Y-74447620D01*
X121652491Y-74510127D01*
X121711799Y-74587195D01*
X121744715Y-74671135D01*
X121754344Y-74766446D01*
X122766096Y-74766446D01*
X122763609Y-74645864D01*
X122752499Y-74540821D01*
X122730871Y-74445998D01*
X122696739Y-74351837D01*
X122664791Y-74282111D01*
X122586748Y-74155236D01*
X122482773Y-74038042D01*
X122356030Y-73932662D01*
X122209682Y-73841228D01*
X122046894Y-73765874D01*
X121870829Y-73708732D01*
X121784734Y-73688842D01*
X121603426Y-73659413D01*
X121405792Y-73639997D01*
X121204150Y-73631502D01*
X121035654Y-73633675D01*
X120820125Y-73642700D01*
X120830003Y-73564178D01*
X120855689Y-73432170D01*
X120897139Y-73324702D01*
X120955499Y-73240952D01*
X121031917Y-73180095D01*
X121127539Y-73141308D01*
X121243510Y-73123766D01*
X121380979Y-73126647D01*
X121431538Y-73131974D01*
X121619514Y-73165482D01*
X121801662Y-73220113D01*
X121927515Y-73270706D01*
X121987639Y-73296501D01*
X122038806Y-73317231D01*
X122073889Y-73330071D01*
X122084125Y-73332797D01*
X122097098Y-73320710D01*
X122119357Y-73282142D01*
X122151110Y-73216655D01*
X122192568Y-73123816D01*
X122243939Y-73003187D01*
X122252723Y-72982165D01*
X122292739Y-72885885D01*
X122328659Y-72798885D01*
X122358931Y-72724969D01*
X122382004Y-72667941D01*
X122396326Y-72631607D01*
X122400462Y-72619839D01*
X122387150Y-72613509D01*
X122352167Y-72606483D01*
X122314526Y-72601585D01*
X122274377Y-72595252D01*
X122210754Y-72582677D01*
X122129303Y-72565092D01*
X122035664Y-72543730D01*
X121935480Y-72519825D01*
X121897455Y-72510475D01*
X121757581Y-72476408D01*
X121640869Y-72449698D01*
X121541565Y-72429491D01*
X121453915Y-72414934D01*
X121372164Y-72405173D01*
X121290559Y-72399356D01*
X121203344Y-72396630D01*
X121126102Y-72396100D01*
X120900508Y-72404971D01*
G36*
X116223526Y-73211367D02*
X116223500Y-73523461D01*
X116223465Y-73806962D01*
X116223369Y-74063336D01*
X116223159Y-74294048D01*
X116222784Y-74500565D01*
X116222191Y-74684351D01*
X116221330Y-74846874D01*
X116220147Y-74989598D01*
X116218592Y-75113990D01*
X116216611Y-75221515D01*
X116214154Y-75313640D01*
X116211167Y-75391830D01*
X116207600Y-75457551D01*
X116203401Y-75512269D01*
X116198516Y-75557449D01*
X116192896Y-75594558D01*
X116186487Y-75625062D01*
X116179237Y-75650426D01*
X116171095Y-75672115D01*
X116162010Y-75691597D01*
X116151927Y-75710337D01*
X116140797Y-75729800D01*
X116133883Y-75741924D01*
X116088264Y-75822757D01*
X117230769Y-75822757D01*
X117230769Y-75695006D01*
X117231743Y-75637273D01*
X117234342Y-75593119D01*
X117238082Y-75569446D01*
X117239735Y-75567254D01*
X117254942Y-75576419D01*
X117285183Y-75600175D01*
X117315405Y-75625969D01*
X117388076Y-75680201D01*
X117480577Y-75734792D01*
X117583161Y-75784725D01*
X117686081Y-75824987D01*
X117727157Y-75837833D01*
X117818351Y-75857225D01*
X117928657Y-75870487D01*
X118047671Y-75877202D01*
X118164995Y-75876953D01*
X118270227Y-75869324D01*
X118320414Y-75861592D01*
X118504270Y-75810918D01*
X118673755Y-75734067D01*
X118827954Y-75631737D01*
X118965956Y-75504628D01*
X119086849Y-75353440D01*
X119175786Y-75205927D01*
X119248835Y-75050483D01*
X119304752Y-74891586D01*
X119344689Y-74723843D01*
X119369793Y-74541861D01*
X119381214Y-74340245D01*
X119382181Y-74237136D01*
X119379393Y-74161545D01*
X118275540Y-74161545D01*
X118275263Y-74285452D01*
X118271385Y-74402199D01*
X118263846Y-74504820D01*
X118252589Y-74586349D01*
X118249149Y-74602779D01*
X118206811Y-74745612D01*
X118151348Y-74861473D01*
X118082297Y-74950654D01*
X117999196Y-75013444D01*
X117901582Y-75050137D01*
X117788990Y-75061021D01*
X117660959Y-75046390D01*
X117576449Y-75025458D01*
X117511022Y-75001241D01*
X117438957Y-74966828D01*
X117384822Y-74935272D01*
X117290887Y-74873540D01*
X117290887Y-73342220D01*
X117380631Y-73284216D01*
X117485177Y-73229733D01*
X117597258Y-73194251D01*
X117710589Y-73178376D01*
X117818883Y-73182712D01*
X117915855Y-73207865D01*
X117958397Y-73228593D01*
X118035515Y-73285838D01*
X118100695Y-73361422D01*
X118155487Y-73458108D01*
X118201439Y-73578658D01*
X118240103Y-73725833D01*
X118241809Y-73733645D01*
X118255350Y-73816527D01*
X118265524Y-73920116D01*
X118272274Y-74037444D01*
X118275540Y-74161545D01*
X119379393Y-74161545D01*
X119371728Y-73953801D01*
X119342512Y-73693073D01*
X119294604Y-73455123D01*
X119228072Y-73240124D01*
X119142985Y-73048250D01*
X119039413Y-72879674D01*
X118917425Y-72734568D01*
X118777089Y-72613105D01*
X118716959Y-72571898D01*
X118582559Y-72497145D01*
X118445043Y-72444409D01*
X118298476Y-72412243D01*
X118136927Y-72399203D01*
X118013769Y-72400595D01*
X117841152Y-72415195D01*
X117691249Y-72444239D01*
X117559722Y-72489063D01*
X117442235Y-72551000D01*
X117377177Y-72596549D01*
X117338080Y-72625725D01*
X117309202Y-72645656D01*
X117298272Y-72651515D01*
X117296122Y-72637097D01*
X117294404Y-72596287D01*
X117293100Y-72532747D01*
X117292195Y-72450140D01*
X117291672Y-72352130D01*
X117291513Y-72242379D01*
X117291702Y-72124551D01*
X117292222Y-72002307D01*
X117293056Y-71879313D01*
X117294188Y-71759230D01*
X117295601Y-71645721D01*
X117297277Y-71542450D01*
X117299200Y-71453080D01*
X117301354Y-71381273D01*
X117303720Y-71330693D01*
X117304375Y-71321396D01*
X117314463Y-71227647D01*
X117329855Y-71154224D01*
X117353472Y-71091489D01*
X117388233Y-71029802D01*
X117396577Y-71017047D01*
X117429105Y-70968201D01*
X116223787Y-70968201D01*
X116223526Y-73211367D01*
X116223526Y-73211367D01*
G37*
X116223526Y-73211367D02*
X116223500Y-73523461D01*
X116223465Y-73806962D01*
X116223369Y-74063336D01*
X116223159Y-74294048D01*
X116222784Y-74500565D01*
X116222191Y-74684351D01*
X116221330Y-74846874D01*
X116220147Y-74989598D01*
X116218592Y-75113990D01*
X116216611Y-75221515D01*
X116214154Y-75313640D01*
X116211167Y-75391830D01*
X116207600Y-75457551D01*
X116203401Y-75512269D01*
X116198516Y-75557449D01*
X116192896Y-75594558D01*
X116186487Y-75625062D01*
X116179237Y-75650426D01*
X116171095Y-75672115D01*
X116162010Y-75691597D01*
X116151927Y-75710337D01*
X116140797Y-75729800D01*
X116133883Y-75741924D01*
X116088264Y-75822757D01*
X117230769Y-75822757D01*
X117230769Y-75695006D01*
X117231743Y-75637273D01*
X117234342Y-75593119D01*
X117238082Y-75569446D01*
X117239735Y-75567254D01*
X117254942Y-75576419D01*
X117285183Y-75600175D01*
X117315405Y-75625969D01*
X117388076Y-75680201D01*
X117480577Y-75734792D01*
X117583161Y-75784725D01*
X117686081Y-75824987D01*
X117727157Y-75837833D01*
X117818351Y-75857225D01*
X117928657Y-75870487D01*
X118047671Y-75877202D01*
X118164995Y-75876953D01*
X118270227Y-75869324D01*
X118320414Y-75861592D01*
X118504270Y-75810918D01*
X118673755Y-75734067D01*
X118827954Y-75631737D01*
X118965956Y-75504628D01*
X119086849Y-75353440D01*
X119175786Y-75205927D01*
X119248835Y-75050483D01*
X119304752Y-74891586D01*
X119344689Y-74723843D01*
X119369793Y-74541861D01*
X119381214Y-74340245D01*
X119382181Y-74237136D01*
X119379393Y-74161545D01*
X118275540Y-74161545D01*
X118275263Y-74285452D01*
X118271385Y-74402199D01*
X118263846Y-74504820D01*
X118252589Y-74586349D01*
X118249149Y-74602779D01*
X118206811Y-74745612D01*
X118151348Y-74861473D01*
X118082297Y-74950654D01*
X117999196Y-75013444D01*
X117901582Y-75050137D01*
X117788990Y-75061021D01*
X117660959Y-75046390D01*
X117576449Y-75025458D01*
X117511022Y-75001241D01*
X117438957Y-74966828D01*
X117384822Y-74935272D01*
X117290887Y-74873540D01*
X117290887Y-73342220D01*
X117380631Y-73284216D01*
X117485177Y-73229733D01*
X117597258Y-73194251D01*
X117710589Y-73178376D01*
X117818883Y-73182712D01*
X117915855Y-73207865D01*
X117958397Y-73228593D01*
X118035515Y-73285838D01*
X118100695Y-73361422D01*
X118155487Y-73458108D01*
X118201439Y-73578658D01*
X118240103Y-73725833D01*
X118241809Y-73733645D01*
X118255350Y-73816527D01*
X118265524Y-73920116D01*
X118272274Y-74037444D01*
X118275540Y-74161545D01*
X119379393Y-74161545D01*
X119371728Y-73953801D01*
X119342512Y-73693073D01*
X119294604Y-73455123D01*
X119228072Y-73240124D01*
X119142985Y-73048250D01*
X119039413Y-72879674D01*
X118917425Y-72734568D01*
X118777089Y-72613105D01*
X118716959Y-72571898D01*
X118582559Y-72497145D01*
X118445043Y-72444409D01*
X118298476Y-72412243D01*
X118136927Y-72399203D01*
X118013769Y-72400595D01*
X117841152Y-72415195D01*
X117691249Y-72444239D01*
X117559722Y-72489063D01*
X117442235Y-72551000D01*
X117377177Y-72596549D01*
X117338080Y-72625725D01*
X117309202Y-72645656D01*
X117298272Y-72651515D01*
X117296122Y-72637097D01*
X117294404Y-72596287D01*
X117293100Y-72532747D01*
X117292195Y-72450140D01*
X117291672Y-72352130D01*
X117291513Y-72242379D01*
X117291702Y-72124551D01*
X117292222Y-72002307D01*
X117293056Y-71879313D01*
X117294188Y-71759230D01*
X117295601Y-71645721D01*
X117297277Y-71542450D01*
X117299200Y-71453080D01*
X117301354Y-71381273D01*
X117303720Y-71330693D01*
X117304375Y-71321396D01*
X117314463Y-71227647D01*
X117329855Y-71154224D01*
X117353472Y-71091489D01*
X117388233Y-71029802D01*
X117396577Y-71017047D01*
X117429105Y-70968201D01*
X116223787Y-70968201D01*
X116223526Y-73211367D01*
G36*
X127486240Y-69955293D02*
X127358063Y-69987562D01*
X127242789Y-70044587D01*
X127143189Y-70124172D01*
X127062035Y-70224125D01*
X127002098Y-70342251D01*
X126967134Y-70470475D01*
X126959344Y-70599969D01*
X126979120Y-70724929D01*
X127023988Y-70841899D01*
X127091472Y-70947422D01*
X127179098Y-71038042D01*
X127284393Y-71110303D01*
X127404882Y-71160748D01*
X127473135Y-71177288D01*
X127532378Y-71187302D01*
X127578046Y-71191259D01*
X127621928Y-71188830D01*
X127675814Y-71179684D01*
X127719877Y-71170398D01*
X127844248Y-71128447D01*
X127955647Y-71060383D01*
X128051565Y-70968269D01*
X128129496Y-70854170D01*
X128148067Y-70817905D01*
X128169951Y-70769487D01*
X128183675Y-70728828D01*
X128191085Y-70686049D01*
X128194027Y-70631272D01*
X128194397Y-70569917D01*
X128188957Y-70457606D01*
X128171096Y-70365371D01*
X128137559Y-70284658D01*
X128085090Y-70206914D01*
X128033769Y-70147982D01*
X127938054Y-70060355D01*
X127838078Y-69999868D01*
X127727907Y-69963653D01*
X127624549Y-69949973D01*
X127486240Y-69955293D01*
X127486240Y-69955293D01*
G37*
X127486240Y-69955293D02*
X127358063Y-69987562D01*
X127242789Y-70044587D01*
X127143189Y-70124172D01*
X127062035Y-70224125D01*
X127002098Y-70342251D01*
X126967134Y-70470475D01*
X126959344Y-70599969D01*
X126979120Y-70724929D01*
X127023988Y-70841899D01*
X127091472Y-70947422D01*
X127179098Y-71038042D01*
X127284393Y-71110303D01*
X127404882Y-71160748D01*
X127473135Y-71177288D01*
X127532378Y-71187302D01*
X127578046Y-71191259D01*
X127621928Y-71188830D01*
X127675814Y-71179684D01*
X127719877Y-71170398D01*
X127844248Y-71128447D01*
X127955647Y-71060383D01*
X128051565Y-70968269D01*
X128129496Y-70854170D01*
X128148067Y-70817905D01*
X128169951Y-70769487D01*
X128183675Y-70728828D01*
X128191085Y-70686049D01*
X128194027Y-70631272D01*
X128194397Y-70569917D01*
X128188957Y-70457606D01*
X128171096Y-70365371D01*
X128137559Y-70284658D01*
X128085090Y-70206914D01*
X128033769Y-70147982D01*
X127938054Y-70060355D01*
X127838078Y-69999868D01*
X127727907Y-69963653D01*
X127624549Y-69949973D01*
X127486240Y-69955293D01*
G04 #@! TO.C,G\002A\002A\002A*
G36*
X121898024Y-87951019D02*
X121876412Y-87959759D01*
X121759115Y-88043468D01*
X121683889Y-88168443D01*
X121651271Y-88316437D01*
X121661798Y-88469203D01*
X121716009Y-88608496D01*
X121814441Y-88716067D01*
X121853415Y-88739810D01*
X121979127Y-88778909D01*
X122127040Y-88788868D01*
X122265329Y-88770030D01*
X122347562Y-88734511D01*
X122464451Y-88613535D01*
X122525252Y-88465642D01*
X122531549Y-88307728D01*
X122484928Y-88156689D01*
X122386973Y-88029421D01*
X122274623Y-87956925D01*
X122146835Y-87912666D01*
X122032571Y-87910617D01*
X121898024Y-87951019D01*
X121898024Y-87951019D01*
G37*
X121898024Y-87951019D02*
X121876412Y-87959759D01*
X121759115Y-88043468D01*
X121683889Y-88168443D01*
X121651271Y-88316437D01*
X121661798Y-88469203D01*
X121716009Y-88608496D01*
X121814441Y-88716067D01*
X121853415Y-88739810D01*
X121979127Y-88778909D01*
X122127040Y-88788868D01*
X122265329Y-88770030D01*
X122347562Y-88734511D01*
X122464451Y-88613535D01*
X122525252Y-88465642D01*
X122531549Y-88307728D01*
X122484928Y-88156689D01*
X122386973Y-88029421D01*
X122274623Y-87956925D01*
X122146835Y-87912666D01*
X122032571Y-87910617D01*
X121898024Y-87951019D01*
G36*
X121702285Y-92710000D02*
X122464285Y-92710000D01*
X122464285Y-89335428D01*
X121702285Y-89335428D01*
X121702285Y-92710000D01*
X121702285Y-92710000D01*
G37*
X121702285Y-92710000D02*
X122464285Y-92710000D01*
X122464285Y-89335428D01*
X121702285Y-89335428D01*
X121702285Y-92710000D01*
G36*
X123143082Y-89276385D02*
X123025174Y-89290572D01*
X122940276Y-89304285D01*
X122910036Y-89313011D01*
X122910584Y-89352124D01*
X122923016Y-89446617D01*
X122945039Y-89580695D01*
X122964027Y-89684855D01*
X122999863Y-89858434D01*
X123030542Y-89968190D01*
X123058904Y-90022427D01*
X123082529Y-90031276D01*
X123337006Y-89997527D01*
X123553142Y-90021532D01*
X123728130Y-90102407D01*
X123859165Y-90239265D01*
X123886203Y-90284872D01*
X123909686Y-90331062D01*
X123928427Y-90377676D01*
X123943054Y-90433289D01*
X123954200Y-90506471D01*
X123962493Y-90605798D01*
X123968564Y-90739841D01*
X123973044Y-90917175D01*
X123976562Y-91146371D01*
X123979749Y-91436003D01*
X123981124Y-91576071D01*
X123992106Y-92710000D01*
X124750285Y-92710000D01*
X124750285Y-89332705D01*
X124415057Y-89343138D01*
X124256481Y-89349496D01*
X124156409Y-89358833D01*
X124100774Y-89374514D01*
X124075509Y-89399906D01*
X124068218Y-89426143D01*
X124047876Y-89522288D01*
X124017946Y-89558618D01*
X123964074Y-89538276D01*
X123876269Y-89468142D01*
X123675303Y-89343353D01*
X123435686Y-89278540D01*
X123160950Y-89274627D01*
X123143082Y-89276385D01*
X123143082Y-89276385D01*
G37*
X123143082Y-89276385D02*
X123025174Y-89290572D01*
X122940276Y-89304285D01*
X122910036Y-89313011D01*
X122910584Y-89352124D01*
X122923016Y-89446617D01*
X122945039Y-89580695D01*
X122964027Y-89684855D01*
X122999863Y-89858434D01*
X123030542Y-89968190D01*
X123058904Y-90022427D01*
X123082529Y-90031276D01*
X123337006Y-89997527D01*
X123553142Y-90021532D01*
X123728130Y-90102407D01*
X123859165Y-90239265D01*
X123886203Y-90284872D01*
X123909686Y-90331062D01*
X123928427Y-90377676D01*
X123943054Y-90433289D01*
X123954200Y-90506471D01*
X123962493Y-90605798D01*
X123968564Y-90739841D01*
X123973044Y-90917175D01*
X123976562Y-91146371D01*
X123979749Y-91436003D01*
X123981124Y-91576071D01*
X123992106Y-92710000D01*
X124750285Y-92710000D01*
X124750285Y-89332705D01*
X124415057Y-89343138D01*
X124256481Y-89349496D01*
X124156409Y-89358833D01*
X124100774Y-89374514D01*
X124075509Y-89399906D01*
X124068218Y-89426143D01*
X124047876Y-89522288D01*
X124017946Y-89558618D01*
X123964074Y-89538276D01*
X123876269Y-89468142D01*
X123675303Y-89343353D01*
X123435686Y-89278540D01*
X123160950Y-89274627D01*
X123143082Y-89276385D01*
G36*
X111941854Y-89271176D02*
X111662268Y-89355276D01*
X111413262Y-89483470D01*
X111224512Y-89637582D01*
X111139058Y-89738865D01*
X111051059Y-89863314D01*
X110972293Y-89991595D01*
X110914537Y-90104375D01*
X110889567Y-90182320D01*
X110889327Y-90187854D01*
X110922096Y-90212351D01*
X111010124Y-90248605D01*
X111138242Y-90290856D01*
X111230183Y-90317273D01*
X111570854Y-90410118D01*
X111645110Y-90257278D01*
X111766179Y-90077223D01*
X111926840Y-89957189D01*
X112130544Y-89894911D01*
X112210159Y-89886495D01*
X112434422Y-89894134D01*
X112607581Y-89948002D01*
X112726708Y-90046990D01*
X112755470Y-90092812D01*
X112790258Y-90189320D01*
X112784157Y-90274837D01*
X112731863Y-90353518D01*
X112628071Y-90429516D01*
X112467475Y-90506987D01*
X112244772Y-90590085D01*
X112032513Y-90659000D01*
X111690044Y-90775659D01*
X111414351Y-90893932D01*
X111199735Y-91019097D01*
X111040492Y-91156434D01*
X110930921Y-91311223D01*
X110865321Y-91488743D01*
X110837991Y-91694274D01*
X110836396Y-91766571D01*
X110853546Y-91993911D01*
X110911637Y-92179053D01*
X111020628Y-92343836D01*
X111165757Y-92488641D01*
X111365939Y-92622278D01*
X111614972Y-92721041D01*
X111896099Y-92781075D01*
X112192565Y-92798528D01*
X112429571Y-92779236D01*
X112760703Y-92703580D01*
X113039359Y-92581763D01*
X113271293Y-92410941D01*
X113360971Y-92318445D01*
X113468070Y-92168493D01*
X113567287Y-91981743D01*
X113641167Y-91793333D01*
X113662908Y-91710673D01*
X113685569Y-91600347D01*
X113379885Y-91520173D01*
X113237573Y-91483916D01*
X113121023Y-91456198D01*
X113048814Y-91441359D01*
X113036772Y-91440000D01*
X113003168Y-91471178D01*
X112965822Y-91548757D01*
X112956449Y-91576071D01*
X112860189Y-91800457D01*
X112728583Y-91965177D01*
X112555672Y-92074383D01*
X112335498Y-92132228D01*
X112141000Y-92144410D01*
X111897540Y-92126684D01*
X111717249Y-92073284D01*
X111600139Y-91984218D01*
X111546224Y-91859493D01*
X111542286Y-91806950D01*
X111556095Y-91703597D01*
X111602284Y-91612649D01*
X111687994Y-91529216D01*
X111820366Y-91448411D01*
X112006541Y-91365347D01*
X112253659Y-91275137D01*
X112381419Y-91232611D01*
X112703740Y-91119502D01*
X112960595Y-91009299D01*
X113158586Y-90896349D01*
X113304312Y-90775004D01*
X113404373Y-90639614D01*
X113465370Y-90484527D01*
X113493903Y-90304095D01*
X113495550Y-90278880D01*
X113498602Y-90121587D01*
X113483196Y-90003864D01*
X113444297Y-89893962D01*
X113429493Y-89862294D01*
X113282751Y-89638614D01*
X113082146Y-89462967D01*
X112827247Y-89335063D01*
X112523525Y-89255617D01*
X112234710Y-89236260D01*
X111941854Y-89271176D01*
X111941854Y-89271176D01*
G37*
X111941854Y-89271176D02*
X111662268Y-89355276D01*
X111413262Y-89483470D01*
X111224512Y-89637582D01*
X111139058Y-89738865D01*
X111051059Y-89863314D01*
X110972293Y-89991595D01*
X110914537Y-90104375D01*
X110889567Y-90182320D01*
X110889327Y-90187854D01*
X110922096Y-90212351D01*
X111010124Y-90248605D01*
X111138242Y-90290856D01*
X111230183Y-90317273D01*
X111570854Y-90410118D01*
X111645110Y-90257278D01*
X111766179Y-90077223D01*
X111926840Y-89957189D01*
X112130544Y-89894911D01*
X112210159Y-89886495D01*
X112434422Y-89894134D01*
X112607581Y-89948002D01*
X112726708Y-90046990D01*
X112755470Y-90092812D01*
X112790258Y-90189320D01*
X112784157Y-90274837D01*
X112731863Y-90353518D01*
X112628071Y-90429516D01*
X112467475Y-90506987D01*
X112244772Y-90590085D01*
X112032513Y-90659000D01*
X111690044Y-90775659D01*
X111414351Y-90893932D01*
X111199735Y-91019097D01*
X111040492Y-91156434D01*
X110930921Y-91311223D01*
X110865321Y-91488743D01*
X110837991Y-91694274D01*
X110836396Y-91766571D01*
X110853546Y-91993911D01*
X110911637Y-92179053D01*
X111020628Y-92343836D01*
X111165757Y-92488641D01*
X111365939Y-92622278D01*
X111614972Y-92721041D01*
X111896099Y-92781075D01*
X112192565Y-92798528D01*
X112429571Y-92779236D01*
X112760703Y-92703580D01*
X113039359Y-92581763D01*
X113271293Y-92410941D01*
X113360971Y-92318445D01*
X113468070Y-92168493D01*
X113567287Y-91981743D01*
X113641167Y-91793333D01*
X113662908Y-91710673D01*
X113685569Y-91600347D01*
X113379885Y-91520173D01*
X113237573Y-91483916D01*
X113121023Y-91456198D01*
X113048814Y-91441359D01*
X113036772Y-91440000D01*
X113003168Y-91471178D01*
X112965822Y-91548757D01*
X112956449Y-91576071D01*
X112860189Y-91800457D01*
X112728583Y-91965177D01*
X112555672Y-92074383D01*
X112335498Y-92132228D01*
X112141000Y-92144410D01*
X111897540Y-92126684D01*
X111717249Y-92073284D01*
X111600139Y-91984218D01*
X111546224Y-91859493D01*
X111542286Y-91806950D01*
X111556095Y-91703597D01*
X111602284Y-91612649D01*
X111687994Y-91529216D01*
X111820366Y-91448411D01*
X112006541Y-91365347D01*
X112253659Y-91275137D01*
X112381419Y-91232611D01*
X112703740Y-91119502D01*
X112960595Y-91009299D01*
X113158586Y-90896349D01*
X113304312Y-90775004D01*
X113404373Y-90639614D01*
X113465370Y-90484527D01*
X113493903Y-90304095D01*
X113495550Y-90278880D01*
X113498602Y-90121587D01*
X113483196Y-90003864D01*
X113444297Y-89893962D01*
X113429493Y-89862294D01*
X113282751Y-89638614D01*
X113082146Y-89462967D01*
X112827247Y-89335063D01*
X112523525Y-89255617D01*
X112234710Y-89236260D01*
X111941854Y-89271176D01*
G36*
X126449658Y-89265673D02*
X126167498Y-89351279D01*
X125909989Y-89487430D01*
X125687891Y-89673082D01*
X125543275Y-89856024D01*
X125475283Y-89973678D01*
X125410309Y-90107111D01*
X125355255Y-90238947D01*
X125317022Y-90351812D01*
X125302512Y-90428330D01*
X125307666Y-90449190D01*
X125346559Y-90461005D01*
X125440728Y-90482336D01*
X125574056Y-90509664D01*
X125666627Y-90527567D01*
X126012740Y-90593096D01*
X126061337Y-90445845D01*
X126161777Y-90246826D01*
X126309282Y-90092072D01*
X126490990Y-89984916D01*
X126694039Y-89928694D01*
X126905564Y-89926739D01*
X127112705Y-89982388D01*
X127302597Y-90098975D01*
X127324802Y-90118289D01*
X127454367Y-90259034D01*
X127545187Y-90418604D01*
X127602033Y-90610979D01*
X127629674Y-90850139D01*
X127634231Y-91025280D01*
X127633217Y-91206185D01*
X127626966Y-91334853D01*
X127611897Y-91431600D01*
X127584426Y-91516740D01*
X127540970Y-91610589D01*
X127525688Y-91640731D01*
X127388536Y-91847560D01*
X127259490Y-91964737D01*
X127174264Y-92020170D01*
X127097909Y-92053140D01*
X127006676Y-92069393D01*
X126876817Y-92074672D01*
X126803724Y-92075000D01*
X126578000Y-92060063D01*
X126405202Y-92009642D01*
X126270921Y-91915320D01*
X126160748Y-91768680D01*
X126108048Y-91668636D01*
X126054936Y-91558556D01*
X126015386Y-91478100D01*
X125998813Y-91446220D01*
X125963314Y-91448262D01*
X125875480Y-91460746D01*
X125754234Y-91480366D01*
X125618497Y-91503813D01*
X125487192Y-91527779D01*
X125379242Y-91548956D01*
X125313567Y-91564037D01*
X125302975Y-91567865D01*
X125302230Y-91607888D01*
X125326531Y-91695145D01*
X125368801Y-91811797D01*
X125421964Y-91940002D01*
X125478943Y-92061921D01*
X125532661Y-92159712D01*
X125545612Y-92179556D01*
X125741116Y-92401819D01*
X125985196Y-92579357D01*
X126265908Y-92707493D01*
X126571309Y-92781552D01*
X126889455Y-92796856D01*
X127072571Y-92777391D01*
X127318828Y-92711204D01*
X127569715Y-92599778D01*
X127794755Y-92458005D01*
X127891374Y-92377297D01*
X128072403Y-92162309D01*
X128219096Y-91895663D01*
X128326751Y-91591943D01*
X128390664Y-91265737D01*
X128406133Y-90931632D01*
X128398272Y-90805000D01*
X128343542Y-90461077D01*
X128245328Y-90166201D01*
X128097516Y-89907205D01*
X127893991Y-89670926D01*
X127853626Y-89632271D01*
X127609609Y-89449527D01*
X127336444Y-89322537D01*
X127044891Y-89250259D01*
X126745709Y-89231652D01*
X126449658Y-89265673D01*
X126449658Y-89265673D01*
G37*
X126449658Y-89265673D02*
X126167498Y-89351279D01*
X125909989Y-89487430D01*
X125687891Y-89673082D01*
X125543275Y-89856024D01*
X125475283Y-89973678D01*
X125410309Y-90107111D01*
X125355255Y-90238947D01*
X125317022Y-90351812D01*
X125302512Y-90428330D01*
X125307666Y-90449190D01*
X125346559Y-90461005D01*
X125440728Y-90482336D01*
X125574056Y-90509664D01*
X125666627Y-90527567D01*
X126012740Y-90593096D01*
X126061337Y-90445845D01*
X126161777Y-90246826D01*
X126309282Y-90092072D01*
X126490990Y-89984916D01*
X126694039Y-89928694D01*
X126905564Y-89926739D01*
X127112705Y-89982388D01*
X127302597Y-90098975D01*
X127324802Y-90118289D01*
X127454367Y-90259034D01*
X127545187Y-90418604D01*
X127602033Y-90610979D01*
X127629674Y-90850139D01*
X127634231Y-91025280D01*
X127633217Y-91206185D01*
X127626966Y-91334853D01*
X127611897Y-91431600D01*
X127584426Y-91516740D01*
X127540970Y-91610589D01*
X127525688Y-91640731D01*
X127388536Y-91847560D01*
X127259490Y-91964737D01*
X127174264Y-92020170D01*
X127097909Y-92053140D01*
X127006676Y-92069393D01*
X126876817Y-92074672D01*
X126803724Y-92075000D01*
X126578000Y-92060063D01*
X126405202Y-92009642D01*
X126270921Y-91915320D01*
X126160748Y-91768680D01*
X126108048Y-91668636D01*
X126054936Y-91558556D01*
X126015386Y-91478100D01*
X125998813Y-91446220D01*
X125963314Y-91448262D01*
X125875480Y-91460746D01*
X125754234Y-91480366D01*
X125618497Y-91503813D01*
X125487192Y-91527779D01*
X125379242Y-91548956D01*
X125313567Y-91564037D01*
X125302975Y-91567865D01*
X125302230Y-91607888D01*
X125326531Y-91695145D01*
X125368801Y-91811797D01*
X125421964Y-91940002D01*
X125478943Y-92061921D01*
X125532661Y-92159712D01*
X125545612Y-92179556D01*
X125741116Y-92401819D01*
X125985196Y-92579357D01*
X126265908Y-92707493D01*
X126571309Y-92781552D01*
X126889455Y-92796856D01*
X127072571Y-92777391D01*
X127318828Y-92711204D01*
X127569715Y-92599778D01*
X127794755Y-92458005D01*
X127891374Y-92377297D01*
X128072403Y-92162309D01*
X128219096Y-91895663D01*
X128326751Y-91591943D01*
X128390664Y-91265737D01*
X128406133Y-90931632D01*
X128398272Y-90805000D01*
X128343542Y-90461077D01*
X128245328Y-90166201D01*
X128097516Y-89907205D01*
X127893991Y-89670926D01*
X127853626Y-89632271D01*
X127609609Y-89449527D01*
X127336444Y-89322537D01*
X127044891Y-89250259D01*
X126745709Y-89231652D01*
X126449658Y-89265673D01*
G36*
X130229983Y-88185257D02*
X130008073Y-88233421D01*
X129978437Y-88243168D01*
X129668728Y-88386968D01*
X129404248Y-88584319D01*
X129190347Y-88829590D01*
X129032373Y-89117153D01*
X128966491Y-89308254D01*
X128946033Y-89397273D01*
X128954691Y-89439961D01*
X128998539Y-89458805D01*
X129007699Y-89460793D01*
X129081618Y-89476431D01*
X129201207Y-89501948D01*
X129341189Y-89531949D01*
X129347591Y-89533325D01*
X129509156Y-89566896D01*
X129614727Y-89581858D01*
X129679241Y-89574952D01*
X129717633Y-89542923D01*
X129744839Y-89482514D01*
X129757850Y-89443872D01*
X129841607Y-89274983D01*
X129969904Y-89112975D01*
X130120628Y-88982914D01*
X130209260Y-88932153D01*
X130386061Y-88881254D01*
X130594991Y-88864923D01*
X130804432Y-88883044D01*
X130981607Y-88934973D01*
X131123249Y-89030440D01*
X131223344Y-89160135D01*
X131276126Y-89307564D01*
X131275824Y-89456231D01*
X131216670Y-89589641D01*
X131212470Y-89595100D01*
X131098677Y-89696762D01*
X130912886Y-89804122D01*
X130655429Y-89917007D01*
X130407098Y-90008091D01*
X129975491Y-90172775D01*
X129615017Y-90345972D01*
X129324662Y-90528353D01*
X129103413Y-90720587D01*
X128950257Y-90923343D01*
X128913266Y-90995344D01*
X128859424Y-91169917D01*
X128831534Y-91382967D01*
X128829553Y-91609079D01*
X128853436Y-91822835D01*
X128903140Y-91998818D01*
X128915032Y-92024940D01*
X129042415Y-92220945D01*
X129217419Y-92404971D01*
X129416089Y-92553059D01*
X129477057Y-92587066D01*
X129753247Y-92696245D01*
X130069371Y-92767421D01*
X130401414Y-92796899D01*
X130725360Y-92780983D01*
X130731757Y-92780155D01*
X131103294Y-92701332D01*
X131427310Y-92569354D01*
X131702176Y-92385504D01*
X131926262Y-92151064D01*
X132097941Y-91867318D01*
X132188034Y-91633692D01*
X132238549Y-91464123D01*
X132260791Y-91349879D01*
X132247898Y-91276943D01*
X132193004Y-91231297D01*
X132089244Y-91198924D01*
X131962071Y-91172288D01*
X131813511Y-91141942D01*
X131684879Y-91114582D01*
X131598758Y-91095043D01*
X131585677Y-91091723D01*
X131532772Y-91088632D01*
X131502463Y-91127397D01*
X131483373Y-91205775D01*
X131409069Y-91451185D01*
X131288262Y-91670713D01*
X131131109Y-91851568D01*
X130947768Y-91980961D01*
X130830069Y-92028386D01*
X130651882Y-92061788D01*
X130441841Y-92073103D01*
X130228968Y-92062987D01*
X130042285Y-92032096D01*
X129967389Y-92008893D01*
X129788178Y-91913885D01*
X129673312Y-91789415D01*
X129618646Y-91630023D01*
X129612571Y-91541284D01*
X129629357Y-91388862D01*
X129683868Y-91255320D01*
X129782334Y-91135448D01*
X129930985Y-91024036D01*
X130136053Y-90915873D01*
X130403768Y-90805749D01*
X130559069Y-90749715D01*
X130947589Y-90604738D01*
X131268803Y-90462318D01*
X131527630Y-90317934D01*
X131728988Y-90167065D01*
X131877797Y-90005189D01*
X131978976Y-89827784D01*
X132037443Y-89630330D01*
X132058117Y-89408305D01*
X132058257Y-89371714D01*
X132024041Y-89074986D01*
X131926773Y-88813184D01*
X131768359Y-88588872D01*
X131550704Y-88404617D01*
X131275715Y-88262986D01*
X131219017Y-88241769D01*
X131008727Y-88190207D01*
X130756399Y-88163621D01*
X130488121Y-88161980D01*
X130229983Y-88185257D01*
X130229983Y-88185257D01*
G37*
X130229983Y-88185257D02*
X130008073Y-88233421D01*
X129978437Y-88243168D01*
X129668728Y-88386968D01*
X129404248Y-88584319D01*
X129190347Y-88829590D01*
X129032373Y-89117153D01*
X128966491Y-89308254D01*
X128946033Y-89397273D01*
X128954691Y-89439961D01*
X128998539Y-89458805D01*
X129007699Y-89460793D01*
X129081618Y-89476431D01*
X129201207Y-89501948D01*
X129341189Y-89531949D01*
X129347591Y-89533325D01*
X129509156Y-89566896D01*
X129614727Y-89581858D01*
X129679241Y-89574952D01*
X129717633Y-89542923D01*
X129744839Y-89482514D01*
X129757850Y-89443872D01*
X129841607Y-89274983D01*
X129969904Y-89112975D01*
X130120628Y-88982914D01*
X130209260Y-88932153D01*
X130386061Y-88881254D01*
X130594991Y-88864923D01*
X130804432Y-88883044D01*
X130981607Y-88934973D01*
X131123249Y-89030440D01*
X131223344Y-89160135D01*
X131276126Y-89307564D01*
X131275824Y-89456231D01*
X131216670Y-89589641D01*
X131212470Y-89595100D01*
X131098677Y-89696762D01*
X130912886Y-89804122D01*
X130655429Y-89917007D01*
X130407098Y-90008091D01*
X129975491Y-90172775D01*
X129615017Y-90345972D01*
X129324662Y-90528353D01*
X129103413Y-90720587D01*
X128950257Y-90923343D01*
X128913266Y-90995344D01*
X128859424Y-91169917D01*
X128831534Y-91382967D01*
X128829553Y-91609079D01*
X128853436Y-91822835D01*
X128903140Y-91998818D01*
X128915032Y-92024940D01*
X129042415Y-92220945D01*
X129217419Y-92404971D01*
X129416089Y-92553059D01*
X129477057Y-92587066D01*
X129753247Y-92696245D01*
X130069371Y-92767421D01*
X130401414Y-92796899D01*
X130725360Y-92780983D01*
X130731757Y-92780155D01*
X131103294Y-92701332D01*
X131427310Y-92569354D01*
X131702176Y-92385504D01*
X131926262Y-92151064D01*
X132097941Y-91867318D01*
X132188034Y-91633692D01*
X132238549Y-91464123D01*
X132260791Y-91349879D01*
X132247898Y-91276943D01*
X132193004Y-91231297D01*
X132089244Y-91198924D01*
X131962071Y-91172288D01*
X131813511Y-91141942D01*
X131684879Y-91114582D01*
X131598758Y-91095043D01*
X131585677Y-91091723D01*
X131532772Y-91088632D01*
X131502463Y-91127397D01*
X131483373Y-91205775D01*
X131409069Y-91451185D01*
X131288262Y-91670713D01*
X131131109Y-91851568D01*
X130947768Y-91980961D01*
X130830069Y-92028386D01*
X130651882Y-92061788D01*
X130441841Y-92073103D01*
X130228968Y-92062987D01*
X130042285Y-92032096D01*
X129967389Y-92008893D01*
X129788178Y-91913885D01*
X129673312Y-91789415D01*
X129618646Y-91630023D01*
X129612571Y-91541284D01*
X129629357Y-91388862D01*
X129683868Y-91255320D01*
X129782334Y-91135448D01*
X129930985Y-91024036D01*
X130136053Y-90915873D01*
X130403768Y-90805749D01*
X130559069Y-90749715D01*
X130947589Y-90604738D01*
X131268803Y-90462318D01*
X131527630Y-90317934D01*
X131728988Y-90167065D01*
X131877797Y-90005189D01*
X131978976Y-89827784D01*
X132037443Y-89630330D01*
X132058117Y-89408305D01*
X132058257Y-89371714D01*
X132024041Y-89074986D01*
X131926773Y-88813184D01*
X131768359Y-88588872D01*
X131550704Y-88404617D01*
X131275715Y-88262986D01*
X131219017Y-88241769D01*
X131008727Y-88190207D01*
X130756399Y-88163621D01*
X130488121Y-88161980D01*
X130229983Y-88185257D01*
G36*
X115250272Y-89261986D02*
X114973424Y-89347750D01*
X114717199Y-89486821D01*
X114492020Y-89676784D01*
X114308308Y-89915222D01*
X114269089Y-89983979D01*
X114163507Y-90224445D01*
X114079764Y-90497908D01*
X114025932Y-90773060D01*
X114009714Y-90989860D01*
X114027152Y-91243593D01*
X114074811Y-91516744D01*
X114145712Y-91776065D01*
X114209135Y-91939722D01*
X114310985Y-92112096D01*
X114455506Y-92292479D01*
X114623015Y-92460363D01*
X114793825Y-92595240D01*
X114895226Y-92654498D01*
X115167695Y-92750941D01*
X115457189Y-92790729D01*
X115747611Y-92775096D01*
X116022863Y-92705272D01*
X116266848Y-92582490D01*
X116318554Y-92545591D01*
X116396967Y-92489290D01*
X116449246Y-92458167D01*
X116456579Y-92456000D01*
X116462428Y-92490597D01*
X116467629Y-92587635D01*
X116471935Y-92736984D01*
X116475094Y-92928516D01*
X116476858Y-93152101D01*
X116477143Y-93290571D01*
X116477143Y-94125142D01*
X117202857Y-94125142D01*
X117202857Y-91004169D01*
X116473824Y-91004169D01*
X116469710Y-91137249D01*
X116439479Y-91414418D01*
X116375204Y-91635313D01*
X116271219Y-91810453D01*
X116121860Y-91950356D01*
X115987286Y-92032950D01*
X115851898Y-92075291D01*
X115678564Y-92090239D01*
X115496389Y-92078158D01*
X115334482Y-92039410D01*
X115297857Y-92024350D01*
X115111459Y-91903624D01*
X114961573Y-91727927D01*
X114873988Y-91567000D01*
X114834331Y-91468204D01*
X114809336Y-91367616D01*
X114795865Y-91244118D01*
X114790778Y-91076590D01*
X114790400Y-91004571D01*
X114791989Y-90825647D01*
X114799848Y-90697626D01*
X114817703Y-90598886D01*
X114849284Y-90507801D01*
X114891949Y-90415669D01*
X115031890Y-90200265D01*
X115206870Y-90043386D01*
X115408574Y-89948062D01*
X115628686Y-89917319D01*
X115858892Y-89954184D01*
X116001627Y-90011616D01*
X116182234Y-90128242D01*
X116316875Y-90278878D01*
X116408431Y-90470456D01*
X116459787Y-90709909D01*
X116473824Y-91004169D01*
X117202857Y-91004169D01*
X117202857Y-89335428D01*
X116521505Y-89335428D01*
X116497582Y-89462947D01*
X116473660Y-89590465D01*
X116355475Y-89500321D01*
X116100346Y-89348697D01*
X115824154Y-89260044D01*
X115537323Y-89231946D01*
X115250272Y-89261986D01*
X115250272Y-89261986D01*
G37*
X115250272Y-89261986D02*
X114973424Y-89347750D01*
X114717199Y-89486821D01*
X114492020Y-89676784D01*
X114308308Y-89915222D01*
X114269089Y-89983979D01*
X114163507Y-90224445D01*
X114079764Y-90497908D01*
X114025932Y-90773060D01*
X114009714Y-90989860D01*
X114027152Y-91243593D01*
X114074811Y-91516744D01*
X114145712Y-91776065D01*
X114209135Y-91939722D01*
X114310985Y-92112096D01*
X114455506Y-92292479D01*
X114623015Y-92460363D01*
X114793825Y-92595240D01*
X114895226Y-92654498D01*
X115167695Y-92750941D01*
X115457189Y-92790729D01*
X115747611Y-92775096D01*
X116022863Y-92705272D01*
X116266848Y-92582490D01*
X116318554Y-92545591D01*
X116396967Y-92489290D01*
X116449246Y-92458167D01*
X116456579Y-92456000D01*
X116462428Y-92490597D01*
X116467629Y-92587635D01*
X116471935Y-92736984D01*
X116475094Y-92928516D01*
X116476858Y-93152101D01*
X116477143Y-93290571D01*
X116477143Y-94125142D01*
X117202857Y-94125142D01*
X117202857Y-91004169D01*
X116473824Y-91004169D01*
X116469710Y-91137249D01*
X116439479Y-91414418D01*
X116375204Y-91635313D01*
X116271219Y-91810453D01*
X116121860Y-91950356D01*
X115987286Y-92032950D01*
X115851898Y-92075291D01*
X115678564Y-92090239D01*
X115496389Y-92078158D01*
X115334482Y-92039410D01*
X115297857Y-92024350D01*
X115111459Y-91903624D01*
X114961573Y-91727927D01*
X114873988Y-91567000D01*
X114834331Y-91468204D01*
X114809336Y-91367616D01*
X114795865Y-91244118D01*
X114790778Y-91076590D01*
X114790400Y-91004571D01*
X114791989Y-90825647D01*
X114799848Y-90697626D01*
X114817703Y-90598886D01*
X114849284Y-90507801D01*
X114891949Y-90415669D01*
X115031890Y-90200265D01*
X115206870Y-90043386D01*
X115408574Y-89948062D01*
X115628686Y-89917319D01*
X115858892Y-89954184D01*
X116001627Y-90011616D01*
X116182234Y-90128242D01*
X116316875Y-90278878D01*
X116408431Y-90470456D01*
X116459787Y-90709909D01*
X116473824Y-91004169D01*
X117202857Y-91004169D01*
X117202857Y-89335428D01*
X116521505Y-89335428D01*
X116497582Y-89462947D01*
X116473660Y-89590465D01*
X116355475Y-89500321D01*
X116100346Y-89348697D01*
X115824154Y-89260044D01*
X115537323Y-89231946D01*
X115250272Y-89261986D01*
G36*
X119046993Y-89255220D02*
X119012956Y-89262466D01*
X118703542Y-89369216D01*
X118435089Y-89533513D01*
X118210501Y-89751114D01*
X118032684Y-90017772D01*
X117904543Y-90329242D01*
X117828984Y-90681280D01*
X117808300Y-91022714D01*
X117838695Y-91402767D01*
X117923905Y-91747192D01*
X118060491Y-92051343D01*
X118245014Y-92310574D01*
X118474033Y-92520239D01*
X118744108Y-92675694D01*
X119051802Y-92772290D01*
X119111717Y-92783199D01*
X119301224Y-92794252D01*
X119510521Y-92774448D01*
X119720200Y-92728889D01*
X119910853Y-92662673D01*
X120063072Y-92580900D01*
X120139799Y-92513080D01*
X120192733Y-92466019D01*
X120219014Y-92456000D01*
X120228071Y-92490596D01*
X120236126Y-92587632D01*
X120242793Y-92736979D01*
X120247685Y-92928507D01*
X120250415Y-93152089D01*
X120250857Y-93290571D01*
X120250857Y-94125142D01*
X121012857Y-94125142D01*
X121012857Y-91034220D01*
X120250857Y-91034220D01*
X120240667Y-91294476D01*
X120207331Y-91501176D01*
X120146696Y-91670806D01*
X120054613Y-91819851D01*
X120052253Y-91822956D01*
X119906530Y-91957699D01*
X119718680Y-92048692D01*
X119506872Y-92092566D01*
X119289278Y-92085954D01*
X119084069Y-92025486D01*
X119050064Y-92008736D01*
X118880762Y-91884934D01*
X118734421Y-91714163D01*
X118631623Y-91521987D01*
X118612834Y-91465688D01*
X118592973Y-91357772D01*
X118578420Y-91205325D01*
X118571591Y-91036326D01*
X118571411Y-90986428D01*
X118594762Y-90683320D01*
X118662349Y-90434722D01*
X118776587Y-90235833D01*
X118939892Y-90081853D01*
X119063507Y-90008488D01*
X119294361Y-89929690D01*
X119521929Y-89922419D01*
X119740404Y-89985671D01*
X119943979Y-90118446D01*
X119999589Y-90170000D01*
X120099173Y-90283383D01*
X120169629Y-90403429D01*
X120215374Y-90545340D01*
X120240830Y-90724315D01*
X120250415Y-90955555D01*
X120250857Y-91034220D01*
X121012857Y-91034220D01*
X121012857Y-89332800D01*
X120659492Y-89343186D01*
X120496009Y-89349273D01*
X120391395Y-89358002D01*
X120331950Y-89372488D01*
X120303971Y-89395844D01*
X120294510Y-89426143D01*
X120273179Y-89530659D01*
X120246680Y-89571101D01*
X120204352Y-89555758D01*
X120168160Y-89524389D01*
X119997902Y-89405752D01*
X119779720Y-89314770D01*
X119534550Y-89256189D01*
X119283328Y-89234757D01*
X119046993Y-89255220D01*
X119046993Y-89255220D01*
G37*
X119046993Y-89255220D02*
X119012956Y-89262466D01*
X118703542Y-89369216D01*
X118435089Y-89533513D01*
X118210501Y-89751114D01*
X118032684Y-90017772D01*
X117904543Y-90329242D01*
X117828984Y-90681280D01*
X117808300Y-91022714D01*
X117838695Y-91402767D01*
X117923905Y-91747192D01*
X118060491Y-92051343D01*
X118245014Y-92310574D01*
X118474033Y-92520239D01*
X118744108Y-92675694D01*
X119051802Y-92772290D01*
X119111717Y-92783199D01*
X119301224Y-92794252D01*
X119510521Y-92774448D01*
X119720200Y-92728889D01*
X119910853Y-92662673D01*
X120063072Y-92580900D01*
X120139799Y-92513080D01*
X120192733Y-92466019D01*
X120219014Y-92456000D01*
X120228071Y-92490596D01*
X120236126Y-92587632D01*
X120242793Y-92736979D01*
X120247685Y-92928507D01*
X120250415Y-93152089D01*
X120250857Y-93290571D01*
X120250857Y-94125142D01*
X121012857Y-94125142D01*
X121012857Y-91034220D01*
X120250857Y-91034220D01*
X120240667Y-91294476D01*
X120207331Y-91501176D01*
X120146696Y-91670806D01*
X120054613Y-91819851D01*
X120052253Y-91822956D01*
X119906530Y-91957699D01*
X119718680Y-92048692D01*
X119506872Y-92092566D01*
X119289278Y-92085954D01*
X119084069Y-92025486D01*
X119050064Y-92008736D01*
X118880762Y-91884934D01*
X118734421Y-91714163D01*
X118631623Y-91521987D01*
X118612834Y-91465688D01*
X118592973Y-91357772D01*
X118578420Y-91205325D01*
X118571591Y-91036326D01*
X118571411Y-90986428D01*
X118594762Y-90683320D01*
X118662349Y-90434722D01*
X118776587Y-90235833D01*
X118939892Y-90081853D01*
X119063507Y-90008488D01*
X119294361Y-89929690D01*
X119521929Y-89922419D01*
X119740404Y-89985671D01*
X119943979Y-90118446D01*
X119999589Y-90170000D01*
X120099173Y-90283383D01*
X120169629Y-90403429D01*
X120215374Y-90545340D01*
X120240830Y-90724315D01*
X120250415Y-90955555D01*
X120250857Y-91034220D01*
X121012857Y-91034220D01*
X121012857Y-89332800D01*
X120659492Y-89343186D01*
X120496009Y-89349273D01*
X120391395Y-89358002D01*
X120331950Y-89372488D01*
X120303971Y-89395844D01*
X120294510Y-89426143D01*
X120273179Y-89530659D01*
X120246680Y-89571101D01*
X120204352Y-89555758D01*
X120168160Y-89524389D01*
X119997902Y-89405752D01*
X119779720Y-89314770D01*
X119534550Y-89256189D01*
X119283328Y-89234757D01*
X119046993Y-89255220D01*
G36*
X135728927Y-86825318D02*
X135457473Y-86941552D01*
X135206811Y-87121320D01*
X134982088Y-87362364D01*
X134788450Y-87662424D01*
X134774357Y-87689100D01*
X134608585Y-88077201D01*
X134486477Y-88513292D01*
X134407565Y-88987751D01*
X134371379Y-89490959D01*
X134377452Y-90013294D01*
X134425314Y-90545136D01*
X134514496Y-91076866D01*
X134644530Y-91598862D01*
X134814948Y-92101503D01*
X135011032Y-92546714D01*
X135239452Y-92947611D01*
X135498458Y-93296462D01*
X135783501Y-93590551D01*
X136090032Y-93827163D01*
X136413504Y-94003581D01*
X136749368Y-94117090D01*
X137093075Y-94164975D01*
X137440078Y-94144518D01*
X137621753Y-94105583D01*
X137937385Y-93992638D01*
X138246962Y-93824085D01*
X138553882Y-93596950D01*
X138861542Y-93308262D01*
X139173340Y-92955046D01*
X139492672Y-92534331D01*
X139610466Y-92365285D01*
X139706912Y-92224107D01*
X139787627Y-92106166D01*
X139844293Y-92023601D01*
X139868594Y-91988549D01*
X139868715Y-91988387D01*
X139897461Y-92006143D01*
X139967703Y-92064929D01*
X140068701Y-92155400D01*
X140182653Y-92261520D01*
X140454529Y-92495457D01*
X140712025Y-92666076D01*
X140965055Y-92778441D01*
X141223532Y-92837621D01*
X141329050Y-92847442D01*
X141611425Y-92841975D01*
X141860457Y-92785550D01*
X142100320Y-92671470D01*
X142203714Y-92605047D01*
X142453805Y-92392289D01*
X142678229Y-92118036D01*
X142873065Y-91790028D01*
X143034389Y-91416009D01*
X143158278Y-91003718D01*
X143240810Y-90560899D01*
X143241269Y-90557436D01*
X143266206Y-90211120D01*
X142405949Y-90211120D01*
X142374616Y-90507679D01*
X142350878Y-90636842D01*
X142265769Y-90967127D01*
X142155422Y-91265937D01*
X142024959Y-91523394D01*
X141879505Y-91729625D01*
X141724185Y-91874754D01*
X141700289Y-91890683D01*
X141537577Y-91974917D01*
X141394307Y-92000745D01*
X141247705Y-91968788D01*
X141120517Y-91906504D01*
X140960182Y-91798387D01*
X140781585Y-91650959D01*
X140607943Y-91484457D01*
X140501205Y-91366716D01*
X140422638Y-91273540D01*
X139264571Y-91273540D01*
X139244704Y-91321849D01*
X139190001Y-91417894D01*
X139107813Y-91550361D01*
X139005488Y-91707936D01*
X138890376Y-91879303D01*
X138769826Y-92053147D01*
X138651187Y-92218155D01*
X138649726Y-92220142D01*
X138527821Y-92372846D01*
X138376305Y-92543204D01*
X138210341Y-92715932D01*
X138045095Y-92875748D01*
X137895732Y-93007368D01*
X137787646Y-93088939D01*
X137588882Y-93201358D01*
X137400580Y-93262929D01*
X137191742Y-93282367D01*
X137105571Y-93280729D01*
X136895206Y-93257724D01*
X136721919Y-93203406D01*
X136676670Y-93182057D01*
X136520728Y-93079997D01*
X136347843Y-92928446D01*
X136172567Y-92743293D01*
X136009450Y-92540429D01*
X135873046Y-92335743D01*
X135828969Y-92256428D01*
X135698223Y-91992106D01*
X135597221Y-91754273D01*
X135513494Y-91510388D01*
X135434573Y-91227910D01*
X135434020Y-91225765D01*
X135340153Y-90798060D01*
X135277055Y-90369617D01*
X135243812Y-89947702D01*
X135239514Y-89539581D01*
X135263247Y-89152519D01*
X135314101Y-88793781D01*
X135391162Y-88470633D01*
X135493520Y-88190341D01*
X135620262Y-87960170D01*
X135770476Y-87787384D01*
X135875039Y-87712239D01*
X136010442Y-87649724D01*
X136130275Y-87636202D01*
X136263264Y-87671065D01*
X136335358Y-87702520D01*
X136481380Y-87782540D01*
X136634800Y-87890295D01*
X136798947Y-88029595D01*
X136977151Y-88204249D01*
X137172741Y-88418067D01*
X137389048Y-88674859D01*
X137629400Y-88978433D01*
X137897128Y-89332600D01*
X138195562Y-89741168D01*
X138528030Y-90207948D01*
X138539648Y-90224428D01*
X138685855Y-90431333D01*
X138825273Y-90627628D01*
X138950068Y-90802358D01*
X139052405Y-90944570D01*
X139124450Y-91043310D01*
X139145058Y-91070850D01*
X139212031Y-91166729D01*
X139255399Y-91243983D01*
X139264571Y-91273540D01*
X140422638Y-91273540D01*
X140352819Y-91190739D01*
X140557853Y-90852727D01*
X140828542Y-90421042D01*
X141077475Y-90054221D01*
X141303850Y-89753379D01*
X141506865Y-89519635D01*
X141536031Y-89489642D01*
X141658160Y-89368853D01*
X141745701Y-89291748D01*
X141813343Y-89248734D01*
X141875773Y-89230218D01*
X141938829Y-89226571D01*
X142084122Y-89259937D01*
X142205253Y-89355222D01*
X142300111Y-89505204D01*
X142366586Y-89702661D01*
X142402569Y-89940374D01*
X142405949Y-90211120D01*
X143266206Y-90211120D01*
X143272201Y-90127875D01*
X143248224Y-89731705D01*
X143170482Y-89373188D01*
X143040119Y-89056586D01*
X142858280Y-88786160D01*
X142729493Y-88651981D01*
X142498319Y-88487327D01*
X142240992Y-88387479D01*
X141966267Y-88353615D01*
X141682894Y-88386914D01*
X141425479Y-88476307D01*
X141230143Y-88594531D01*
X141014726Y-88776028D01*
X140783594Y-89015740D01*
X140541114Y-89308610D01*
X140291653Y-89649581D01*
X140039577Y-90033596D01*
X139939537Y-90197214D01*
X139869724Y-90307628D01*
X139811784Y-90388321D01*
X139777113Y-90423570D01*
X139775098Y-90424000D01*
X139746870Y-90395604D01*
X139683579Y-90316061D01*
X139591548Y-90193837D01*
X139477099Y-90037399D01*
X139346556Y-89855212D01*
X139280516Y-89761785D01*
X138924246Y-89261350D01*
X138600797Y-88819876D01*
X138306619Y-88433522D01*
X138038161Y-88098449D01*
X137791874Y-87810818D01*
X137564209Y-87566789D01*
X137351615Y-87362523D01*
X137150542Y-87194179D01*
X136957442Y-87057920D01*
X136768763Y-86949904D01*
X136616582Y-86880415D01*
X136313628Y-86792491D01*
X136016028Y-86774878D01*
X135728927Y-86825318D01*
X135728927Y-86825318D01*
G37*
X135728927Y-86825318D02*
X135457473Y-86941552D01*
X135206811Y-87121320D01*
X134982088Y-87362364D01*
X134788450Y-87662424D01*
X134774357Y-87689100D01*
X134608585Y-88077201D01*
X134486477Y-88513292D01*
X134407565Y-88987751D01*
X134371379Y-89490959D01*
X134377452Y-90013294D01*
X134425314Y-90545136D01*
X134514496Y-91076866D01*
X134644530Y-91598862D01*
X134814948Y-92101503D01*
X135011032Y-92546714D01*
X135239452Y-92947611D01*
X135498458Y-93296462D01*
X135783501Y-93590551D01*
X136090032Y-93827163D01*
X136413504Y-94003581D01*
X136749368Y-94117090D01*
X137093075Y-94164975D01*
X137440078Y-94144518D01*
X137621753Y-94105583D01*
X137937385Y-93992638D01*
X138246962Y-93824085D01*
X138553882Y-93596950D01*
X138861542Y-93308262D01*
X139173340Y-92955046D01*
X139492672Y-92534331D01*
X139610466Y-92365285D01*
X139706912Y-92224107D01*
X139787627Y-92106166D01*
X139844293Y-92023601D01*
X139868594Y-91988549D01*
X139868715Y-91988387D01*
X139897461Y-92006143D01*
X139967703Y-92064929D01*
X140068701Y-92155400D01*
X140182653Y-92261520D01*
X140454529Y-92495457D01*
X140712025Y-92666076D01*
X140965055Y-92778441D01*
X141223532Y-92837621D01*
X141329050Y-92847442D01*
X141611425Y-92841975D01*
X141860457Y-92785550D01*
X142100320Y-92671470D01*
X142203714Y-92605047D01*
X142453805Y-92392289D01*
X142678229Y-92118036D01*
X142873065Y-91790028D01*
X143034389Y-91416009D01*
X143158278Y-91003718D01*
X143240810Y-90560899D01*
X143241269Y-90557436D01*
X143266206Y-90211120D01*
X142405949Y-90211120D01*
X142374616Y-90507679D01*
X142350878Y-90636842D01*
X142265769Y-90967127D01*
X142155422Y-91265937D01*
X142024959Y-91523394D01*
X141879505Y-91729625D01*
X141724185Y-91874754D01*
X141700289Y-91890683D01*
X141537577Y-91974917D01*
X141394307Y-92000745D01*
X141247705Y-91968788D01*
X141120517Y-91906504D01*
X140960182Y-91798387D01*
X140781585Y-91650959D01*
X140607943Y-91484457D01*
X140501205Y-91366716D01*
X140422638Y-91273540D01*
X139264571Y-91273540D01*
X139244704Y-91321849D01*
X139190001Y-91417894D01*
X139107813Y-91550361D01*
X139005488Y-91707936D01*
X138890376Y-91879303D01*
X138769826Y-92053147D01*
X138651187Y-92218155D01*
X138649726Y-92220142D01*
X138527821Y-92372846D01*
X138376305Y-92543204D01*
X138210341Y-92715932D01*
X138045095Y-92875748D01*
X137895732Y-93007368D01*
X137787646Y-93088939D01*
X137588882Y-93201358D01*
X137400580Y-93262929D01*
X137191742Y-93282367D01*
X137105571Y-93280729D01*
X136895206Y-93257724D01*
X136721919Y-93203406D01*
X136676670Y-93182057D01*
X136520728Y-93079997D01*
X136347843Y-92928446D01*
X136172567Y-92743293D01*
X136009450Y-92540429D01*
X135873046Y-92335743D01*
X135828969Y-92256428D01*
X135698223Y-91992106D01*
X135597221Y-91754273D01*
X135513494Y-91510388D01*
X135434573Y-91227910D01*
X135434020Y-91225765D01*
X135340153Y-90798060D01*
X135277055Y-90369617D01*
X135243812Y-89947702D01*
X135239514Y-89539581D01*
X135263247Y-89152519D01*
X135314101Y-88793781D01*
X135391162Y-88470633D01*
X135493520Y-88190341D01*
X135620262Y-87960170D01*
X135770476Y-87787384D01*
X135875039Y-87712239D01*
X136010442Y-87649724D01*
X136130275Y-87636202D01*
X136263264Y-87671065D01*
X136335358Y-87702520D01*
X136481380Y-87782540D01*
X136634800Y-87890295D01*
X136798947Y-88029595D01*
X136977151Y-88204249D01*
X137172741Y-88418067D01*
X137389048Y-88674859D01*
X137629400Y-88978433D01*
X137897128Y-89332600D01*
X138195562Y-89741168D01*
X138528030Y-90207948D01*
X138539648Y-90224428D01*
X138685855Y-90431333D01*
X138825273Y-90627628D01*
X138950068Y-90802358D01*
X139052405Y-90944570D01*
X139124450Y-91043310D01*
X139145058Y-91070850D01*
X139212031Y-91166729D01*
X139255399Y-91243983D01*
X139264571Y-91273540D01*
X140422638Y-91273540D01*
X140352819Y-91190739D01*
X140557853Y-90852727D01*
X140828542Y-90421042D01*
X141077475Y-90054221D01*
X141303850Y-89753379D01*
X141506865Y-89519635D01*
X141536031Y-89489642D01*
X141658160Y-89368853D01*
X141745701Y-89291748D01*
X141813343Y-89248734D01*
X141875773Y-89230218D01*
X141938829Y-89226571D01*
X142084122Y-89259937D01*
X142205253Y-89355222D01*
X142300111Y-89505204D01*
X142366586Y-89702661D01*
X142402569Y-89940374D01*
X142405949Y-90211120D01*
X143266206Y-90211120D01*
X143272201Y-90127875D01*
X143248224Y-89731705D01*
X143170482Y-89373188D01*
X143040119Y-89056586D01*
X142858280Y-88786160D01*
X142729493Y-88651981D01*
X142498319Y-88487327D01*
X142240992Y-88387479D01*
X141966267Y-88353615D01*
X141682894Y-88386914D01*
X141425479Y-88476307D01*
X141230143Y-88594531D01*
X141014726Y-88776028D01*
X140783594Y-89015740D01*
X140541114Y-89308610D01*
X140291653Y-89649581D01*
X140039577Y-90033596D01*
X139939537Y-90197214D01*
X139869724Y-90307628D01*
X139811784Y-90388321D01*
X139777113Y-90423570D01*
X139775098Y-90424000D01*
X139746870Y-90395604D01*
X139683579Y-90316061D01*
X139591548Y-90193837D01*
X139477099Y-90037399D01*
X139346556Y-89855212D01*
X139280516Y-89761785D01*
X138924246Y-89261350D01*
X138600797Y-88819876D01*
X138306619Y-88433522D01*
X138038161Y-88098449D01*
X137791874Y-87810818D01*
X137564209Y-87566789D01*
X137351615Y-87362523D01*
X137150542Y-87194179D01*
X136957442Y-87057920D01*
X136768763Y-86949904D01*
X136616582Y-86880415D01*
X136313628Y-86792491D01*
X136016028Y-86774878D01*
X135728927Y-86825318D01*
G36*
X108315129Y-95204643D02*
X108314898Y-95432206D01*
X108314622Y-95635497D01*
X108314323Y-95803194D01*
X108314022Y-95923975D01*
X108313740Y-95986516D01*
X108313670Y-95991903D01*
X108290335Y-95990466D01*
X108232059Y-95947770D01*
X108194928Y-95914323D01*
X108054462Y-95800716D01*
X107899699Y-95720935D01*
X107704968Y-95662628D01*
X107644465Y-95649429D01*
X107354707Y-95622993D01*
X107073823Y-95659933D01*
X106812435Y-95754878D01*
X106581165Y-95902460D01*
X106390636Y-96097307D01*
X106251469Y-96334049D01*
X106241171Y-96358859D01*
X106218125Y-96418469D01*
X106199498Y-96475881D01*
X106184735Y-96539465D01*
X106173280Y-96617591D01*
X106164576Y-96718628D01*
X106158069Y-96850946D01*
X106153202Y-97022915D01*
X106149419Y-97242905D01*
X106146165Y-97519287D01*
X106143116Y-97835357D01*
X106131429Y-99096285D01*
X106897714Y-99096285D01*
X106897916Y-98016785D01*
X106899336Y-97691663D01*
X106903315Y-97405128D01*
X106909623Y-97164363D01*
X106918030Y-96976550D01*
X106928308Y-96848872D01*
X106936854Y-96797788D01*
X107021097Y-96618343D01*
X107154762Y-96478297D01*
X107324136Y-96381252D01*
X107515510Y-96330814D01*
X107715173Y-96330588D01*
X107909415Y-96384178D01*
X108084526Y-96495190D01*
X108085265Y-96495839D01*
X108145044Y-96550328D01*
X108193221Y-96603361D01*
X108231069Y-96663143D01*
X108259864Y-96737879D01*
X108280880Y-96835774D01*
X108295390Y-96965034D01*
X108304669Y-97133862D01*
X108309991Y-97350465D01*
X108312630Y-97623047D01*
X108313860Y-97959814D01*
X108313881Y-97968060D01*
X108316746Y-99096285D01*
X109074857Y-99096285D01*
X109074857Y-94451714D01*
X108315775Y-94451714D01*
X108315129Y-95204643D01*
X108315129Y-95204643D01*
G37*
X108315129Y-95204643D02*
X108314898Y-95432206D01*
X108314622Y-95635497D01*
X108314323Y-95803194D01*
X108314022Y-95923975D01*
X108313740Y-95986516D01*
X108313670Y-95991903D01*
X108290335Y-95990466D01*
X108232059Y-95947770D01*
X108194928Y-95914323D01*
X108054462Y-95800716D01*
X107899699Y-95720935D01*
X107704968Y-95662628D01*
X107644465Y-95649429D01*
X107354707Y-95622993D01*
X107073823Y-95659933D01*
X106812435Y-95754878D01*
X106581165Y-95902460D01*
X106390636Y-96097307D01*
X106251469Y-96334049D01*
X106241171Y-96358859D01*
X106218125Y-96418469D01*
X106199498Y-96475881D01*
X106184735Y-96539465D01*
X106173280Y-96617591D01*
X106164576Y-96718628D01*
X106158069Y-96850946D01*
X106153202Y-97022915D01*
X106149419Y-97242905D01*
X106146165Y-97519287D01*
X106143116Y-97835357D01*
X106131429Y-99096285D01*
X106897714Y-99096285D01*
X106897916Y-98016785D01*
X106899336Y-97691663D01*
X106903315Y-97405128D01*
X106909623Y-97164363D01*
X106918030Y-96976550D01*
X106928308Y-96848872D01*
X106936854Y-96797788D01*
X107021097Y-96618343D01*
X107154762Y-96478297D01*
X107324136Y-96381252D01*
X107515510Y-96330814D01*
X107715173Y-96330588D01*
X107909415Y-96384178D01*
X108084526Y-96495190D01*
X108085265Y-96495839D01*
X108145044Y-96550328D01*
X108193221Y-96603361D01*
X108231069Y-96663143D01*
X108259864Y-96737879D01*
X108280880Y-96835774D01*
X108295390Y-96965034D01*
X108304669Y-97133862D01*
X108309991Y-97350465D01*
X108312630Y-97623047D01*
X108313860Y-97959814D01*
X108313881Y-97968060D01*
X108316746Y-99096285D01*
X109074857Y-99096285D01*
X109074857Y-94451714D01*
X108315775Y-94451714D01*
X108315129Y-95204643D01*
G36*
X113067066Y-95667179D02*
X113065582Y-95667382D01*
X112987190Y-95679666D01*
X112931660Y-95698348D01*
X112897686Y-95733417D01*
X112883966Y-95794860D01*
X112889194Y-95892664D01*
X112912067Y-96036818D01*
X112951281Y-96237307D01*
X112975571Y-96356714D01*
X112989373Y-96393081D01*
X113022722Y-96413747D01*
X113091241Y-96421976D01*
X113210552Y-96421032D01*
X113273254Y-96418918D01*
X113484662Y-96424769D01*
X113641934Y-96464425D01*
X113758152Y-96544340D01*
X113846400Y-96670967D01*
X113865884Y-96711249D01*
X113885675Y-96759836D01*
X113901357Y-96814407D01*
X113913410Y-96883616D01*
X113922313Y-96976111D01*
X113928548Y-97100544D01*
X113932594Y-97265565D01*
X113934933Y-97479826D01*
X113936043Y-97751977D01*
X113936346Y-97980500D01*
X113937143Y-99096285D01*
X114699143Y-99096285D01*
X114699143Y-95721714D01*
X114376453Y-95721714D01*
X114210173Y-95724405D01*
X114103377Y-95736840D01*
X114043049Y-95765565D01*
X114016175Y-95817124D01*
X114009736Y-95898060D01*
X114009714Y-95906110D01*
X113994157Y-95966480D01*
X113947977Y-95961442D01*
X113879266Y-95899281D01*
X113728337Y-95781623D01*
X113530303Y-95700198D01*
X113303700Y-95660289D01*
X113067066Y-95667179D01*
X113067066Y-95667179D01*
G37*
X113067066Y-95667179D02*
X113065582Y-95667382D01*
X112987190Y-95679666D01*
X112931660Y-95698348D01*
X112897686Y-95733417D01*
X112883966Y-95794860D01*
X112889194Y-95892664D01*
X112912067Y-96036818D01*
X112951281Y-96237307D01*
X112975571Y-96356714D01*
X112989373Y-96393081D01*
X113022722Y-96413747D01*
X113091241Y-96421976D01*
X113210552Y-96421032D01*
X113273254Y-96418918D01*
X113484662Y-96424769D01*
X113641934Y-96464425D01*
X113758152Y-96544340D01*
X113846400Y-96670967D01*
X113865884Y-96711249D01*
X113885675Y-96759836D01*
X113901357Y-96814407D01*
X113913410Y-96883616D01*
X113922313Y-96976111D01*
X113928548Y-97100544D01*
X113932594Y-97265565D01*
X113934933Y-97479826D01*
X113936043Y-97751977D01*
X113936346Y-97980500D01*
X113937143Y-99096285D01*
X114699143Y-99096285D01*
X114699143Y-95721714D01*
X114376453Y-95721714D01*
X114210173Y-95724405D01*
X114103377Y-95736840D01*
X114043049Y-95765565D01*
X114016175Y-95817124D01*
X114009736Y-95898060D01*
X114009714Y-95906110D01*
X113994157Y-95966480D01*
X113947977Y-95961442D01*
X113879266Y-95899281D01*
X113728337Y-95781623D01*
X113530303Y-95700198D01*
X113303700Y-95660289D01*
X113067066Y-95667179D01*
G36*
X130946071Y-94635620D02*
X130598149Y-94638363D01*
X130316264Y-94643479D01*
X130093909Y-94651261D01*
X129924579Y-94662001D01*
X129801770Y-94675991D01*
X129731028Y-94690142D01*
X129426911Y-94800339D01*
X129176380Y-94957886D01*
X128975332Y-95166101D01*
X128820234Y-95427074D01*
X128776166Y-95530806D01*
X128748279Y-95626597D01*
X128733063Y-95736317D01*
X128727008Y-95881835D01*
X128726330Y-96012000D01*
X128730059Y-96208949D01*
X128742567Y-96356400D01*
X128767047Y-96477210D01*
X128806688Y-96594235D01*
X128808138Y-96597908D01*
X128948553Y-96856487D01*
X129145742Y-97072234D01*
X129393666Y-97238667D01*
X129414910Y-97249362D01*
X129529382Y-97309032D01*
X129612753Y-97358812D01*
X129648532Y-97388767D01*
X129648857Y-97390288D01*
X129632251Y-97429733D01*
X129586643Y-97520437D01*
X129518347Y-97650263D01*
X129433678Y-97807072D01*
X129401340Y-97866092D01*
X129286711Y-98075483D01*
X129161093Y-98306510D01*
X129040232Y-98530135D01*
X128945794Y-98706214D01*
X128737764Y-99096285D01*
X129597947Y-99096285D01*
X130044078Y-98261714D01*
X130490210Y-97427143D01*
X131172857Y-97427143D01*
X131172857Y-99096285D01*
X131971143Y-99096285D01*
X131971143Y-95358857D01*
X131172857Y-95358857D01*
X131172857Y-96707545D01*
X130565071Y-96695415D01*
X130338562Y-96690232D01*
X130171507Y-96683931D01*
X130050789Y-96674784D01*
X129963292Y-96661062D01*
X129895903Y-96641036D01*
X129835503Y-96612976D01*
X129803074Y-96594963D01*
X129649683Y-96467221D01*
X129549581Y-96292793D01*
X129505606Y-96077154D01*
X129503714Y-96016884D01*
X129526883Y-95815455D01*
X129601238Y-95653739D01*
X129691262Y-95551089D01*
X129775683Y-95482050D01*
X129867943Y-95431316D01*
X129980582Y-95396260D01*
X130126139Y-95374259D01*
X130317151Y-95362684D01*
X130566158Y-95358912D01*
X130609263Y-95358857D01*
X131172857Y-95358857D01*
X131971143Y-95358857D01*
X131971143Y-94631199D01*
X130946071Y-94635620D01*
X130946071Y-94635620D01*
G37*
X130946071Y-94635620D02*
X130598149Y-94638363D01*
X130316264Y-94643479D01*
X130093909Y-94651261D01*
X129924579Y-94662001D01*
X129801770Y-94675991D01*
X129731028Y-94690142D01*
X129426911Y-94800339D01*
X129176380Y-94957886D01*
X128975332Y-95166101D01*
X128820234Y-95427074D01*
X128776166Y-95530806D01*
X128748279Y-95626597D01*
X128733063Y-95736317D01*
X128727008Y-95881835D01*
X128726330Y-96012000D01*
X128730059Y-96208949D01*
X128742567Y-96356400D01*
X128767047Y-96477210D01*
X128806688Y-96594235D01*
X128808138Y-96597908D01*
X128948553Y-96856487D01*
X129145742Y-97072234D01*
X129393666Y-97238667D01*
X129414910Y-97249362D01*
X129529382Y-97309032D01*
X129612753Y-97358812D01*
X129648532Y-97388767D01*
X129648857Y-97390288D01*
X129632251Y-97429733D01*
X129586643Y-97520437D01*
X129518347Y-97650263D01*
X129433678Y-97807072D01*
X129401340Y-97866092D01*
X129286711Y-98075483D01*
X129161093Y-98306510D01*
X129040232Y-98530135D01*
X128945794Y-98706214D01*
X128737764Y-99096285D01*
X129597947Y-99096285D01*
X130044078Y-98261714D01*
X130490210Y-97427143D01*
X131172857Y-97427143D01*
X131172857Y-99096285D01*
X131971143Y-99096285D01*
X131971143Y-95358857D01*
X131172857Y-95358857D01*
X131172857Y-96707545D01*
X130565071Y-96695415D01*
X130338562Y-96690232D01*
X130171507Y-96683931D01*
X130050789Y-96674784D01*
X129963292Y-96661062D01*
X129895903Y-96641036D01*
X129835503Y-96612976D01*
X129803074Y-96594963D01*
X129649683Y-96467221D01*
X129549581Y-96292793D01*
X129505606Y-96077154D01*
X129503714Y-96016884D01*
X129526883Y-95815455D01*
X129601238Y-95653739D01*
X129691262Y-95551089D01*
X129775683Y-95482050D01*
X129867943Y-95431316D01*
X129980582Y-95396260D01*
X130126139Y-95374259D01*
X130317151Y-95362684D01*
X130566158Y-95358912D01*
X130609263Y-95358857D01*
X131172857Y-95358857D01*
X131971143Y-95358857D01*
X131971143Y-94631199D01*
X130946071Y-94635620D01*
G36*
X110704873Y-95676097D02*
X110400382Y-95787628D01*
X110335454Y-95821048D01*
X110131719Y-95967112D01*
X109946756Y-96165091D01*
X109795679Y-96394418D01*
X109693604Y-96634529D01*
X109670533Y-96725693D01*
X109662314Y-96788455D01*
X109675656Y-96831561D01*
X109722591Y-96862072D01*
X109815151Y-96887049D01*
X109965366Y-96913555D01*
X110000143Y-96919143D01*
X110129841Y-96941732D01*
X110235518Y-96963482D01*
X110288147Y-96977717D01*
X110344985Y-96968603D01*
X110367066Y-96931979D01*
X110458535Y-96714106D01*
X110568214Y-96554963D01*
X110699513Y-96444829D01*
X110915989Y-96342653D01*
X111128018Y-96307098D01*
X111329786Y-96332230D01*
X111515479Y-96412110D01*
X111679285Y-96540804D01*
X111815389Y-96712374D01*
X111917979Y-96920884D01*
X111981241Y-97160397D01*
X111999361Y-97424978D01*
X111966527Y-97708690D01*
X111961252Y-97733263D01*
X111876177Y-97996816D01*
X111748812Y-98204640D01*
X111575125Y-98362677D01*
X111504305Y-98406401D01*
X111300410Y-98483356D01*
X111088769Y-98499296D01*
X110882692Y-98459566D01*
X110695491Y-98369515D01*
X110540478Y-98234489D01*
X110430964Y-98059837D01*
X110398094Y-97962014D01*
X110371562Y-97883772D01*
X110347112Y-97845822D01*
X110302189Y-97845315D01*
X110203738Y-97857453D01*
X110069227Y-97879856D01*
X109997469Y-97893461D01*
X109823223Y-97932441D01*
X109715045Y-97968462D01*
X109666621Y-98003785D01*
X109663040Y-98013131D01*
X109670673Y-98098473D01*
X109710338Y-98223930D01*
X109773305Y-98369578D01*
X109850842Y-98515489D01*
X109934221Y-98641738D01*
X109943994Y-98654355D01*
X110147754Y-98856086D01*
X110398899Y-99014351D01*
X110683622Y-99124698D01*
X110988115Y-99182676D01*
X111298571Y-99183833D01*
X111491420Y-99153288D01*
X111812446Y-99048713D01*
X112087098Y-98890072D01*
X112317828Y-98675173D01*
X112507091Y-98401828D01*
X112632212Y-98134714D01*
X112668133Y-98033976D01*
X112692594Y-97936305D01*
X112707794Y-97823865D01*
X112715936Y-97678822D01*
X112719219Y-97483338D01*
X112719528Y-97427143D01*
X112711880Y-97123029D01*
X112683058Y-96872561D01*
X112628455Y-96658731D01*
X112543465Y-96464529D01*
X112423483Y-96272947D01*
X112397084Y-96236435D01*
X112185381Y-96007613D01*
X111931066Y-95830046D01*
X111645000Y-95705924D01*
X111338040Y-95637433D01*
X111021045Y-95626762D01*
X110704873Y-95676097D01*
X110704873Y-95676097D01*
G37*
X110704873Y-95676097D02*
X110400382Y-95787628D01*
X110335454Y-95821048D01*
X110131719Y-95967112D01*
X109946756Y-96165091D01*
X109795679Y-96394418D01*
X109693604Y-96634529D01*
X109670533Y-96725693D01*
X109662314Y-96788455D01*
X109675656Y-96831561D01*
X109722591Y-96862072D01*
X109815151Y-96887049D01*
X109965366Y-96913555D01*
X110000143Y-96919143D01*
X110129841Y-96941732D01*
X110235518Y-96963482D01*
X110288147Y-96977717D01*
X110344985Y-96968603D01*
X110367066Y-96931979D01*
X110458535Y-96714106D01*
X110568214Y-96554963D01*
X110699513Y-96444829D01*
X110915989Y-96342653D01*
X111128018Y-96307098D01*
X111329786Y-96332230D01*
X111515479Y-96412110D01*
X111679285Y-96540804D01*
X111815389Y-96712374D01*
X111917979Y-96920884D01*
X111981241Y-97160397D01*
X111999361Y-97424978D01*
X111966527Y-97708690D01*
X111961252Y-97733263D01*
X111876177Y-97996816D01*
X111748812Y-98204640D01*
X111575125Y-98362677D01*
X111504305Y-98406401D01*
X111300410Y-98483356D01*
X111088769Y-98499296D01*
X110882692Y-98459566D01*
X110695491Y-98369515D01*
X110540478Y-98234489D01*
X110430964Y-98059837D01*
X110398094Y-97962014D01*
X110371562Y-97883772D01*
X110347112Y-97845822D01*
X110302189Y-97845315D01*
X110203738Y-97857453D01*
X110069227Y-97879856D01*
X109997469Y-97893461D01*
X109823223Y-97932441D01*
X109715045Y-97968462D01*
X109666621Y-98003785D01*
X109663040Y-98013131D01*
X109670673Y-98098473D01*
X109710338Y-98223930D01*
X109773305Y-98369578D01*
X109850842Y-98515489D01*
X109934221Y-98641738D01*
X109943994Y-98654355D01*
X110147754Y-98856086D01*
X110398899Y-99014351D01*
X110683622Y-99124698D01*
X110988115Y-99182676D01*
X111298571Y-99183833D01*
X111491420Y-99153288D01*
X111812446Y-99048713D01*
X112087098Y-98890072D01*
X112317828Y-98675173D01*
X112507091Y-98401828D01*
X112632212Y-98134714D01*
X112668133Y-98033976D01*
X112692594Y-97936305D01*
X112707794Y-97823865D01*
X112715936Y-97678822D01*
X112719219Y-97483338D01*
X112719528Y-97427143D01*
X112711880Y-97123029D01*
X112683058Y-96872561D01*
X112628455Y-96658731D01*
X112543465Y-96464529D01*
X112423483Y-96272947D01*
X112397084Y-96236435D01*
X112185381Y-96007613D01*
X111931066Y-95830046D01*
X111645000Y-95705924D01*
X111338040Y-95637433D01*
X111021045Y-95626762D01*
X110704873Y-95676097D01*
G36*
X116456555Y-95642535D02*
X116146781Y-95721036D01*
X115885838Y-95852208D01*
X115674879Y-96035240D01*
X115515062Y-96269322D01*
X115490148Y-96320428D01*
X115468175Y-96370301D01*
X115450357Y-96419927D01*
X115436180Y-96477330D01*
X115425132Y-96550534D01*
X115416699Y-96647561D01*
X115410367Y-96776436D01*
X115405624Y-96945182D01*
X115401956Y-97161822D01*
X115398850Y-97434379D01*
X115395792Y-97770878D01*
X115395549Y-97799071D01*
X115384384Y-99096285D01*
X115713049Y-99096285D01*
X115868256Y-99095506D01*
X115964809Y-99090693D01*
X116016623Y-99078130D01*
X116037614Y-99054101D01*
X116041699Y-99014892D01*
X116041714Y-99008539D01*
X116050839Y-98914105D01*
X116064035Y-98862626D01*
X116086491Y-98831946D01*
X116124983Y-98847435D01*
X116181488Y-98899591D01*
X116365038Y-99036679D01*
X116601550Y-99131719D01*
X116748029Y-99165554D01*
X116917043Y-99192426D01*
X117051667Y-99199344D01*
X117185926Y-99185320D01*
X117353845Y-99149362D01*
X117360574Y-99147736D01*
X117619538Y-99052725D01*
X117829243Y-98905588D01*
X117978822Y-98722378D01*
X118038043Y-98613632D01*
X118074083Y-98505890D01*
X118094458Y-98371138D01*
X118102557Y-98261063D01*
X118106578Y-98157158D01*
X117384286Y-98157158D01*
X117353162Y-98307348D01*
X117265069Y-98422082D01*
X117127925Y-98498408D01*
X116949646Y-98533372D01*
X116738151Y-98524022D01*
X116528955Y-98476208D01*
X116401289Y-98407561D01*
X116278313Y-98293580D01*
X116183586Y-98159008D01*
X116149965Y-98078172D01*
X116131846Y-97981835D01*
X116120266Y-97854347D01*
X116115209Y-97714206D01*
X116116658Y-97579912D01*
X116124596Y-97469964D01*
X116139008Y-97402860D01*
X116150571Y-97390857D01*
X116185822Y-97416537D01*
X116186857Y-97424507D01*
X116218479Y-97459895D01*
X116301831Y-97509816D01*
X116419640Y-97566325D01*
X116554635Y-97621474D01*
X116689545Y-97667316D01*
X116751192Y-97684171D01*
X117004375Y-97763904D01*
X117195525Y-97862938D01*
X117321791Y-97979143D01*
X117380321Y-98110388D01*
X117384286Y-98157158D01*
X118106578Y-98157158D01*
X118108543Y-98106410D01*
X118101782Y-97995625D01*
X118077500Y-97900445D01*
X118030925Y-97792607D01*
X118019436Y-97768915D01*
X117922328Y-97614396D01*
X117789610Y-97483706D01*
X117612021Y-97370954D01*
X117380303Y-97270253D01*
X117087939Y-97176491D01*
X116806479Y-97094335D01*
X116588099Y-97023969D01*
X116425139Y-96960967D01*
X116309943Y-96900900D01*
X116234855Y-96839342D01*
X116192215Y-96771866D01*
X116174368Y-96694043D01*
X116172343Y-96647104D01*
X116204413Y-96511950D01*
X116292060Y-96403995D01*
X116422437Y-96326253D01*
X116582698Y-96281738D01*
X116759998Y-96273463D01*
X116941490Y-96304443D01*
X117114328Y-96377690D01*
X117169448Y-96413191D01*
X117243407Y-96488339D01*
X117319544Y-96599888D01*
X117354704Y-96666857D01*
X117392493Y-96747171D01*
X117427170Y-96800127D01*
X117472358Y-96828310D01*
X117541683Y-96834301D01*
X117648769Y-96820684D01*
X117807240Y-96790041D01*
X117902380Y-96770689D01*
X118148331Y-96720776D01*
X118124695Y-96611316D01*
X118034972Y-96360562D01*
X117885538Y-96137587D01*
X117685720Y-95947810D01*
X117444847Y-95796648D01*
X117172247Y-95689518D01*
X116877248Y-95631837D01*
X116569179Y-95629024D01*
X116456555Y-95642535D01*
X116456555Y-95642535D01*
G37*
X116456555Y-95642535D02*
X116146781Y-95721036D01*
X115885838Y-95852208D01*
X115674879Y-96035240D01*
X115515062Y-96269322D01*
X115490148Y-96320428D01*
X115468175Y-96370301D01*
X115450357Y-96419927D01*
X115436180Y-96477330D01*
X115425132Y-96550534D01*
X115416699Y-96647561D01*
X115410367Y-96776436D01*
X115405624Y-96945182D01*
X115401956Y-97161822D01*
X115398850Y-97434379D01*
X115395792Y-97770878D01*
X115395549Y-97799071D01*
X115384384Y-99096285D01*
X115713049Y-99096285D01*
X115868256Y-99095506D01*
X115964809Y-99090693D01*
X116016623Y-99078130D01*
X116037614Y-99054101D01*
X116041699Y-99014892D01*
X116041714Y-99008539D01*
X116050839Y-98914105D01*
X116064035Y-98862626D01*
X116086491Y-98831946D01*
X116124983Y-98847435D01*
X116181488Y-98899591D01*
X116365038Y-99036679D01*
X116601550Y-99131719D01*
X116748029Y-99165554D01*
X116917043Y-99192426D01*
X117051667Y-99199344D01*
X117185926Y-99185320D01*
X117353845Y-99149362D01*
X117360574Y-99147736D01*
X117619538Y-99052725D01*
X117829243Y-98905588D01*
X117978822Y-98722378D01*
X118038043Y-98613632D01*
X118074083Y-98505890D01*
X118094458Y-98371138D01*
X118102557Y-98261063D01*
X118106578Y-98157158D01*
X117384286Y-98157158D01*
X117353162Y-98307348D01*
X117265069Y-98422082D01*
X117127925Y-98498408D01*
X116949646Y-98533372D01*
X116738151Y-98524022D01*
X116528955Y-98476208D01*
X116401289Y-98407561D01*
X116278313Y-98293580D01*
X116183586Y-98159008D01*
X116149965Y-98078172D01*
X116131846Y-97981835D01*
X116120266Y-97854347D01*
X116115209Y-97714206D01*
X116116658Y-97579912D01*
X116124596Y-97469964D01*
X116139008Y-97402860D01*
X116150571Y-97390857D01*
X116185822Y-97416537D01*
X116186857Y-97424507D01*
X116218479Y-97459895D01*
X116301831Y-97509816D01*
X116419640Y-97566325D01*
X116554635Y-97621474D01*
X116689545Y-97667316D01*
X116751192Y-97684171D01*
X117004375Y-97763904D01*
X117195525Y-97862938D01*
X117321791Y-97979143D01*
X117380321Y-98110388D01*
X117384286Y-98157158D01*
X118106578Y-98157158D01*
X118108543Y-98106410D01*
X118101782Y-97995625D01*
X118077500Y-97900445D01*
X118030925Y-97792607D01*
X118019436Y-97768915D01*
X117922328Y-97614396D01*
X117789610Y-97483706D01*
X117612021Y-97370954D01*
X117380303Y-97270253D01*
X117087939Y-97176491D01*
X116806479Y-97094335D01*
X116588099Y-97023969D01*
X116425139Y-96960967D01*
X116309943Y-96900900D01*
X116234855Y-96839342D01*
X116192215Y-96771866D01*
X116174368Y-96694043D01*
X116172343Y-96647104D01*
X116204413Y-96511950D01*
X116292060Y-96403995D01*
X116422437Y-96326253D01*
X116582698Y-96281738D01*
X116759998Y-96273463D01*
X116941490Y-96304443D01*
X117114328Y-96377690D01*
X117169448Y-96413191D01*
X117243407Y-96488339D01*
X117319544Y-96599888D01*
X117354704Y-96666857D01*
X117392493Y-96747171D01*
X117427170Y-96800127D01*
X117472358Y-96828310D01*
X117541683Y-96834301D01*
X117648769Y-96820684D01*
X117807240Y-96790041D01*
X117902380Y-96770689D01*
X118148331Y-96720776D01*
X118124695Y-96611316D01*
X118034972Y-96360562D01*
X117885538Y-96137587D01*
X117685720Y-95947810D01*
X117444847Y-95796648D01*
X117172247Y-95689518D01*
X116877248Y-95631837D01*
X116569179Y-95629024D01*
X116456555Y-95642535D01*
G36*
X119768963Y-95655878D02*
X119487510Y-95743438D01*
X119227662Y-95882960D01*
X118999136Y-96072827D01*
X118811647Y-96311427D01*
X118732041Y-96457511D01*
X118627149Y-96725494D01*
X118566950Y-96999786D01*
X118545632Y-97308097D01*
X118545410Y-97347286D01*
X118545393Y-97626714D01*
X119728964Y-97616660D01*
X120912534Y-97606606D01*
X120886668Y-97779094D01*
X120820291Y-98017744D01*
X120702325Y-98224455D01*
X120541911Y-98386321D01*
X120396000Y-98471942D01*
X120225542Y-98516020D01*
X120021864Y-98524322D01*
X119814291Y-98497877D01*
X119649658Y-98445783D01*
X119522772Y-98372235D01*
X119385308Y-98265976D01*
X119298329Y-98183017D01*
X119216184Y-98096738D01*
X119154219Y-98046478D01*
X119097390Y-98034354D01*
X119030652Y-98062478D01*
X118938958Y-98132967D01*
X118807265Y-98247935D01*
X118801706Y-98252826D01*
X118640698Y-98394449D01*
X118720856Y-98524147D01*
X118883645Y-98724930D01*
X119101911Y-98900588D01*
X119360297Y-99041793D01*
X119643449Y-99139219D01*
X119779143Y-99166982D01*
X119950541Y-99191311D01*
X120082752Y-99199488D01*
X120207516Y-99190730D01*
X120356572Y-99164253D01*
X120417706Y-99151232D01*
X120716655Y-99057151D01*
X120972877Y-98910851D01*
X121181281Y-98725642D01*
X121361937Y-98507743D01*
X121493450Y-98281891D01*
X121580994Y-98033389D01*
X121629745Y-97747539D01*
X121644879Y-97409642D01*
X121644879Y-97409000D01*
X121625999Y-97064285D01*
X120909766Y-97064285D01*
X119265376Y-97064285D01*
X119290773Y-96946357D01*
X119373096Y-96715384D01*
X119505036Y-96527899D01*
X119676227Y-96388978D01*
X119876302Y-96303700D01*
X120094893Y-96277142D01*
X120321632Y-96314382D01*
X120462830Y-96372287D01*
X120652399Y-96508981D01*
X120793267Y-96696873D01*
X120880548Y-96929309D01*
X120884370Y-96946357D01*
X120909766Y-97064285D01*
X121625999Y-97064285D01*
X121624713Y-97040809D01*
X121561825Y-96723716D01*
X121452635Y-96447703D01*
X121293560Y-96202757D01*
X121160257Y-96053999D01*
X120916514Y-95857536D01*
X120645798Y-95721108D01*
X120357823Y-95643098D01*
X120062306Y-95621893D01*
X119768963Y-95655878D01*
X119768963Y-95655878D01*
G37*
X119768963Y-95655878D02*
X119487510Y-95743438D01*
X119227662Y-95882960D01*
X118999136Y-96072827D01*
X118811647Y-96311427D01*
X118732041Y-96457511D01*
X118627149Y-96725494D01*
X118566950Y-96999786D01*
X118545632Y-97308097D01*
X118545410Y-97347286D01*
X118545393Y-97626714D01*
X119728964Y-97616660D01*
X120912534Y-97606606D01*
X120886668Y-97779094D01*
X120820291Y-98017744D01*
X120702325Y-98224455D01*
X120541911Y-98386321D01*
X120396000Y-98471942D01*
X120225542Y-98516020D01*
X120021864Y-98524322D01*
X119814291Y-98497877D01*
X119649658Y-98445783D01*
X119522772Y-98372235D01*
X119385308Y-98265976D01*
X119298329Y-98183017D01*
X119216184Y-98096738D01*
X119154219Y-98046478D01*
X119097390Y-98034354D01*
X119030652Y-98062478D01*
X118938958Y-98132967D01*
X118807265Y-98247935D01*
X118801706Y-98252826D01*
X118640698Y-98394449D01*
X118720856Y-98524147D01*
X118883645Y-98724930D01*
X119101911Y-98900588D01*
X119360297Y-99041793D01*
X119643449Y-99139219D01*
X119779143Y-99166982D01*
X119950541Y-99191311D01*
X120082752Y-99199488D01*
X120207516Y-99190730D01*
X120356572Y-99164253D01*
X120417706Y-99151232D01*
X120716655Y-99057151D01*
X120972877Y-98910851D01*
X121181281Y-98725642D01*
X121361937Y-98507743D01*
X121493450Y-98281891D01*
X121580994Y-98033389D01*
X121629745Y-97747539D01*
X121644879Y-97409642D01*
X121644879Y-97409000D01*
X121625999Y-97064285D01*
X120909766Y-97064285D01*
X119265376Y-97064285D01*
X119290773Y-96946357D01*
X119373096Y-96715384D01*
X119505036Y-96527899D01*
X119676227Y-96388978D01*
X119876302Y-96303700D01*
X120094893Y-96277142D01*
X120321632Y-96314382D01*
X120462830Y-96372287D01*
X120652399Y-96508981D01*
X120793267Y-96696873D01*
X120880548Y-96929309D01*
X120884370Y-96946357D01*
X120909766Y-97064285D01*
X121625999Y-97064285D01*
X121624713Y-97040809D01*
X121561825Y-96723716D01*
X121452635Y-96447703D01*
X121293560Y-96202757D01*
X121160257Y-96053999D01*
X120916514Y-95857536D01*
X120645798Y-95721108D01*
X120357823Y-95643098D01*
X120062306Y-95621893D01*
X119768963Y-95655878D01*
G36*
X123181208Y-95659728D02*
X122911570Y-95742536D01*
X122665712Y-95871724D01*
X122455108Y-96045764D01*
X122291231Y-96263125D01*
X122276736Y-96289266D01*
X122200297Y-96436172D01*
X122160766Y-96532985D01*
X122159263Y-96592744D01*
X122196910Y-96628489D01*
X122274825Y-96653260D01*
X122308675Y-96661050D01*
X122458943Y-96698041D01*
X122616497Y-96741755D01*
X122652694Y-96752705D01*
X122822959Y-96805555D01*
X122902018Y-96642240D01*
X123023133Y-96466362D01*
X123189168Y-96347102D01*
X123400943Y-96283951D01*
X123493587Y-96274560D01*
X123686445Y-96284302D01*
X123846478Y-96332088D01*
X123964630Y-96411056D01*
X124031844Y-96514339D01*
X124039066Y-96635073D01*
X124026408Y-96678453D01*
X123993391Y-96734783D01*
X123933611Y-96788201D01*
X123838485Y-96842876D01*
X123699429Y-96902978D01*
X123507857Y-96972676D01*
X123255187Y-97056138D01*
X123236159Y-97062229D01*
X122905910Y-97179054D01*
X122641516Y-97299414D01*
X122436280Y-97428566D01*
X122283507Y-97571766D01*
X122176499Y-97734270D01*
X122108561Y-97921333D01*
X122101022Y-97953204D01*
X122077540Y-98213118D01*
X122121175Y-98457740D01*
X122226830Y-98678998D01*
X122389412Y-98868819D01*
X122603825Y-99019130D01*
X122832882Y-99112771D01*
X122963939Y-99142636D01*
X123127907Y-99167416D01*
X123300917Y-99184898D01*
X123459102Y-99192871D01*
X123578594Y-99189123D01*
X123607285Y-99184537D01*
X123683073Y-99168266D01*
X123798902Y-99144280D01*
X123879428Y-99127919D01*
X124124946Y-99056373D01*
X124339371Y-98941319D01*
X124533025Y-98783921D01*
X124679039Y-98611784D01*
X124804475Y-98397622D01*
X124892568Y-98171881D01*
X124911200Y-98097107D01*
X124934076Y-97986928D01*
X124601150Y-97905733D01*
X124456887Y-97871685D01*
X124342665Y-97846880D01*
X124274204Y-97834615D01*
X124261693Y-97834483D01*
X124246645Y-97871217D01*
X124214996Y-97954906D01*
X124188829Y-98025857D01*
X124086288Y-98219142D01*
X123939794Y-98376888D01*
X123765090Y-98483923D01*
X123686012Y-98510379D01*
X123468379Y-98545770D01*
X123267814Y-98542693D01*
X123092218Y-98506132D01*
X122949489Y-98441072D01*
X122847527Y-98352498D01*
X122794230Y-98245394D01*
X122797497Y-98124745D01*
X122865228Y-97995536D01*
X122866858Y-97993452D01*
X122939192Y-97920070D01*
X123041362Y-97851255D01*
X123183567Y-97782066D01*
X123376004Y-97707560D01*
X123628872Y-97622797D01*
X123637404Y-97620074D01*
X123968838Y-97504397D01*
X124233409Y-97387909D01*
X124436712Y-97265713D01*
X124584340Y-97132914D01*
X124681888Y-96984616D01*
X124734950Y-96815925D01*
X124749286Y-96647000D01*
X124734033Y-96431285D01*
X124679584Y-96256108D01*
X124575312Y-96095297D01*
X124484531Y-95994937D01*
X124268094Y-95822897D01*
X124018070Y-95704886D01*
X123745932Y-95639374D01*
X123463154Y-95624831D01*
X123181208Y-95659728D01*
X123181208Y-95659728D01*
G37*
X123181208Y-95659728D02*
X122911570Y-95742536D01*
X122665712Y-95871724D01*
X122455108Y-96045764D01*
X122291231Y-96263125D01*
X122276736Y-96289266D01*
X122200297Y-96436172D01*
X122160766Y-96532985D01*
X122159263Y-96592744D01*
X122196910Y-96628489D01*
X122274825Y-96653260D01*
X122308675Y-96661050D01*
X122458943Y-96698041D01*
X122616497Y-96741755D01*
X122652694Y-96752705D01*
X122822959Y-96805555D01*
X122902018Y-96642240D01*
X123023133Y-96466362D01*
X123189168Y-96347102D01*
X123400943Y-96283951D01*
X123493587Y-96274560D01*
X123686445Y-96284302D01*
X123846478Y-96332088D01*
X123964630Y-96411056D01*
X124031844Y-96514339D01*
X124039066Y-96635073D01*
X124026408Y-96678453D01*
X123993391Y-96734783D01*
X123933611Y-96788201D01*
X123838485Y-96842876D01*
X123699429Y-96902978D01*
X123507857Y-96972676D01*
X123255187Y-97056138D01*
X123236159Y-97062229D01*
X122905910Y-97179054D01*
X122641516Y-97299414D01*
X122436280Y-97428566D01*
X122283507Y-97571766D01*
X122176499Y-97734270D01*
X122108561Y-97921333D01*
X122101022Y-97953204D01*
X122077540Y-98213118D01*
X122121175Y-98457740D01*
X122226830Y-98678998D01*
X122389412Y-98868819D01*
X122603825Y-99019130D01*
X122832882Y-99112771D01*
X122963939Y-99142636D01*
X123127907Y-99167416D01*
X123300917Y-99184898D01*
X123459102Y-99192871D01*
X123578594Y-99189123D01*
X123607285Y-99184537D01*
X123683073Y-99168266D01*
X123798902Y-99144280D01*
X123879428Y-99127919D01*
X124124946Y-99056373D01*
X124339371Y-98941319D01*
X124533025Y-98783921D01*
X124679039Y-98611784D01*
X124804475Y-98397622D01*
X124892568Y-98171881D01*
X124911200Y-98097107D01*
X124934076Y-97986928D01*
X124601150Y-97905733D01*
X124456887Y-97871685D01*
X124342665Y-97846880D01*
X124274204Y-97834615D01*
X124261693Y-97834483D01*
X124246645Y-97871217D01*
X124214996Y-97954906D01*
X124188829Y-98025857D01*
X124086288Y-98219142D01*
X123939794Y-98376888D01*
X123765090Y-98483923D01*
X123686012Y-98510379D01*
X123468379Y-98545770D01*
X123267814Y-98542693D01*
X123092218Y-98506132D01*
X122949489Y-98441072D01*
X122847527Y-98352498D01*
X122794230Y-98245394D01*
X122797497Y-98124745D01*
X122865228Y-97995536D01*
X122866858Y-97993452D01*
X122939192Y-97920070D01*
X123041362Y-97851255D01*
X123183567Y-97782066D01*
X123376004Y-97707560D01*
X123628872Y-97622797D01*
X123637404Y-97620074D01*
X123968838Y-97504397D01*
X124233409Y-97387909D01*
X124436712Y-97265713D01*
X124584340Y-97132914D01*
X124681888Y-96984616D01*
X124734950Y-96815925D01*
X124749286Y-96647000D01*
X124734033Y-96431285D01*
X124679584Y-96256108D01*
X124575312Y-96095297D01*
X124484531Y-95994937D01*
X124268094Y-95822897D01*
X124018070Y-95704886D01*
X123745932Y-95639374D01*
X123463154Y-95624831D01*
X123181208Y-95659728D01*
G36*
X126551433Y-95646909D02*
X126256568Y-95729300D01*
X125985406Y-95867965D01*
X125747223Y-96059695D01*
X125551300Y-96301281D01*
X125456886Y-96470946D01*
X125383271Y-96664870D01*
X125322534Y-96896629D01*
X125280714Y-97136100D01*
X125263851Y-97353157D01*
X125265395Y-97426113D01*
X125276428Y-97610285D01*
X126455714Y-97618499D01*
X127635000Y-97626714D01*
X127622607Y-97753714D01*
X127575052Y-97954766D01*
X127480263Y-98152993D01*
X127353745Y-98318005D01*
X127317396Y-98351864D01*
X127127494Y-98469306D01*
X126912069Y-98526676D01*
X126683621Y-98525711D01*
X126454650Y-98468154D01*
X126237653Y-98355745D01*
X126045132Y-98190222D01*
X126029201Y-98172517D01*
X125948765Y-98085291D01*
X125886680Y-98025549D01*
X125860168Y-98007714D01*
X125822649Y-98028922D01*
X125743885Y-98085342D01*
X125638748Y-98166167D01*
X125602890Y-98194678D01*
X125369579Y-98381641D01*
X125431861Y-98487883D01*
X125523306Y-98609781D01*
X125656015Y-98746166D01*
X125807426Y-98876984D01*
X125954980Y-98982182D01*
X126039247Y-99027814D01*
X126195284Y-99084831D01*
X126383923Y-99136399D01*
X126577016Y-99176283D01*
X126746418Y-99198249D01*
X126818571Y-99200454D01*
X126933166Y-99191228D01*
X127072588Y-99172018D01*
X127126631Y-99162499D01*
X127437946Y-99068002D01*
X127713478Y-98912025D01*
X127949437Y-98698227D01*
X128142031Y-98430268D01*
X128287469Y-98111806D01*
X128320382Y-98010199D01*
X128359417Y-97814699D01*
X128378987Y-97574417D01*
X128379451Y-97314388D01*
X128361165Y-97059641D01*
X128346805Y-96971769D01*
X127616857Y-96971769D01*
X127616857Y-97064285D01*
X126020285Y-97064285D01*
X126021082Y-96982643D01*
X126040007Y-96887416D01*
X126086980Y-96760746D01*
X126149347Y-96631270D01*
X126214454Y-96527628D01*
X126230924Y-96507720D01*
X126386749Y-96386075D01*
X126583342Y-96309334D01*
X126801071Y-96282170D01*
X127020303Y-96309253D01*
X127040949Y-96314949D01*
X127212517Y-96392478D01*
X127369864Y-96513264D01*
X127499016Y-96661368D01*
X127585996Y-96820850D01*
X127616857Y-96971769D01*
X128346805Y-96971769D01*
X128324487Y-96835208D01*
X128302425Y-96751901D01*
X128171814Y-96436040D01*
X127990968Y-96163599D01*
X127765749Y-95941630D01*
X127502022Y-95777182D01*
X127485459Y-95769461D01*
X127175157Y-95663781D01*
X126860722Y-95624000D01*
X126551433Y-95646909D01*
X126551433Y-95646909D01*
G37*
X126551433Y-95646909D02*
X126256568Y-95729300D01*
X125985406Y-95867965D01*
X125747223Y-96059695D01*
X125551300Y-96301281D01*
X125456886Y-96470946D01*
X125383271Y-96664870D01*
X125322534Y-96896629D01*
X125280714Y-97136100D01*
X125263851Y-97353157D01*
X125265395Y-97426113D01*
X125276428Y-97610285D01*
X126455714Y-97618499D01*
X127635000Y-97626714D01*
X127622607Y-97753714D01*
X127575052Y-97954766D01*
X127480263Y-98152993D01*
X127353745Y-98318005D01*
X127317396Y-98351864D01*
X127127494Y-98469306D01*
X126912069Y-98526676D01*
X126683621Y-98525711D01*
X126454650Y-98468154D01*
X126237653Y-98355745D01*
X126045132Y-98190222D01*
X126029201Y-98172517D01*
X125948765Y-98085291D01*
X125886680Y-98025549D01*
X125860168Y-98007714D01*
X125822649Y-98028922D01*
X125743885Y-98085342D01*
X125638748Y-98166167D01*
X125602890Y-98194678D01*
X125369579Y-98381641D01*
X125431861Y-98487883D01*
X125523306Y-98609781D01*
X125656015Y-98746166D01*
X125807426Y-98876984D01*
X125954980Y-98982182D01*
X126039247Y-99027814D01*
X126195284Y-99084831D01*
X126383923Y-99136399D01*
X126577016Y-99176283D01*
X126746418Y-99198249D01*
X126818571Y-99200454D01*
X126933166Y-99191228D01*
X127072588Y-99172018D01*
X127126631Y-99162499D01*
X127437946Y-99068002D01*
X127713478Y-98912025D01*
X127949437Y-98698227D01*
X128142031Y-98430268D01*
X128287469Y-98111806D01*
X128320382Y-98010199D01*
X128359417Y-97814699D01*
X128378987Y-97574417D01*
X128379451Y-97314388D01*
X128361165Y-97059641D01*
X128346805Y-96971769D01*
X127616857Y-96971769D01*
X127616857Y-97064285D01*
X126020285Y-97064285D01*
X126021082Y-96982643D01*
X126040007Y-96887416D01*
X126086980Y-96760746D01*
X126149347Y-96631270D01*
X126214454Y-96527628D01*
X126230924Y-96507720D01*
X126386749Y-96386075D01*
X126583342Y-96309334D01*
X126801071Y-96282170D01*
X127020303Y-96309253D01*
X127040949Y-96314949D01*
X127212517Y-96392478D01*
X127369864Y-96513264D01*
X127499016Y-96661368D01*
X127585996Y-96820850D01*
X127616857Y-96971769D01*
X128346805Y-96971769D01*
X128324487Y-96835208D01*
X128302425Y-96751901D01*
X128171814Y-96436040D01*
X127990968Y-96163599D01*
X127765749Y-95941630D01*
X127502022Y-95777182D01*
X127485459Y-95769461D01*
X127175157Y-95663781D01*
X126860722Y-95624000D01*
X126551433Y-95646909D01*
G04 #@! TD*
M02*
