M48
;DRILL file {KiCad (5.0.0-rc3-dev)} date 09/30/19 17:53:03
;FORMAT={2:4/ absolute / inch / suppress trailing zeros}
FMAT,2
INCH,LZ
T1C0.0394
T2C0.0400
%
G90
G05
M72
T1
X0437Y-029
X0437Y-03
X0437Y-031
X0522Y-0417
X0532Y-0417
X0468Y-0416
X0478Y-0416
X0488Y-0416
X0437Y-032
T2
X0446Y-0336
X0446Y-0396
X0456Y-0336
X0456Y-0396
X0466Y-0336
X0466Y-0396
X0476Y-0336
X0476Y-0396
X0486Y-0336
X0486Y-0396
X0496Y-0336
X0496Y-0396
X0506Y-0336
X0506Y-0396
X0516Y-0336
X0516Y-0396
X0526Y-0336
X0526Y-0396
X0536Y-0336
X0536Y-0396
X0546Y-0336
X0546Y-0396
X0556Y-0336
X0556Y-0396
X0459Y-0264
X0459Y-0314
X0469Y-0264
X0469Y-0314
X0479Y-0264
X0479Y-0314
X0489Y-0264
X0489Y-0314
X0499Y-0264
X0499Y-0314
X0509Y-0264
X0509Y-0314
X0519Y-0264
X0519Y-0314
X0529Y-0264
X0529Y-0314
T0
M30
